<?xml version="1.0" standalone="no"?>
<!DOCTYPE svg PUBLIC "-//W3C//DTD SVG 20010904//EN"
 "http://www.w3.org/TR/2001/REC-SVG-20010904/DTD/svg10.dtd">
<svg version="1.0" xmlns="http://www.w3.org/2000/svg"
 width="512.000000pt" height="512.000000pt" viewBox="0 0 512.000000 512.000000"
 preserveAspectRatio="xMidYMid meet">

<g transform="translate(0.000000,512.000000) scale(0.100000,-0.100000)"
fill="#000000" stroke="none">
<path d="M2307 4653 c-4 -3 -7 -35 -7 -70 0 -55 -4 -68 -25 -88 -32 -32 -58
-31 -138 5 -48 22 -82 30 -121 30 -72 0 -99 -23 -132 -115 -25 -69 -48 -105
-66 -105 -6 0 -40 14 -76 31 -161 74 -240 39 -258 -114 -9 -76 0 -107 31 -107
19 0 26 7 34 38 6 20 11 46 11 58 0 12 5 35 11 53 9 26 16 31 42 31 18 0 61
-14 95 -30 128 -61 203 -29 242 100 11 37 27 73 35 80 19 16 64 7 133 -25 130
-61 252 1 252 128 0 68 -37 127 -63 100z"/>
<path d="M4270 4229 c-44 -13 -65 -33 -56 -54 5 -15 15 -16 55 -11 77 10 130
-19 131 -72 0 -12 -11 -50 -25 -83 -34 -81 -41 -136 -22 -182 17 -40 44 -56
140 -83 81 -22 87 -38 48 -136 -33 -80 -39 -140 -19 -182 17 -38 83 -66 155
-66 73 0 93 6 93 30 0 27 -19 37 -90 44 -36 4 -70 12 -77 18 -21 17 -15 65 17
146 36 88 34 116 -12 168 -21 24 -47 39 -87 50 -110 31 -122 56 -76 164 30 70
32 139 8 182 -34 57 -114 87 -183 67z"/>
<path d="M2671 3984 c-47 -24 -73 -51 -199 -211 -134 -169 -162 -199 -162
-174 0 5 -21 67 -47 137 -51 139 -83 186 -148 215 -53 25 -128 24 -180 -1 -53
-26 -552 -548 -891 -932 -123 -139 -137 -171 -106 -241 26 -58 70 -87 134 -87
42 0 54 6 125 62 95 75 378 313 568 477 77 66 143 117 147 113 3 -4 30 -87 59
-184 43 -147 58 -185 86 -218 50 -58 105 -83 178 -83 107 0 134 21 345 277
l122 148 62 -154 c33 -85 73 -171 88 -190 62 -82 206 -110 296 -58 29 17 111
102 250 260 113 129 208 236 212 238 3 1 77 -147 165 -329 87 -182 171 -350
186 -374 33 -52 97 -81 154 -71 72 14 133 99 119 165 -22 99 -345 1057 -379
1120 -49 94 -174 137 -270 92 -25 -12 -117 -97 -248 -228 -114 -116 -210 -206
-213 -202 -2 4 -31 78 -63 164 -33 86 -71 174 -85 195 -38 57 -103 92 -184 97
-58 4 -74 1 -121 -23z m-663 -301 c8 -56 -317 -364 -555 -526 -79 -53 -113
-57 -113 -11 0 35 223 261 383 388 219 173 277 203 285 149z"/>
<path d="M11 3006 c-19 -23 0 -42 51 -49 59 -8 92 -36 96 -80 3 -30 -5 -47
-47 -102 -98 -127 -91 -190 27 -268 90 -60 92 -75 22 -166 -94 -120 -87 -196
23 -253 47 -23 131 -35 141 -19 16 25 -6 49 -64 71 -32 12 -66 31 -76 41 -16
18 -16 22 -1 53 8 19 29 49 44 67 50 58 63 82 63 117 0 60 -28 101 -102 148
-53 34 -68 49 -68 68 0 13 25 58 57 102 52 70 57 82 58 130 0 57 -18 90 -68
128 -36 27 -137 35 -156 12z"/>
<path d="M2725 2571 c-80 -20 -106 -46 -280 -263 -64 -82 -120 -148 -124 -148
-4 0 -13 17 -20 38 -84 238 -106 279 -170 311 -58 30 -103 35 -163 17 -50 -14
-67 -29 -199 -163 -153 -158 -367 -385 -540 -573 -218 -237 -289 -324 -299
-360 -29 -107 90 -212 187 -166 45 21 220 164 540 439 151 129 255 212 258
205 3 -7 27 -89 55 -182 27 -94 61 -187 75 -207 34 -53 101 -90 175 -96 51 -5
67 -2 115 21 48 24 74 51 207 212 84 101 155 184 159 184 3 0 33 -69 65 -152
50 -131 65 -159 104 -199 76 -76 204 -92 289 -36 22 15 134 133 248 263 l208
236 59 -129 c33 -70 114 -236 181 -368 134 -267 148 -285 233 -285 81 0 144
60 145 140 2 74 -351 1114 -399 1177 -59 78 -180 100 -267 50 -25 -15 -132
-117 -238 -227 -106 -110 -196 -200 -199 -200 -3 0 -34 77 -70 172 -69 185
-98 232 -170 268 -43 22 -122 32 -165 21z m-731 -297 c9 -3 16 -17 16 -30 0
-33 -223 -261 -372 -380 -231 -186 -289 -215 -296 -154 -6 56 352 389 570 531
34 21 62 39 64 39 1 0 9 -3 18 -6z"/>
<path d="M4924 1146 c-3 -9 -1 -38 6 -65 9 -40 9 -55 -2 -78 -23 -48 -53 -55
-138 -33 -162 42 -228 12 -246 -111 -16 -117 -36 -133 -126 -103 -29 10 -81
18 -115 19 -54 0 -66 -3 -88 -26 -33 -32 -48 -97 -39 -166 8 -66 26 -92 51
-77 14 9 19 28 23 92 3 45 11 87 18 94 13 13 87 3 180 -24 39 -11 47 -10 80 7
50 27 79 75 88 143 10 82 17 92 68 92 23 0 65 -7 92 -15 95 -29 156 -12 207
57 27 37 28 110 2 163 -21 42 -51 57 -61 31z"/>
<path d="M2462 1018 c-10 -14 -44 -173 -62 -293 -5 -38 -12 -85 -15 -102 l-6
-33 46 0 c28 0 47 5 49 13 2 6 8 30 12 52 13 60 42 55 64 -10 14 -42 21 -51
44 -53 58 -7 58 -6 4 200 -28 106 -53 203 -55 216 -4 17 -12 22 -38 22 -18 0
-37 -6 -43 -12z m63 -202 c7 -42 6 -46 -14 -46 -17 0 -21 6 -21 34 0 18 3 48
7 67 5 28 7 30 14 12 4 -11 11 -41 14 -67z"/>
<path d="M2696 923 c-4 -60 -11 -155 -17 -213 -5 -58 -5 -108 0 -113 4 -4 28
-7 52 -5 l44 3 5 75 c5 73 5 74 21 50 9 -14 27 -51 40 -82 l23 -58 49 0 c46 0
48 1 41 23 -3 12 -24 53 -45 91 l-38 70 38 17 c67 30 91 117 48 180 -34 52
-78 69 -173 69 l-82 0 -6 -107z m162 5 c18 -18 15 -56 -6 -67 -9 -5 -30 -7
-45 -4 -24 5 -27 10 -27 44 0 37 1 39 33 39 18 0 38 -5 45 -12z"/>
<path d="M2243 993 c-13 -2 -23 -7 -23 -11 1 -4 9 -72 19 -152 10 -80 16 -150
14 -157 -7 -18 -42 -26 -58 -13 -16 13 -30 75 -50 214 -8 54 -15 100 -17 102
-2 2 -21 1 -41 -3 -26 -4 -37 -11 -37 -23 0 -26 39 -312 46 -332 11 -36 54
-58 113 -58 70 0 101 15 124 60 18 37 18 77 -4 255 -17 134 -15 132 -86 118z"/>
<path d="M3086 975 c-3 -9 -20 -99 -36 -199 -17 -99 -33 -188 -35 -197 -4 -13
6 -18 47 -27 58 -11 67 -6 68 38 0 14 15 105 34 203 18 98 30 180 27 181 -3 2
-27 7 -52 11 -38 6 -47 4 -53 -10z"/>
<path d="M1840 941 c-93 -29 -117 -67 -101 -157 19 -98 48 -203 65 -229 35
-53 128 -71 173 -34 9 8 26 12 38 11 30 -4 52 23 35 43 -6 8 -9 22 -6 32 8 25
-27 188 -54 251 -35 82 -77 105 -150 83z m83 -130 c15 -36 47 -150 47 -166 0
-3 -9 -3 -21 0 -14 5 -25 1 -34 -12 -11 -15 -11 -21 2 -35 15 -17 14 -18 -10
-18 -43 0 -50 18 -92 223 -5 26 22 47 60 47 29 0 35 -5 48 -39z"/>
<path d="M3250 908 c-6 -23 -27 -98 -46 -165 -19 -68 -34 -132 -34 -142 0 -31
47 -78 95 -97 53 -20 99 -14 132 18 37 35 128 338 107 357 -5 5 -23 11 -41 14
l-32 6 -21 -69 c-11 -39 -29 -103 -41 -142 -12 -40 -26 -79 -31 -85 -14 -18
-43 -16 -59 3 -10 13 -6 40 25 166 38 153 38 167 -1 168 -6 0 -18 3 -27 6 -11
4 -18 -5 -26 -38z"/>
<path d="M1546 847 l-29 -12 7 -95 c6 -87 28 -256 42 -322 5 -26 6 -26 42 -14
36 13 37 14 42 72 6 74 26 82 64 24 28 -42 57 -51 89 -27 16 11 11 23 -56 132
-112 185 -158 255 -165 254 -4 -1 -20 -6 -36 -12z m114 -228 c0 -11 -33 -20
-41 -12 -4 4 -11 33 -14 63 l-6 55 30 -50 c17 -27 31 -53 31 -56z"/>
<path d="M3644 806 c-96 -42 -109 -162 -23 -221 45 -32 60 -69 36 -93 -22 -21
-67 -2 -67 28 0 15 -11 26 -36 36 -47 20 -64 12 -64 -28 0 -70 79 -138 158
-138 37 0 50 6 77 33 65 65 59 136 -16 210 -41 41 -47 51 -39 68 18 34 70 18
70 -22 0 -22 20 -37 57 -45 27 -5 32 -3 41 24 20 57 -11 110 -83 143 -47 22
-69 23 -111 5z"/>
</g>
</svg>
