<?xml version="1.0" standalone="no"?>
<!DOCTYPE svg PUBLIC "-//W3C//DTD SVG 20010904//EN"
 "http://www.w3.org/TR/2001/REC-SVG-20010904/DTD/svg10.dtd">
<svg version="1.0" xmlns="http://www.w3.org/2000/svg"
 width="512.000000pt" height="512.000000pt" viewBox="0 0 512.000000 512.000000"
 preserveAspectRatio="xMidYMid meet">

<g transform="translate(0.000000,512.000000) scale(0.100000,-0.100000)"
fill="#000000" stroke="none">
<path d="M2674 5105 c-3 -8 1 -36 10 -62 23 -66 20 -100 -9 -128 -26 -27 -60
-30 -160 -16 -84 11 -145 -3 -181 -42 -29 -31 -33 -42 -39 -123 -11 -127 -11
-129 -99 -118 -175 21 -233 7 -263 -64 -19 -46 -12 -148 14 -200 21 -42 35
-49 57 -27 13 13 15 31 9 107 -5 72 -3 92 8 99 19 12 90 11 164 -3 73 -13 107
-4 147 40 34 36 48 83 48 157 0 96 29 110 175 84 82 -14 133 0 174 46 43 49
58 104 42 158 -23 77 -82 133 -97 92z"/>
<path d="M1193 4790 c-143 -65 -89 -287 64 -265 65 10 114 -33 83 -70 -15 -18
-53 -19 -78 -4 -13 8 -29 8 -60 0 -23 -7 -42 -14 -42 -17 0 -3 7 -19 16 -35
41 -80 198 -78 258 4 29 39 29 115 0 153 -37 50 -69 67 -141 73 -68 6 -68 6
-68 36 0 26 4 30 30 33 19 3 33 -2 42 -14 11 -15 18 -16 52 -5 51 15 55 22 37
65 -27 64 -110 84 -193 46z"/>
<path d="M960 4717 c-14 -6 -66 -30 -117 -53 l-92 -42 34 -89 c73 -186 141
-333 153 -333 8 0 65 21 128 48 82 34 114 52 114 64 0 21 -21 68 -30 68 -4 0
-40 -13 -80 -30 -40 -16 -74 -30 -76 -30 -6 0 -34 58 -34 69 0 6 15 18 33 27
17 9 33 17 34 18 2 2 -5 22 -14 45 -14 36 -20 41 -37 36 -61 -19 -65 -18 -80
16 l-15 34 80 37 c43 20 79 42 79 48 0 24 -30 80 -42 79 -7 0 -24 -5 -38 -12z"/>
<path d="M3730 4660 c-30 -21 -61 -39 -68 -40 -7 0 -39 11 -72 25 -98 41 -104
35 -73 -80 l17 -63 -54 -61 c-38 -44 -50 -65 -43 -72 6 -6 45 -14 87 -18 l76
-6 43 -65 c23 -35 46 -65 52 -65 10 0 20 18 57 100 23 48 24 50 89 66 71 17
89 25 89 39 0 4 -27 30 -61 57 l-60 48 3 85 c4 102 -3 106 -82 50z"/>
<path d="M617 4564 l-48 -25 107 -207 c59 -114 108 -209 110 -211 8 -8 105 43
102 54 -7 25 -210 415 -216 415 -4 -1 -29 -12 -55 -26z"/>
<path d="M355 4419 c-69 -36 -146 -99 -138 -112 4 -7 60 -92 125 -191 64 -98
119 -183 121 -189 3 -10 80 34 92 52 3 6 -13 38 -36 71 -24 33 -40 62 -37 65
6 7 81 -30 133 -64 l30 -20 43 27 c23 15 41 32 39 37 -1 6 -46 32 -100 58
l-98 48 21 26 c45 57 14 158 -60 195 -46 24 -87 23 -135 -3z m89 -105 c27 -27
15 -58 -34 -84 -15 -8 -23 -4 -44 22 l-25 33 21 22 c25 27 60 30 82 7z"/>
<path d="M36 4181 c-14 -15 -26 -33 -26 -39 0 -16 115 -253 170 -350 l41 -73
39 31 40 31 -26 50 c-20 40 -23 54 -13 65 16 20 25 18 75 -17 l43 -32 37 28
c19 15 32 31 27 35 -19 17 -263 210 -319 252 l-61 47 -27 -28z m184 -186 c10
-12 10 -18 0 -30 -7 -8 -16 -15 -20 -15 -9 0 -70 101 -70 115 0 8 71 -47 90
-70z"/>
<path d="M4560 3879 c-44 -14 -60 -27 -60 -50 0 -22 2 -22 87 -19 58 2 65 -1
93 -28 36 -37 37 -55 5 -131 -51 -123 -51 -204 0 -248 14 -12 58 -32 98 -44
78 -23 107 -42 107 -70 0 -10 -14 -53 -31 -95 -70 -174 -27 -252 142 -262 79
-5 119 7 119 33 0 24 -41 42 -108 49 -116 11 -122 26 -67 167 43 109 41 144
-14 197 -26 26 -58 43 -116 62 -79 25 -80 25 -83 61 -2 23 8 64 27 113 36 90
38 125 11 180 -36 74 -126 110 -210 85z"/>
<path d="M1538 3860 c-319 -58 -580 -297 -668 -611 -86 -310 25 -617 286 -789
195 -128 482 -146 668 -42 180 101 84 354 -117 310 -28 -6 -83 -8 -122 -6 -86
6 -158 41 -215 105 -95 109 -76 283 47 414 97 103 230 133 345 76 178 -88 318
-373 432 -882 72 -325 138 -774 171 -1175 20 -243 29 -295 59 -341 29 -43 114
-89 165 -89 57 0 109 19 147 52 62 54 71 86 89 289 68 812 201 1503 349 1824
74 159 178 284 274 328 111 51 245 17 338 -86 91 -100 128 -242 90 -341 -49
-128 -219 -203 -382 -168 -66 14 -118 2 -160 -39 -41 -40 -58 -87 -51 -144 6
-62 40 -103 111 -136 103 -48 177 -62 301 -57 189 8 331 72 467 208 62 63 85
96 121 171 59 123 72 181 70 314 -2 219 -81 409 -237 574 -143 150 -329 235
-541 248 -331 20 -628 -170 -832 -531 -39 -68 -118 -246 -128 -288 -4 -16 -10
-28 -14 -28 -3 0 -19 35 -35 78 -175 474 -495 756 -871 768 -60 1 -131 -1
-157 -6z m2229 -205 c93 -32 167 -79 233 -151 85 -94 166 -288 158 -382 -3
-32 -6 -37 -28 -37 -21 0 -32 15 -80 111 -30 61 -72 134 -94 163 -78 105 -210
178 -341 188 -82 6 -137 -3 -297 -53 -64 -20 -123 -34 -132 -31 -33 13 -17 46
40 83 200 128 377 164 541 109z m-1072 -1250 c64 -17 167 -64 201 -92 l22 -18
-24 -135 c-37 -210 -71 -454 -99 -714 -14 -132 -27 -241 -29 -243 -5 -6 -92
225 -135 360 -66 208 -191 734 -191 805 0 44 146 65 255 37z"/>
<path d="M165 3166 l-36 -56 -55 0 c-66 0 -79 -18 -42 -58 54 -60 53 -56 22
-164 -7 -24 21 -23 79 2 l46 20 49 -30 c71 -43 75 -41 67 33 l-7 63 47 38 c25
21 44 43 42 49 -2 6 -29 18 -61 26 -57 15 -59 18 -78 66 -11 28 -23 54 -28 59
-5 5 -24 -16 -45 -48z"/>
<path d="M332 2220 c-35 -16 -43 -24 -40 -42 3 -22 6 -23 81 -19 71 3 81 1
103 -20 30 -28 31 -62 4 -147 -11 -35 -20 -87 -20 -115 0 -94 34 -128 150
-152 76 -16 110 -36 110 -64 0 -9 -12 -52 -26 -96 -55 -171 -7 -248 156 -248
79 -1 120 13 120 40 0 29 -32 42 -103 43 -38 0 -77 5 -88 10 -27 15 -25 68 7
163 24 71 25 81 12 119 -19 59 -67 94 -157 113 -41 8 -80 20 -88 26 -17 15
-16 67 2 120 41 115 38 179 -12 231 -58 62 -131 75 -211 38z"/>
<path d="M4741 1819 l-44 -51 -74 6 c-87 8 -90 2 -43 -76 17 -26 30 -53 30
-58 0 -6 -11 -33 -25 -60 -36 -71 -34 -84 13 -76 114 21 107 22 163 -28 29
-26 56 -43 61 -38 4 4 12 39 17 77 4 38 12 70 17 72 34 12 115 66 112 75 -2 6
-31 23 -64 37 -32 14 -62 29 -66 35 -3 5 -9 30 -13 55 -7 48 -21 81 -33 81 -4
0 -27 -23 -51 -51z"/>
<path d="M3915 1231 c-3 -6 -1 -28 4 -48 15 -53 14 -89 -4 -123 -22 -42 -54
-47 -157 -20 -95 24 -151 23 -193 -4 -39 -26 -54 -56 -65 -136 -15 -109 -44
-129 -139 -96 -22 8 -67 18 -98 21 -112 12 -163 -42 -163 -172 0 -103 25 -148
65 -119 14 10 17 27 16 83 -2 101 8 123 58 123 22 0 68 -9 103 -20 76 -24 109
-25 148 -5 54 28 82 79 95 176 9 67 24 83 74 81 24 -1 68 -9 98 -18 68 -20
144 -14 181 13 68 49 87 145 46 229 -19 39 -55 57 -69 35z"/>
<path d="M1766 910 c-58 -39 -58 -39 -95 -24 -96 41 -113 46 -121 38 -6 -6 -1
-40 11 -87 l21 -78 -52 -60 c-66 -76 -62 -89 24 -89 35 0 72 -3 81 -6 9 -4 35
-36 57 -71 25 -39 46 -63 55 -61 8 2 26 32 39 68 14 36 31 70 39 76 8 6 42 17
75 24 89 19 91 29 19 90 l-61 53 3 81 c3 75 2 81 -16 83 -11 1 -46 -16 -79
-37z"/>
</g>
</svg>
