<?xml version="1.0" standalone="no"?>
<!DOCTYPE svg PUBLIC "-//W3C//DTD SVG 20010904//EN"
 "http://www.w3.org/TR/2001/REC-SVG-20010904/DTD/svg10.dtd">
<svg version="1.0" xmlns="http://www.w3.org/2000/svg"
 width="512.000000pt" height="512.000000pt" viewBox="0 0 512.000000 512.000000"
 preserveAspectRatio="xMidYMid meet">

<g transform="translate(0.000000,512.000000) scale(0.100000,-0.100000)"
fill="#000000" stroke="none">
<path d="M1824 4662 c-30 -24 -44 -55 -44 -97 0 -55 53 -105 110 -105 34 0 48
6 76 34 29 29 34 41 34 79 0 36 -6 51 -29 76 -25 27 -36 31 -78 31 -30 0 -56
-7 -69 -18z"/>
<path d="M2691 4363 c-5 -21 -15 -74 -21 -117 -5 -44 -12 -81 -14 -83 -2 -2
-28 11 -57 30 -106 68 -189 102 -189 79 0 -10 111 -126 168 -176 l43 -37 -105
-104 c-101 -99 -121 -125 -93 -125 19 1 86 33 161 79 37 23 70 40 72 38 2 -2
9 -39 14 -83 14 -97 28 -154 39 -154 12 0 31 79 38 156 3 34 9 67 13 73 4 7
36 -6 91 -39 83 -49 146 -77 155 -67 7 7 -85 109 -148 163 -31 27 -57 52 -57
55 -1 4 47 55 107 114 78 79 102 109 90 112 -18 5 -95 -32 -177 -84 -63 -40
-66 -38 -74 51 -7 77 -26 156 -38 156 -4 0 -13 -17 -18 -37z"/>
<path d="M1380 4272 c-50 -27 -80 -76 -80 -129 0 -57 7 -69 105 -183 218 -253
365 -499 451 -755 37 -111 76 -283 68 -297 -3 -4 -27 -8 -53 -8 -74 0 -458
-38 -615 -60 -77 -12 -157 -29 -176 -38 -49 -25 -84 -97 -75 -152 7 -42 42
-92 76 -111 40 -21 407 -68 694 -89 82 -6 151 -13 153 -15 6 -6 -28 -172 -54
-262 -58 -201 -152 -424 -303 -718 -54 -104 -101 -203 -105 -218 -23 -96 86
-200 187 -177 50 11 88 42 194 160 311 345 518 745 583 1130 l11 66 282 -1
281 -1 7 -29 c3 -17 14 -66 24 -110 82 -377 272 -728 569 -1057 106 -118 141
-147 192 -158 97 -22 209 81 187 172 -3 13 -72 156 -152 318 -177 355 -262
593 -306 853 l-6 37 48 0 c125 0 668 58 756 81 148 38 165 241 24 293 -53 20
-279 51 -517 71 -102 8 -213 18 -248 21 l-63 6 7 36 c62 346 232 677 519 1012
98 114 105 126 105 182 0 78 -70 148 -148 148 -107 0 -440 -261 -607 -475
-188 -242 -325 -530 -372 -790 l-18 -95 -280 0 -280 0 -17 89 c-96 492 -432
971 -856 1221 -87 51 -141 60 -192 32z m171 -82 c282 -165 537 -452 690 -775
75 -159 110 -278 155 -520 3 -20 10 -20 329 -20 l325 0 5 35 c82 531 404 1021
841 1278 110 66 182 53 200 -36 8 -38 -4 -57 -98 -165 -239 -272 -416 -590
-491 -882 -29 -115 -50 -235 -43 -243 3 -2 66 -8 140 -13 265 -16 644 -59 713
-80 88 -28 99 -146 17 -187 -44 -23 -666 -92 -827 -92 l-48 0 7 -52 c18 -153
98 -431 176 -618 22 -52 96 -205 164 -340 68 -135 124 -257 124 -271 0 -29
-30 -73 -62 -90 -19 -10 -42 10 -235 202 -173 173 -225 231 -270 304 -55 88
-174 325 -188 375 -4 16 83 -64 246 -225 195 -193 246 -240 227 -205 -14 25
-39 70 -55 100 -17 30 -52 107 -78 170 l-48 115 -199 201 -199 200 -6 57 -6
58 -372 -3 c-434 -3 -433 -3 -364 -75 31 -31 45 -39 52 -30 5 8 7 5 4 -8 -3
-11 -15 -62 -27 -113 l-23 -94 -82 82 -83 83 -41 -74 -40 -74 89 -90 c50 -50
90 -96 90 -103 0 -12 -56 -141 -66 -151 -2 -3 -46 37 -98 88 l-93 92 -31 -72
c-18 -39 -32 -77 -32 -83 0 -6 39 -49 86 -97 l86 -86 -47 -73 -47 -73 -79 79
c-43 43 -80 76 -82 73 -2 -2 -21 -35 -41 -73 l-38 -68 66 -67 c36 -37 66 -72
66 -78 0 -6 -23 -37 -52 -68 l-51 -56 -63 62 c-38 38 -67 59 -72 54 -5 -6 -29
-35 -55 -66 l-46 -55 59 -59 c59 -58 60 -60 37 -72 -65 -36 -147 14 -147 89 0
13 58 138 128 278 150 298 237 512 286 700 31 119 61 288 53 296 -1 2 -70 8
-152 14 -322 23 -695 69 -735 90 -45 24 -54 102 -17 145 19 22 38 29 139 45
129 21 468 56 648 68 l115 7 -3 40 c-9 130 -79 367 -159 536 -90 190 -226 393
-377 563 -40 45 -78 91 -84 103 -19 34 -14 69 14 102 38 45 86 43 175 -9z
m836 -1772 c-3 -8 -6 -5 -6 6 -1 11 2 17 5 13 3 -3 4 -12 1 -19z"/>
<path d="M4503 3826 c-116 -52 -55 -235 70 -212 62 12 106 83 87 141 -22 68
-93 100 -157 71z"/>
<path d="M4862 3229 c-6 -30 -13 -75 -17 -101 l-6 -46 -72 44 c-40 23 -85 46
-101 50 l-29 7 28 -37 c15 -20 55 -60 87 -89 l60 -53 -86 -83 c-47 -46 -83
-88 -80 -92 5 -9 80 26 146 67 21 13 40 24 42 24 2 0 7 -19 11 -42 13 -91 27
-148 34 -148 10 0 31 100 31 146 0 43 14 50 48 26 55 -39 152 -83 152 -69 0 7
-36 49 -81 92 l-81 79 58 56 c32 30 71 70 87 88 26 28 27 32 10 32 -11 0 -57
-22 -101 -49 -93 -56 -81 -63 -100 63 -14 91 -27 103 -40 35z"/>
<path d="M221 3083 c-6 -31 -11 -71 -11 -89 0 -43 -14 -50 -48 -26 -55 39
-152 83 -152 69 0 -7 36 -49 81 -92 l80 -78 -80 -81 c-113 -113 -107 -125 23
-51 43 24 82 43 86 40 4 -2 10 -33 13 -68 3 -34 11 -76 17 -92 11 -28 13 -28
20 -10 4 12 13 54 19 95 7 41 13 76 15 78 2 2 40 -18 84 -43 124 -72 134 -57
30 46 l-87 86 84 83 c116 114 103 123 -48 33 -32 -19 -60 -33 -63 -30 -3 3
-10 35 -15 72 -19 133 -30 147 -48 58z"/>
<path d="M834 2141 c-61 -26 -85 -122 -44 -174 29 -36 81 -52 125 -37 110 36
95 203 -20 215 -22 3 -50 1 -61 -4z"/>
<path d="M4166 2049 c-92 -25 -113 -150 -33 -199 86 -53 191 16 173 113 -11
61 -79 102 -140 86z"/>
<path d="M4381 846 c-6 -14 -16 -68 -23 -119 -6 -50 -13 -94 -14 -96 -2 -2
-29 13 -61 32 -84 51 -171 92 -179 84 -11 -10 38 -68 125 -148 l79 -73 -95
-89 c-92 -88 -120 -123 -109 -135 8 -7 97 35 177 84 31 19 59 34 63 34 3 0 6
-15 6 -34 0 -48 28 -188 40 -200 14 -14 28 31 42 137 6 50 13 94 14 96 2 2 29
-13 61 -32 84 -51 171 -92 179 -84 11 10 -39 70 -125 148 l-79 72 104 101 c96
94 120 126 94 126 -13 0 -156 -73 -195 -99 -16 -12 -33 -21 -36 -21 -3 0 -9
30 -13 68 -8 77 -25 153 -37 166 -5 5 -13 -2 -18 -18z"/>
<path d="M2731 777 c-52 -26 -63 -65 -69 -236 -3 -113 -1 -164 7 -180 26 -47
131 -66 194 -36 44 21 69 59 75 112 6 51 -4 63 -54 63 -27 0 -32 -4 -40 -37
-7 -29 -15 -39 -32 -41 -44 -7 -52 12 -52 122 0 113 10 140 51 134 19 -2 26
-11 33 -45 9 -38 13 -42 47 -48 21 -4 43 -4 49 0 16 10 12 83 -6 121 -32 67
-139 104 -203 71z"/>
<path d="M2390 753 c-55 -28 -83 -78 -77 -136 6 -64 43 -103 109 -116 60 -11
80 -27 76 -60 -2 -21 -9 -27 -36 -29 -22 -2 -34 2 -38 12 -4 12 -20 16 -55 16
-45 0 -49 -2 -49 -24 0 -82 153 -135 236 -81 30 20 54 71 54 117 0 63 -70 138
-128 138 -36 0 -62 18 -62 44 0 22 16 36 41 36 6 0 21 -11 33 -25 21 -22 29
-25 65 -19 45 7 49 18 30 72 -14 41 -50 63 -112 68 -38 4 -61 0 -87 -13z"/>
<path d="M2165 743 c-67 -7 -75 -12 -70 -41 2 -15 19 -117 37 -228 l32 -200
48 7 c65 10 67 13 57 56 -5 21 -20 119 -35 218 -14 99 -29 182 -32 185 -4 3
-20 4 -37 3z"/>
<path d="M3065 740 c-3 -5 -19 -92 -35 -192 -17 -101 -32 -196 -35 -211 -3
-17 0 -30 8 -32 22 -8 251 -45 255 -41 2 3 6 22 9 43 l5 39 -78 15 -79 14 0
40 0 40 42 -2 c41 -2 42 -1 48 37 8 46 2 60 -28 60 -37 0 -48 13 -41 48 7 36
18 38 122 23 51 -7 54 -6 63 16 5 14 9 35 9 48 0 26 -3 27 -135 45 -44 6 -90
13 -102 15 -12 3 -24 1 -28 -5z"/>
<path d="M1805 671 c-29 -10 -50 -24 -49 -32 2 -26 95 -404 102 -416 9 -15 91
3 98 22 3 7 -2 40 -10 73 -9 33 -16 64 -16 69 0 6 17 17 38 25 57 22 97 80 97
139 0 115 -120 170 -260 120z m157 -98 c10 -9 18 -21 18 -28 0 -20 -36 -46
-66 -48 -25 -2 -29 3 -40 38 -6 22 -9 43 -7 48 8 14 76 7 95 -10z"/>
<path d="M3423 640 c-95 -58 -93 -170 5 -230 56 -34 67 -52 51 -81 -14 -27
-61 -22 -74 8 -10 23 -51 43 -86 43 -15 0 -19 -8 -19 -40 0 -33 7 -47 38 -78
81 -81 191 -72 238 20 33 64 6 143 -66 193 -47 33 -57 60 -27 79 22 14 51 -2
55 -32 2 -12 15 -25 34 -31 54 -19 66 -15 74 26 19 101 -127 182 -223 123z"/>
</g>
</svg>
