<?xml version="1.0" standalone="no"?>
<!DOCTYPE svg PUBLIC "-//W3C//DTD SVG 20010904//EN"
 "http://www.w3.org/TR/2001/REC-SVG-20010904/DTD/svg10.dtd">
<svg version="1.0" xmlns="http://www.w3.org/2000/svg"
 width="512.000000pt" height="512.000000pt" viewBox="0 0 512.000000 512.000000"
 preserveAspectRatio="xMidYMid meet">

<g transform="translate(0.000000,512.000000) scale(0.100000,-0.100000)"
fill="#000000" stroke="none">
<path d="M2328 5026 c-12 -6 -50 -57 -84 -114 -33 -56 -63 -105 -66 -108 -3
-3 -42 40 -87 94 -45 55 -91 102 -104 106 -36 10 -67 -23 -132 -141 l-61 -111
-103 109 c-56 60 -107 109 -112 109 -21 0 -3 -32 86 -152 133 -179 141 -180
242 -7 32 54 61 99 65 99 4 0 43 -45 87 -99 45 -55 90 -103 102 -106 38 -12
65 14 128 126 34 60 66 109 70 109 4 0 43 -43 86 -95 44 -52 88 -98 98 -101
10 -3 28 1 40 9 24 16 127 203 127 231 0 38 -32 10 -89 -80 l-61 -96 -85 110
c-46 60 -93 112 -104 115 -10 2 -30 -1 -43 -7z"/>
<path d="M2665 4380 c-116 -21 -226 -81 -307 -169 l-54 -58 -66 62 c-73 68
-180 126 -273 150 -91 23 -236 19 -316 -8 -89 -30 -171 -82 -231 -145 l-49
-52 -57 44 c-95 75 -212 116 -325 116 -115 -1 -262 -49 -293 -96 -25 -37 -29
-96 -10 -136 26 -54 78 -78 172 -78 133 -1 205 -53 243 -175 30 -95 32 -138
35 -685 4 -523 12 -696 47 -1010 25 -226 42 -323 63 -354 35 -55 121 -74 184
-42 63 32 71 58 102 326 66 572 81 1382 30 1659 -9 48 -7 60 12 100 26 54 90
126 129 147 38 19 116 17 164 -5 104 -47 181 -209 191 -401 2 -47 9 -265 14
-485 17 -659 61 -1200 106 -1288 46 -88 188 -87 233 2 28 55 64 365 92 811 18
271 18 992 0 1102 l-14 86 26 45 c76 129 155 169 268 135 58 -17 114 -71 149
-141 64 -131 62 -105 71 -887 4 -393 12 -807 18 -920 6 -113 11 -230 11 -261
l0 -56 -110 -52 c-135 -64 -366 -141 -524 -174 -66 -14 -131 -34 -145 -44 -79
-59 -76 -177 6 -230 23 -15 47 -18 143 -16 184 2 454 55 627 123 l74 28 10
-26 c71 -190 199 -336 349 -399 59 -25 76 -27 195 -28 156 0 185 11 217 81 21
48 18 87 -10 135 -22 39 -60 57 -143 67 -122 15 -174 52 -228 159 -19 38 -50
149 -51 179 0 6 33 37 74 68 103 79 262 246 328 347 337 506 383 1176 108
1574 -69 100 -146 167 -245 215 -85 42 -195 66 -252 55 -31 -6 -32 -5 -48 52
-23 80 -75 189 -123 259 -47 70 -160 179 -223 216 -111 65 -280 98 -394 78z
m-705 -225 l175 -175 -42 0 c-33 0 -46 -5 -65 -28 l-23 -29 -51 47 c-52 46
-106 70 -162 70 -30 0 -46 16 -210 212 -13 16 -10 19 34 38 54 24 106 37 144
39 20 1 62 -36 200 -174z m899 9 c89 -91 161 -170 161 -175 0 -5 -9 -9 -20 -9
-12 0 -28 -13 -38 -30 l-19 -30 -34 36 c-48 50 -103 76 -175 82 -69 5 -51 -10
-197 164 l-48 57 43 22 c51 26 114 47 144 48 16 1 70 -48 183 -165z m175 92
c63 -37 152 -121 195 -185 41 -60 94 -160 106 -201 7 -22 -121 105 -385 383
l-65 69 53 -20 c28 -11 72 -32 96 -46z m-966 15 c76 -38 152 -100 201 -160
l39 -50 37 55 c21 30 41 54 45 54 5 0 43 -43 86 -95 l77 -96 -26 -27 c-14 -15
-36 -46 -49 -69 l-24 -42 -229 229 c-127 127 -226 230 -222 230 4 0 34 -13 65
-29z m-998 -153 c115 -112 138 -138 119 -138 -13 0 -37 -7 -53 -15 -29 -15
-30 -15 -65 19 -50 49 -119 76 -199 81 -67 4 -67 4 -104 52 -43 55 -45 64 -19
87 23 21 127 56 157 53 12 -1 85 -63 164 -139z m173 73 c23 -16 62 -50 86 -74
l44 -45 44 59 c25 32 46 59 47 59 2 0 40 -44 84 -99 79 -97 81 -99 62 -116
-11 -10 -34 -40 -51 -66 -17 -27 -32 -49 -33 -49 0 0 -87 86 -191 190 -182
183 -207 221 -92 141z m269 -514 c11 -25 25 -277 16 -277 -4 0 -46 34 -93 77
l-85 76 0 51 c0 58 -15 198 -26 242 -6 25 5 17 87 -61 52 -49 97 -98 101 -108z
m956 -178 l5 -154 -63 55 c-35 30 -78 69 -97 85 l-33 30 -9 145 c-6 80 -15
158 -20 173 -6 16 -11 31 -11 35 0 4 50 -43 111 -104 l111 -111 6 -154z m979
11 l-42 -5 3 -89 c2 -57 0 -87 -7 -85 -5 2 -52 46 -104 97 l-94 92 -7 113 c-3
61 -9 132 -12 157 l-5 45 155 -160 155 -160 -42 -5z m203 181 c113 -43 236
-161 305 -293 34 -64 85 -198 85 -222 0 -6 -25 14 -56 44 l-55 55 20 -51 c11
-28 26 -84 35 -124 12 -62 21 -79 55 -114 l41 -42 0 -85 c0 -48 -3 -107 -6
-133 l-7 -47 -33 32 c-19 18 -35 31 -37 28 -2 -2 -9 -35 -16 -72 l-13 -69 37
-38 37 -38 -26 -94 c-15 -51 -31 -96 -35 -101 -4 -4 -26 9 -49 28 l-41 36 -31
-60 -30 -60 45 -38 c25 -20 45 -44 45 -51 0 -17 -81 -172 -89 -172 -7 0 -205
181 -209 191 -2 4 16 48 40 98 l42 91 28 -27 c21 -20 29 -23 32 -12 3 8 14 37
24 66 l19 51 -28 29 -29 28 20 95 c11 52 20 106 20 119 0 25 0 25 35 -9 19
-18 37 -31 40 -28 3 2 8 38 11 79 l6 74 -41 40 c-33 32 -41 46 -41 76 0 50
-26 195 -45 248 l-15 43 61 -53 c58 -50 60 -51 53 -23 -11 47 -55 155 -82 202
-13 24 -21 46 -18 49 4 4 -55 70 -131 146 l-138 139 55 -5 c30 -3 80 -15 110
-26z m-93 -267 c62 -36 125 -134 156 -244 88 -311 8 -728 -197 -1032 -20 -29
-45 -64 -57 -78 l-21 -25 6 95 c3 52 9 371 13 707 l6 613 26 -6 c14 -4 45 -17
68 -30z m-2074 -169 l57 -52 0 -131 c0 -73 -3 -132 -8 -132 -4 0 -42 33 -84
73 l-77 72 -5 138 -5 138 32 -27 c18 -15 58 -50 90 -79z m902 8 l85 -76 -1
-91 c0 -50 -4 -110 -7 -133 l-7 -41 -82 76 -82 77 -3 133 c-2 72 0 132 4 132
4 0 46 -34 93 -77z m933 -36 l93 -93 -3 -132 -3 -132 -95 88 -95 89 -3 137
c-2 75 0 136 5 136 4 0 50 -42 101 -93z m-1794 -596 c-3 -69 -8 -128 -10 -130
-4 -5 -105 87 -117 106 -4 7 -11 75 -14 150 l-6 138 77 -69 77 -70 -7 -125z
m859 178 l67 -61 -1 -91 c0 -51 -3 -110 -7 -132 l-7 -39 -57 49 c-31 28 -59
59 -62 70 -9 38 -17 265 -9 265 5 0 39 -27 76 -61z m935 -37 l83 -77 -3 -137
-3 -137 -77 74 -76 74 -6 83 c-12 170 -13 198 -7 198 3 -1 43 -36 89 -78z
m-1859 -406 l44 -45 -7 -78 c-13 -150 -16 -163 -36 -150 -29 17 -42 56 -46
137 -3 41 -6 99 -9 128 -2 28 0 52 4 52 4 0 26 -20 50 -44z m967 -91 c-3 -22
-8 -76 -12 -120 -8 -95 -15 -113 -34 -91 -13 17 -49 230 -50 299 l0 38 51 -43
c48 -41 50 -45 45 -83z m902 32 l63 -63 -3 -135 -3 -134 -67 64 -68 64 0 134
c0 73 4 133 8 133 4 0 36 -28 70 -63z m330 -316 c50 -47 92 -90 92 -96 0 -5
-27 -41 -61 -78 l-61 -67 -104 96 -104 96 61 74 c36 43 66 71 73 67 6 -4 53
-45 104 -92z m-245 -211 c64 -58 116 -108 116 -112 2 -15 -149 -119 -162 -112
-18 12 -247 216 -247 221 0 3 14 22 30 43 17 21 40 59 51 85 l20 46 39 -33
c21 -18 90 -80 153 -138z m-69 -406 c158 -162 285 -298 282 -301 -9 -9 -97 25
-147 58 -65 41 -127 112 -169 190 -65 124 -86 140 -139 102 -13 -9 -36 -17
-50 -19 -14 -1 -37 -5 -52 -9 -22 -6 -33 3 -106 91 l-81 98 82 41 c44 23 83
42 86 43 3 1 135 -131 294 -294z m-513 65 c41 -49 75 -94 77 -98 1 -5 -45 -20
-104 -35 l-107 -27 -31 38 c-17 21 -52 62 -77 93 l-46 55 96 31 c53 18 101 32
107 33 5 1 44 -40 85 -90z m-367 -89 c36 -43 66 -84 66 -89 0 -12 -186 -19
-228 -8 -25 6 -37 17 -48 43 -25 59 2 109 68 124 68 16 73 14 142 -70z"/>
<path d="M4466 3893 c-33 -64 -106 -259 -106 -283 0 -45 14 -50 157 -50 100 0
133 -3 133 -12 0 -7 -18 -62 -40 -121 -46 -124 -48 -139 -20 -167 18 -18 33
-20 156 -20 105 0 135 -3 132 -12 -3 -7 -22 -64 -42 -126 -37 -109 -37 -114
-21 -139 l17 -26 126 8 c134 7 142 9 142 29 0 10 -30 15 -111 19 -61 3 -113 7
-115 9 -2 3 17 56 41 119 75 189 69 199 -123 199 -73 0 -132 2 -132 4 0 2 18
55 40 116 45 127 48 150 20 175 -17 16 -35 17 -160 13 -125 -4 -140 -3 -135
11 14 35 63 209 69 244 8 44 -7 50 -28 10z"/>
<path d="M213 3743 c-38 -35 -190 -208 -202 -231 -22 -42 5 -65 139 -114 l121
-44 -85 -104 c-90 -109 -101 -135 -67 -169 11 -11 72 -36 136 -56 88 -27 115
-40 111 -50 -3 -8 -37 -55 -76 -104 -71 -90 -84 -125 -56 -153 22 -23 246 -82
260 -68 14 14 4 21 -111 67 -51 20 -93 39 -93 43 0 4 38 51 85 105 83 97 98
128 77 162 -9 14 -73 42 -167 73 -38 12 -74 26 -79 30 -4 5 26 50 68 102 124
150 119 166 -68 223 -77 24 -125 43 -122 50 2 6 36 55 74 109 67 92 89 132 79
142 -2 2 -13 -3 -24 -13z"/>
<path d="M914 1193 c-25 -5 -24 -19 2 -203 21 -141 40 -221 56 -232 7 -4 28
-7 47 -6 29 3 36 8 43 33 33 116 98 373 98 388 0 14 -9 17 -44 17 l-45 0 -10
-52 c-6 -29 -18 -93 -27 -141 -22 -114 -33 -97 -43 64 -9 139 -12 145 -77 132z"/>
<path d="M1227 1168 c-3 -13 -13 -104 -22 -203 -9 -99 -17 -189 -18 -200 -2
-18 5 -20 56 -23 l57 -3 0 41 c0 22 9 119 20 217 11 97 19 177 18 178 -2 2
-26 6 -54 10 -48 6 -52 5 -57 -17z"/>
<path d="M1405 1129 c-4 -24 -22 -122 -41 -218 -19 -96 -33 -175 -31 -177 1
-1 25 -6 53 -9 l51 -7 8 58 c13 107 19 108 51 9 l29 -89 43 -9 c24 -5 46 -6
49 -3 5 5 -32 116 -62 189 -6 14 -2 17 23 17 22 0 38 10 61 35 39 44 47 76 32
125 -20 69 -77 101 -202 116 l-57 6 -7 -43z m150 -79 c12 -13 15 -27 11 -45
-6 -24 -11 -26 -49 -23 -40 3 -42 5 -40 32 1 16 5 36 7 43 8 20 50 16 71 -7z"/>
<path d="M1773 1038 c-41 -45 -73 -125 -97 -241 -24 -113 0 -155 100 -177 59
-13 104 0 126 38 22 39 50 130 43 141 -7 12 -113 47 -120 40 -3 -3 -8 -20 -11
-37 -5 -25 -3 -32 9 -32 23 0 30 -16 17 -40 -15 -28 -65 -27 -80 1 -21 39 53
239 88 239 27 0 42 -14 51 -46 9 -35 66 -58 82 -33 16 26 10 85 -13 114 -44
57 -156 75 -195 33z"/>
<path d="M2090 914 c-51 -43 -157 -276 -145 -321 11 -46 84 -91 152 -92 50 -1
88 40 149 160 65 131 71 179 27 221 -67 62 -133 74 -183 32z m101 -74 c30 -17
23 -66 -24 -160 -38 -76 -45 -85 -73 -88 -20 -2 -36 4 -49 18 -16 18 -17 25
-6 63 22 72 64 148 90 162 32 17 37 18 62 5z"/>
<path d="M3961 488 c-52 -120 -71 -158 -77 -158 -4 0 -51 43 -105 95 -55 54
-106 95 -117 95 -36 0 -61 -34 -102 -140 -23 -58 -45 -109 -49 -113 -4 -4 -48
28 -97 73 -143 129 -162 125 -224 -47 -24 -65 -46 -122 -50 -126 -4 -5 -48 24
-98 65 -108 87 -152 115 -152 96 0 -17 220 -236 240 -239 42 -8 58 12 106 127
26 63 50 117 54 119 3 2 48 -34 98 -80 51 -47 104 -88 118 -91 39 -10 66 25
114 151 23 60 43 111 44 112 2 2 47 -35 101 -82 100 -86 129 -99 158 -70 15
14 87 217 87 243 0 28 -32 9 -49 -30z"/>
</g>
</svg>
