<?xml version="1.0" standalone="no"?>
<!DOCTYPE svg PUBLIC "-//W3C//DTD SVG 20010904//EN"
 "http://www.w3.org/TR/2001/REC-SVG-20010904/DTD/svg10.dtd">
<svg version="1.0" xmlns="http://www.w3.org/2000/svg"
 width="512.000000pt" height="512.000000pt" viewBox="0 0 512.000000 512.000000"
 preserveAspectRatio="xMidYMid meet">

<g transform="translate(0.000000,512.000000) scale(0.100000,-0.100000)"
fill="#000000" stroke="none">
<path d="M2476 4898 c-61 -5 -111 -10 -113 -12 -4 -4 17 -375 23 -403 4 -20
11 -23 53 -23 26 0 82 3 124 6 81 7 96 19 82 64 -6 18 -15 20 -85 20 -72 0
-78 2 -84 23 -12 46 -7 54 34 61 36 6 40 9 40 35 0 50 -9 61 -51 61 -38 0 -39
1 -39 34 l0 35 81 7 c89 7 95 13 85 69 -5 25 -12 35 -24 34 -9 -1 -66 -6 -126
-11z"/>
<path d="M2696 4743 c-3 -93 -9 -192 -12 -220 l-7 -53 56 0 56 0 3 78 3 77 39
-80 c21 -44 39 -81 40 -82 0 0 22 -4 49 -8 60 -9 60 -4 3 105 l-44 84 37 17
c69 30 90 124 43 189 -32 44 -78 60 -173 60 l-86 0 -7 -167z m174 63 c15 -19
9 -56 -11 -69 -9 -5 -28 -7 -42 -3 -24 6 -27 11 -27 46 0 39 1 40 34 40 18 0
39 -7 46 -14z"/>
<path d="M3665 4848 c-9 -29 -21 -85 -27 -124 l-11 -70 -66 -12 c-81 -14 -141
-38 -141 -56 0 -19 78 -47 166 -61 l41 -6 17 -97 c17 -99 32 -143 52 -149 17
-6 45 73 57 164 l11 82 64 11 c80 14 142 38 142 56 0 20 -31 33 -123 53 l-81
17 -13 79 c-14 94 -39 165 -58 165 -8 0 -21 -22 -30 -52z"/>
<path d="M2103 4869 c-97 -20 -110 -61 -77 -247 13 -75 29 -147 34 -160 14
-32 74 -55 119 -47 81 15 131 67 131 137 0 66 -15 78 -77 62 -18 -5 -22 -11
-17 -29 8 -30 -12 -65 -36 -65 -30 0 -50 41 -65 136 -16 95 -11 114 30 114 18
0 26 -9 35 -36 11 -33 14 -35 53 -32 38 3 42 6 45 32 10 83 -83 155 -175 135z"/>
<path d="M1870 4811 c-34 -9 -35 -30 -10 -107 12 -36 20 -67 17 -70 -3 -3 -33
26 -67 64 -61 67 -64 69 -97 61 -19 -4 -36 -9 -39 -11 -7 -8 106 -402 119
-415 10 -10 77 8 77 20 0 7 -11 52 -25 102 -14 49 -25 91 -25 93 0 2 27 -30
59 -71 79 -97 83 -101 127 -92 27 5 35 10 31 23 -58 209 -123 412 -131 411 -6
-1 -22 -4 -36 -8z"/>
<path d="M1474 4672 l-31 -17 18 -120 c19 -131 54 -303 62 -311 3 -3 22 2 42
10 l38 16 -7 54 c-5 46 -3 55 11 61 13 4 28 -5 54 -36 35 -41 36 -42 73 -29
20 6 36 16 34 21 -5 15 -253 369 -258 369 -3 -1 -19 -9 -36 -18z m95 -174 c17
-28 28 -55 25 -60 -10 -16 -35 -7 -44 16 -13 34 -23 96 -16 96 3 0 19 -23 35
-52z"/>
<path d="M1175 4545 c-55 -20 -85 -56 -85 -106 0 -29 16 -70 65 -162 81 -149
102 -171 163 -164 89 10 157 98 134 175 -6 21 -17 45 -24 54 -12 15 -16 15
-51 1 -28 -12 -37 -20 -32 -32 18 -47 17 -69 -5 -81 -34 -18 -61 8 -110 103
-43 86 -44 99 -9 117 16 9 24 5 49 -22 l30 -32 35 17 c23 11 35 24 35 36 0 31
-57 89 -98 101 -46 12 -48 12 -97 -5z"/>
<path d="M465 4418 c-35 -19 -55 -52 -55 -91 0 -54 52 -107 105 -107 52 0 105
53 105 105 0 74 -91 129 -155 93z"/>
<path d="M2425 3989 c-448 -22 -840 -161 -1099 -390 -114 -101 -220 -267 -268
-419 -20 -65 -23 -95 -23 -220 1 -132 3 -152 29 -225 113 -326 448 -542 811
-522 129 7 197 26 324 88 89 44 118 64 191 138 150 149 219 298 228 496 9 205
-53 369 -194 512 l-81 83 34 6 c18 3 124 4 236 2 222 -6 342 -24 510 -79 123
-40 281 -116 386 -187 117 -78 282 -244 356 -357 32 -49 67 -104 78 -121 64
-98 205 -113 295 -30 67 60 79 154 34 251 -185 390 -572 718 -1022 868 -263
88 -518 120 -825 106z m412 -64 c436 -57 803 -233 1094 -524 121 -122 199
-229 277 -379 38 -74 43 -93 39 -131 -6 -52 -32 -90 -78 -113 -79 -41 -149
-12 -207 83 -157 257 -325 413 -597 555 -260 135 -591 197 -934 173 -139 -9
-226 -21 -237 -31 -2 -3 9 -11 26 -18 23 -10 29 -17 24 -29 -4 -9 -9 -35 -12
-58 -11 -106 92 -186 196 -150 l42 15 35 -72 c79 -159 84 -346 15 -529 l-22
-59 -22 21 c-26 24 -68 41 -105 41 -23 0 -38 -13 -84 -76 -32 -42 -57 -85 -57
-97 0 -29 34 -83 60 -97 20 -11 20 -13 6 -29 -18 -19 -150 -96 -182 -105 -19
-6 -22 -2 -26 44 -6 58 -36 106 -64 103 -11 -1 -63 -10 -117 -20 l-98 -18 -11
-39 c-10 -32 -9 -46 4 -83 l16 -44 -57 7 c-329 40 -581 240 -657 521 -8 32
-18 101 -21 153 -7 110 13 208 68 332 153 349 571 592 1123 653 169 18 421 18
563 0z"/>
<path d="M1727 3380 c-96 -25 -181 -87 -241 -180 -117 -176 -108 -349 26 -495
107 -117 298 -165 461 -115 231 72 363 312 277 506 -50 115 -168 224 -287 266
-66 23 -180 32 -236 18z m163 -51 c119 -27 252 -127 301 -226 20 -40 24 -63
24 -138 0 -81 -3 -95 -30 -143 -39 -72 -121 -145 -193 -173 -82 -33 -224 -33
-305 0 -136 54 -227 173 -227 295 0 117 47 224 134 304 88 81 184 107 296 81z"/>
<path d="M2348 3153 c-16 -3 -28 -8 -28 -12 0 -5 12 -35 27 -67 19 -42 28 -80
31 -136 4 -70 7 -78 25 -78 63 0 136 97 123 164 -17 87 -92 141 -178 129z"/>
<path d="M1455 2430 c11 -5 34 -8 50 -8 29 0 29 0 5 8 -14 4 -36 8 -50 8 -23
1 -23 0 -5 -8z"/>
<path d="M3341 2719 c-182 -35 -370 -151 -477 -292 -188 -248 -205 -589 -42
-834 27 -40 76 -96 109 -126 l59 -54 -52 -7 c-94 -11 -294 -6 -415 9 -352 46
-640 177 -882 401 -65 60 -180 207 -243 312 -44 73 -96 105 -173 105 -109 0
-186 -75 -193 -187 -4 -57 -1 -68 42 -150 79 -150 163 -264 296 -396 153 -154
270 -238 465 -335 319 -159 631 -224 1010 -212 421 14 757 109 1032 294 92 61
228 198 288 288 237 360 154 822 -188 1049 -155 102 -302 147 -482 145 -60 -1
-130 -5 -154 -10z m369 -70 c41 -11 113 -39 160 -62 119 -58 250 -188 303
-299 74 -156 94 -312 58 -461 -53 -223 -185 -405 -397 -548 -397 -268 -1097
-355 -1629 -202 -317 91 -590 247 -801 457 -109 109 -181 205 -259 344 -83
148 -84 209 -5 276 25 20 42 26 82 26 71 0 102 -22 156 -114 107 -180 261
-341 427 -447 179 -115 289 -163 494 -214 178 -45 272 -56 471 -54 145 1 343
19 356 32 3 2 -6 11 -19 20 -23 15 -24 19 -14 54 13 49 3 103 -25 138 -40 51
-124 70 -180 41 l-28 -15 -35 73 c-80 166 -85 370 -15 534 l22 51 27 -19 c14
-11 40 -24 58 -29 31 -9 33 -8 63 46 17 30 49 74 71 98 47 50 46 69 -3 110
-17 15 -27 30 -22 33 48 35 128 83 165 99 l47 21 4 -53 c6 -71 19 -86 61 -73
18 5 75 12 127 16 l94 7 10 33 c7 24 5 43 -7 73 l-16 42 62 -7 c35 -3 96 -15
137 -27z"/>
<path d="M3767 2514 c-4 -4 25 -17 65 -29 40 -12 84 -25 98 -29 24 -8 24 -7
-7 25 -27 28 -40 33 -90 37 -32 2 -61 0 -66 -4z"/>
<path d="M3435 2369 c-187 -22 -326 -141 -375 -322 -39 -144 56 -324 225 -426
73 -44 141 -62 238 -63 70 -1 85 3 151 36 89 44 160 117 207 212 28 56 34 81
37 154 5 106 -11 163 -68 243 -87 121 -247 185 -415 166z m189 -69 c96 -33
172 -95 214 -175 24 -44 27 -61 27 -140 -1 -81 -4 -97 -34 -159 -38 -78 -106
-152 -172 -188 -38 -20 -58 -23 -144 -23 -92 0 -106 3 -168 32 -141 67 -239
200 -240 325 0 149 101 281 252 329 77 25 192 24 265 -1z"/>
<path d="M2850 2042 c-48 -48 -59 -95 -35 -157 22 -58 63 -87 132 -93 29 -3
53 0 53 5 0 5 -9 28 -20 51 -26 54 -50 146 -50 194 0 32 -3 38 -21 38 -12 0
-38 -17 -59 -38z"/>
<path d="M4940 2411 c-36 -35 -46 -73 -30 -110 17 -42 43 -62 87 -67 76 -10
132 56 112 131 -21 75 -115 101 -169 46z"/>
<path d="M427 1841 c-16 -38 -44 -168 -49 -225 -3 -28 -6 -30 -90 -47 -92 -18
-159 -45 -166 -67 -6 -18 77 -51 174 -69 l84 -16 0 -34 c0 -45 27 -176 47
-225 10 -26 21 -38 32 -36 21 4 56 109 70 212 6 44 13 81 14 83 2 1 38 9 80
17 92 18 167 49 167 70 0 19 -89 53 -181 68 l-68 12 -7 45 c-20 147 -52 251
-77 251 -8 0 -22 -17 -30 -39z"/>
<path d="M4747 1473 c-17 -43 -34 -122 -45 -202 l-7 -55 -74 -12 c-119 -20
-190 -53 -173 -80 10 -16 110 -51 167 -59 84 -11 82 -10 89 -78 7 -70 42 -205
57 -224 29 -35 60 33 88 195 l16 97 54 7 c69 10 153 35 176 52 11 8 16 20 12
29 -7 18 -116 54 -192 63 l-53 7 -11 81 c-16 117 -49 216 -71 216 -11 0 -23
-14 -33 -37z"/>
<path d="M1249 651 c-57 -57 -31 -158 46 -177 42 -10 87 8 113 46 69 102 -72
218 -159 131z"/>
</g>
</svg>
