<?xml version="1.0" standalone="no"?>
<!DOCTYPE svg PUBLIC "-//W3C//DTD SVG 20010904//EN"
 "http://www.w3.org/TR/2001/REC-SVG-20010904/DTD/svg10.dtd">
<svg version="1.0" xmlns="http://www.w3.org/2000/svg"
 width="512.000000pt" height="512.000000pt" viewBox="0 0 512.000000 512.000000"
 preserveAspectRatio="xMidYMid meet">

<g transform="translate(0.000000,512.000000) scale(0.100000,-0.100000)"
fill="#000000" stroke="none">
<!-- <path d="M3342 5044 c-26 -18 -52 -65 -52 -94 0 -56 57 -110 117 -110 74 0
131 83 103 150 -7 17 -24 40 -38 50 -30 24 -98 26 -130 4z"/> -->
<path d="M2010 4647 c-49 -24 -60 -67 -60 -235 0 -148 1 -154 24 -177 69 -69
211 -30 236 66 16 60 7 79 -41 79 -36 0 -40 -3 -46 -30 -8 -41 -38 -57 -64
-34 -16 14 -19 31 -19 103 0 47 3 96 6 108 14 50 74 33 74 -21 0 -31 3 -34 36
-39 53 -9 64 -1 64 48 0 102 -119 177 -210 132z"/>
<path d="M2352 4548 c-37 -89 -112 -312 -112 -333 0 -10 11 -16 30 -16 17 -1
35 -2 42 -3 7 -1 20 19 29 44 27 72 69 65 69 -12 0 -41 19 -58 65 -58 26 0 26
1 20 58 -15 153 -35 368 -35 380 0 7 -14 12 -39 12 -39 0 -39 0 -69 -72z m58
-123 c0 -59 -2 -65 -21 -65 -18 0 -20 4 -15 28 17 70 27 102 31 102 3 0 5 -29
5 -65z"/>
<path d="M2615 4578 c-7 -20 -83 -360 -87 -387 -3 -26 18 -38 73 -40 25 -1 27
3 40 71 l14 71 56 1 c68 1 121 36 139 92 32 95 -45 179 -183 198 -35 5 -48 4
-52 -6z m129 -119 c55 -43 11 -99 -58 -73 -28 11 -16 94 14 94 9 0 29 -9 44
-21z"/>
<path d="M2882 4322 c-85 -250 -83 -226 -28 -242 26 -7 48 -11 50 -9 2 2 14
35 26 74 20 61 24 66 32 46 4 -13 12 -53 16 -90 l7 -65 49 -19 49 -18 -7 48
c-3 26 -12 74 -20 106 l-14 57 25 0 c63 0 113 60 113 134 0 38 -6 52 -32 81
-31 33 -98 64 -173 79 l-30 6 -63 -188z m187 53 c16 -16 8 -60 -14 -68 -16 -7
-75 11 -75 22 0 5 5 23 11 40 10 28 15 32 38 26 14 -3 32 -12 40 -20z"/>
<path d="M3261 4268 c-115 -245 -134 -288 -130 -292 10 -9 91 -47 94 -44 2 2
21 44 43 94 22 50 63 137 92 193 28 57 50 104 48 106 -7 6 -88 45 -93 45 -4 0
-28 -46 -54 -102z"/>
<path d="M3458 4253 c-24 -15 -101 -138 -158 -251 -28 -57 -15 -102 41 -139
78 -52 163 -36 209 39 22 36 20 42 -22 64 -31 16 -32 16 -51 -10 -29 -41 -77
-29 -77 19 0 25 88 182 106 189 7 3 23 -3 35 -13 21 -17 22 -20 9 -51 -13 -31
-12 -34 14 -56 34 -30 51 -30 71 -1 25 39 29 84 10 132 -30 81 -121 119 -187
78z"/>
<path d="M3716 4050 c-48 -43 -176 -235 -176 -265 0 -56 109 -133 170 -120 51
11 206 203 217 269 10 64 -54 135 -132 144 -36 4 -47 0 -79 -28z m108 -76 c24
-23 20 -43 -22 -106 -78 -118 -111 -139 -152 -98 -27 27 -26 37 15 106 61 102
119 138 159 98z"/>
<path d="M3970 3848 c-36 -40 -102 -112 -148 -159 l-82 -87 35 -31 c20 -17 40
-31 45 -31 5 0 28 23 51 50 23 28 46 50 50 50 8 0 -12 -96 -30 -141 -8 -23 -5
-30 25 -60 24 -23 37 -30 45 -22 5 5 18 52 26 102 14 77 19 90 32 84 30 -14
91 -7 118 13 69 51 79 128 26 196 -25 31 -103 99 -121 106 -4 1 -37 -30 -72
-70z m124 -91 c12 -19 1 -43 -27 -61 -12 -8 -22 -5 -42 14 -31 29 -31 37 -3
67 19 20 24 21 42 10 11 -8 25 -21 30 -30z"/>
<path d="M1332 3715 c-156 -35 -311 -150 -416 -309 -65 -97 -105 -183 -146
-314 -43 -136 -48 -197 -21 -249 39 -78 118 -115 197 -93 67 19 96 56 148 188
58 149 106 231 178 303 71 72 126 92 208 77 71 -13 99 -28 144 -79 153 -168
208 -680 150 -1382 -9 -104 -13 -203 -10 -222 14 -74 91 -143 177 -159 90 -16
198 56 224 149 38 135 66 504 64 830 -2 224 0 244 20 304 45 131 129 260 229
352 124 114 239 141 324 76 127 -97 151 -246 104 -647 -35 -293 -40 -390 -27
-508 20 -173 73 -323 165 -467 l38 -58 -17 -65 c-33 -132 -111 -244 -204 -291
-67 -35 -149 -51 -256 -51 -160 0 -282 26 -507 107 -111 40 -133 45 -175 38
-39 -6 -56 -15 -90 -51 -62 -65 -70 -142 -20 -215 28 -42 70 -66 216 -124 410
-165 810 -164 1070 2 114 73 208 175 264 289 l31 62 69 -34 c261 -132 566 -85
786 122 66 62 89 92 121 158 147 298 52 718 -204 901 -123 88 -247 121 -420
112 -157 -7 -281 -56 -383 -150 -24 -22 -45 -38 -47 -36 -2 2 8 92 21 199 31
246 35 477 9 595 -58 263 -225 465 -456 551 -66 24 -89 28 -190 28 -100 0
-125 -4 -194 -27 -134 -47 -237 -116 -356 -239 l-75 -77 -33 62 c-108 208
-316 340 -556 352 -59 3 -113 0 -154 -10z m411 -113 c56 -29 65 -37 52 -45
-38 -21 -127 21 -156 75 -10 18 -8 19 13 13 12 -4 54 -23 91 -43z m-346 9 c23
-11 49 -31 58 -45 26 -39 30 -107 10 -149 -14 -30 -23 -36 -58 -41 -24 -4 -55
-13 -71 -21 -37 -20 -69 -10 -105 31 -72 82 -37 203 68 234 40 12 53 11 98 -9z
m1343 -12 c0 -5 -21 -19 -46 -30 -49 -22 -95 -20 -130 5 -17 13 -14 15 31 21
28 4 55 8 60 10 24 8 85 4 85 -6z m309 -122 c29 -23 65 -56 79 -75 25 -33 26
-35 7 -48 -28 -20 -104 -17 -142 6 -58 35 -86 106 -64 164 11 28 11 28 39 11
15 -10 51 -36 81 -58z m-704 -19 c-14 -69 -71 -118 -134 -118 l-35 0 30 31
c27 29 135 119 142 119 2 0 1 -15 -3 -32z m-505 -69 c53 -30 74 -73 68 -138
-3 -29 -12 -59 -20 -68 -14 -13 -17 -11 -26 16 -19 55 -74 123 -123 154 -27
16 -49 32 -49 34 0 2 10 8 23 13 38 15 88 11 127 -11z m878 -6 c31 -22 65 -84
54 -95 -5 -5 -36 -10 -71 -12 -46 -3 -81 -13 -131 -38 -76 -37 -80 -36 -80 30
0 46 30 96 72 123 41 25 116 21 156 -8z m-1704 -23 c66 -79 32 -202 -64 -231
-34 -10 -110 -6 -110 7 0 2 12 33 26 67 36 86 96 187 110 187 7 0 24 -14 38
-30z m1254 -184 c37 -19 61 -47 72 -86 9 -30 5 -40 -36 -106 -55 -86 -84 -98
-159 -65 -141 62 -100 271 53 271 24 0 55 -6 70 -14z m877 -6 c65 -40 84 -146
38 -208 -33 -44 -40 -37 -53 50 -6 46 -20 103 -31 127 -10 24 -19 45 -19 47 0
11 37 2 65 -16z m-2178 -209 c53 -24 64 -46 47 -87 -39 -94 -175 -101 -218
-10 -21 44 -20 48 8 75 45 42 101 50 163 22z m1216 -233 c-4 -18 -8 -83 -7
-144 l1 -112 -27 10 c-79 27 -116 138 -71 211 20 33 70 66 99 67 10 0 12 -8 5
-32z m984 -10 c77 -85 45 -210 -62 -242 -21 -6 -21 -6 2 127 12 72 22 133 23
135 1 9 20 -1 37 -20z m473 -338 c0 -62 -66 -120 -137 -120 -41 0 -93 17 -93
29 0 18 180 109 218 111 6 0 12 -9 12 -20z m-1467 -198 l-6 -141 -37 19 c-51
26 -74 73 -68 139 6 57 32 95 83 116 17 8 31 12 32 11 2 -1 0 -66 -4 -144z
m975 122 c85 -55 80 -189 -10 -244 -52 -31 -64 -27 -72 26 -8 63 -8 229 1 238
10 9 52 -1 81 -20z m852 6 c22 -11 40 -25 40 -30 0 -5 25 -28 55 -51 47 -35
123 -130 138 -171 3 -9 15 -3 36 17 32 29 33 30 47 10 22 -29 55 -142 61 -207
7 -66 1 -70 -64 -43 -19 8 -37 15 -39 15 -2 0 -5 -24 -5 -52 -2 -82 -11 -113
-35 -116 -30 -4 -39 13 -52 104 -14 106 -45 196 -88 262 l-35 53 -30 -25 c-17
-15 -34 -26 -37 -26 -4 0 -34 14 -66 30 -32 17 -69 30 -82 30 -34 0 -54 26
-54 70 0 44 -9 50 -84 50 -63 0 -97 20 -80 46 6 10 24 22 40 27 24 7 151 19
267 25 15 1 46 -7 67 -18z m-422 -220 l33 -20 -30 -26 c-33 -28 -87 -128 -97
-180 -9 -46 -36 -45 -85 5 -38 38 -45 60 -40 120 9 99 131 155 219 101z m319
-56 c164 -78 191 -290 56 -429 -106 -109 -270 -98 -406 26 l-48 44 16 84 c9
46 25 108 37 138 57 153 196 208 345 137z m-1752 -206 c-3 -29 -11 -81 -17
-116 l-10 -64 -29 28 c-23 22 -29 36 -29 71 0 50 20 95 52 117 35 25 40 20 33
-36z m1048 -9 c13 -24 17 -49 14 -82 -6 -65 -21 -78 -25 -19 -1 25 -14 71 -27
100 -14 30 -25 57 -25 59 0 15 48 -29 63 -58z m1182 -186 c-8 -55 -39 -142
-68 -190 -19 -33 -20 -33 -40 -16 -26 24 -47 74 -47 116 0 64 74 137 139 137
22 0 23 -2 16 -47z m-880 -22 c31 -32 76 -69 100 -82 25 -13 45 -29 45 -36 0
-18 -49 -72 -81 -88 -105 -55 -230 50 -199 166 9 31 60 99 75 99 2 0 29 -26
60 -59z m498 -162 c66 -34 96 -99 77 -167 -12 -48 -43 -78 -102 -98 -44 -15
-49 -14 -92 5 -142 62 -101 271 52 271 24 0 53 -5 65 -11z m-829 -24 c31 -29
46 -64 46 -108 -1 -24 -13 -45 -51 -86 -46 -49 -55 -54 -93 -54 -67 0 -70 7
-26 75 22 33 50 92 62 129 12 38 25 69 29 69 3 0 18 -11 33 -25z m389 -189
c34 -14 74 -52 65 -61 -5 -5 -125 36 -149 50 -16 10 0 25 27 25 14 0 39 -6 57
-14z m-1643 -127 c0 -24 -5 -39 -16 -43 -22 -8 -64 -7 -64 2 0 22 22 77 37 94
16 18 18 18 30 2 7 -10 13 -34 13 -55z m860 -58 c0 -18 -50 -69 -80 -81 -65
-27 -149 3 -182 64 -10 18 -7 19 53 13 35 -3 91 -2 124 2 86 12 85 12 85 2z
m-485 -45 c42 -27 25 -28 -56 -1 l-74 25 52 -4 c28 -1 64 -11 78 -20z"/>
<path d="M4225 3569 c-111 -89 -229 -190 -233 -199 -3 -9 37 -60 48 -60 4 0
35 21 67 48 32 26 66 54 77 62 12 9 0 -22 -33 -88 l-51 -102 21 -30 c12 -16
27 -26 33 -23 23 14 311 256 321 269 7 9 2 20 -15 39 -13 14 -27 25 -31 25 -4
0 -34 -22 -66 -50 -32 -27 -61 -50 -65 -50 -4 0 11 39 33 87 40 86 40 87 21
112 -10 14 -23 26 -28 28 -6 2 -50 -29 -99 -68z"/>
<!-- <path d="M62 2667 c-46 -26 -66 -78 -51 -132 21 -75 120 -101 181 -46 29 26
33 35 33 81 0 46 -4 55 -33 81 -36 32 -89 38 -130 16z"/>
<path d="M4973 1748 c-41 -11 -83 -61 -83 -99 0 -101 110 -154 183 -89 39 34
49 67 36 115 -16 58 -75 90 -136 73z"/> -->
<!-- <path d="M1655 417 c-30 -30 -35 -42 -35 -80 0 -36 6 -51 29 -76 25 -27 36
-31 78 -31 26 0 55 6 63 13 87 68 55 192 -53 204 -43 5 -49 3 -82 -30z"/> -->
</g>
</svg>
