<svg width="42" height="45" viewBox="0 0 42 45" fill="none" xmlns="http://www.w3.org/2000/svg">
<path d="M38.5 18C38.5 27.6649 30.6649 35.5 21 35.5C11.3361 35.5 3.5 27.6648 3.5 18C3.5 8.33614 11.3361 0.5 21 0.5C30.6648 0.5 38.5 8.33612 38.5 18Z" stroke="black"/>
<path d="M17 13.5C17 14.3743 16.7461 15.145 16.3609 15.6843C15.975 16.2245 15.487 16.5 15 16.5C14.513 16.5 14.025 16.2245 13.6391 15.6843C13.2539 15.145 13 14.3743 13 13.5C13 12.6257 13.2539 11.855 13.6391 11.3157C14.025 10.7755 14.513 10.5 15 10.5C15.487 10.5 15.975 10.7755 16.3609 11.3157C16.7461 11.855 17 12.6257 17 13.5Z" fill="black" stroke="black"/>
<path d="M29 13.5C29 14.3743 28.7461 15.145 28.3609 15.6843C27.975 16.2245 27.487 16.5 27 16.5C26.513 16.5 26.025 16.2245 25.6391 15.6843C25.2539 15.145 25 14.3743 25 13.5C25 12.6257 25.2539 11.855 25.6391 11.3157C26.025 10.7755 26.513 10.5 27 10.5C27.487 10.5 27.975 10.7755 28.3609 11.3157C28.7461 11.855 29 12.6257 29 13.5Z" fill="black" stroke="black"/>
<path d="M28 21.5C29.9329 21.5 31.5 23.0671 31.5 25C31.5 26.9329 29.9329 28.5 28 28.5H14C12.0671 28.5 10.5 26.9329 10.5 25C10.5 23.0671 12.0671 21.5 14 21.5H28Z" fill="white" stroke="black"/>
<path d="M31.5405 25L31.442 24.4168C31.1635 22.7666 29.7335 21.5 28 21.5H27.5H27H26.5H23.5H23H22.5H19.5H19H18.5H15.5H15H14.5H14C12.2665 21.5 10.8365 22.7666 10.558 24.4168L10.4595 25L10.558 25.5832C10.8365 27.2334 12.2665 28.5 14 28.5H14.5H15H15.5H18.5H19H19.5H22.5H23H23.5H26.5H27H27.5H28C29.7335 28.5 31.1635 27.2334 31.442 25.5832L31.5405 25ZM14 20.5H28C30.4809 20.5 32.5 22.5191 32.5 25C32.5 27.4809 30.4809 29.5 28 29.5H14C11.5191 29.5 9.5 27.4809 9.5 25C9.5 22.5191 11.5191 20.5 14 20.5Z" fill="black" stroke="black"/>
</svg>
