<svg width="36" height="45" viewBox="0 0 36 45" fill="none" xmlns="http://www.w3.org/2000/svg">
<path d="M6.62895 43V36.4545H11.0395V37.5955H8.01283V39.1552H10.8125V40.2962H8.01283V41.859H11.0522V43H6.62895ZM13.514 43.0927C13.2008 43.0927 12.9217 43.0384 12.6766 42.9297C12.4316 42.8189 12.2377 42.6559 12.0949 42.4407C11.9543 42.2234 11.884 41.9528 11.884 41.6289C11.884 41.3562 11.9341 41.1271 12.0342 40.9418C12.1344 40.7564 12.2707 40.6072 12.4433 40.4943C12.6159 40.3814 12.8119 40.2962 13.0314 40.2386C13.253 40.1811 13.4852 40.1406 13.7281 40.1172C14.0136 40.0874 14.2437 40.0597 14.4185 40.0341C14.5932 40.0064 14.7199 39.9659 14.7988 39.9126C14.8776 39.8594 14.917 39.7805 14.917 39.6761V39.657C14.917 39.4545 14.8531 39.2979 14.7253 39.1871C14.5996 39.0763 14.4206 39.021 14.1883 39.021C13.9433 39.021 13.7484 39.0753 13.6035 39.1839C13.4586 39.2905 13.3627 39.4247 13.3158 39.5866L12.0566 39.4844C12.1205 39.1861 12.2462 38.9283 12.4337 38.7109C12.6212 38.4915 12.8631 38.3232 13.1592 38.206C13.4575 38.0866 13.8027 38.027 14.1947 38.027C14.4675 38.027 14.7285 38.0589 14.9778 38.1229C15.2292 38.1868 15.4518 38.2859 15.6457 38.4201C15.8418 38.5543 15.9962 38.7269 16.1092 38.9379C16.2221 39.1467 16.2785 39.397 16.2785 39.6889V43H14.9873V42.3192H14.949C14.8702 42.4727 14.7647 42.608 14.6326 42.7251C14.5005 42.8402 14.3418 42.9308 14.1564 42.9968C13.971 43.0607 13.7569 43.0927 13.514 43.0927ZM13.9039 42.1531C14.1042 42.1531 14.281 42.1136 14.4344 42.0348C14.5878 41.9538 14.7082 41.8452 14.7956 41.7088C14.8829 41.5724 14.9266 41.418 14.9266 41.2454V40.7244C14.884 40.7521 14.8254 40.7777 14.7508 40.8011C14.6784 40.8224 14.5964 40.8427 14.5047 40.8619C14.4131 40.8789 14.3215 40.8949 14.2299 40.9098C14.1383 40.9226 14.0552 40.9343 13.9806 40.945C13.8208 40.9684 13.6812 41.0057 13.5619 41.0568C13.4426 41.108 13.3499 41.1772 13.2839 41.2646C13.2178 41.3498 13.1848 41.4563 13.1848 41.5842C13.1848 41.7695 13.2519 41.9112 13.3861 42.0092C13.5225 42.1051 13.6951 42.1531 13.9039 42.1531ZM17.3348 43V38.0909H18.6548V38.9474H18.7059C18.7954 38.6428 18.9456 38.4126 19.1566 38.2571C19.3675 38.0994 19.6104 38.0206 19.8853 38.0206C19.9534 38.0206 20.0269 38.0249 20.1058 38.0334C20.1846 38.0419 20.2539 38.0536 20.3135 38.0685V39.2766C20.2496 39.2575 20.1612 39.2404 20.0483 39.2255C19.9353 39.2106 19.832 39.2031 19.7382 39.2031C19.538 39.2031 19.359 39.2468 19.2013 39.3342C19.0458 39.4194 18.9222 39.5387 18.8306 39.6921C18.7411 39.8455 18.6963 40.0224 18.6963 40.2227V43H17.3348ZM23.8747 38.0909V39.1136H20.9184V38.0909H23.8747ZM21.5895 36.9148H22.951V41.4915C22.951 41.6172 22.9702 41.7152 23.0086 41.7855C23.0469 41.8537 23.1002 41.9016 23.1684 41.9293C23.2387 41.957 23.3196 41.9709 23.4113 41.9709C23.4752 41.9709 23.5391 41.9656 23.603 41.9549C23.6669 41.9421 23.716 41.9325 23.75 41.9261L23.9642 42.9393C23.896 42.9606 23.8001 42.9851 23.6765 43.0128C23.553 43.0426 23.4027 43.0607 23.2259 43.0671C22.8978 43.0799 22.6101 43.0362 22.363 42.9361C22.1179 42.8359 21.9272 42.6804 21.7909 42.4695C21.6545 42.2585 21.5874 41.9922 21.5895 41.6705V36.9148ZM26.2286 40.1619V43H24.8671V36.4545H26.1902V38.957H26.2477C26.3585 38.6673 26.5375 38.4403 26.7847 38.2763C27.0318 38.1101 27.3418 38.027 27.7147 38.027C28.0556 38.027 28.3528 38.1016 28.6064 38.2507C28.8621 38.3977 29.0602 38.6097 29.2009 38.8867C29.3436 39.1616 29.4139 39.4908 29.4118 39.8743V43H28.0503V40.1172C28.0524 39.8146 27.9757 39.5792 27.8202 39.4109C27.6668 39.2425 27.4516 39.1584 27.1746 39.1584C26.9892 39.1584 26.8252 39.1978 26.6824 39.2766C26.5418 39.3555 26.431 39.4705 26.35 39.6218C26.2712 39.771 26.2307 39.951 26.2286 40.1619Z" fill="black"/>
<g filter="url(#filter0_i_15_112)">
<path d="M18 36C27.9411 36 36 27.9411 36 18C36 8.05887 27.9411 0 18 0C8.05887 0 0 8.05887 0 18C0 27.9411 8.05887 36 18 36Z" fill="#55ACEE"/>
</g>
<defs>
<filter id="filter0_i_15_112" x="0" y="0" width="36" height="40" filterUnits="userSpaceOnUse" color-interpolation-filters="sRGB">
<feFlood flood-opacity="0" result="BackgroundImageFix"/>
<feBlend mode="normal" in="SourceGraphic" in2="BackgroundImageFix" result="shape"/>
<feColorMatrix in="SourceAlpha" type="matrix" values="0 0 0 0 0 0 0 0 0 0 0 0 0 0 0 0 0 0 127 0" result="hardAlpha"/>
<feOffset dy="4"/>
<feGaussianBlur stdDeviation="2"/>
<feComposite in2="hardAlpha" operator="arithmetic" k2="-1" k3="1"/>
<feColorMatrix type="matrix" values="0 0 0 0 0 0 0 0 0 0 0 0 0 0 0 0 0 0 0.25 0"/>
<feBlend mode="normal" in2="shape" result="effect1_innerShadow_15_112"/>
</filter>
</defs>
</svg>
