<svg width="42" height="45" viewBox="0 0 42 45" fill="none" xmlns="http://www.w3.org/2000/svg">
<path d="M38.5 18C38.5 27.665 30.665 35.5 21 35.5C11.335 35.5 3.5 27.665 3.5 18C3.5 8.33502 11.335 0.5 21 0.5C30.665 0.5 38.5 8.33502 38.5 18Z" fill="white" fill-opacity="0.01" stroke="black"/>
<path d="M21 25.5C16.2431 25.5 14.1725 27.335 14.0052 27.4958L14.0004 27.4989C14.0166 27.4358 14.2821 26.4493 15.2581 25.4765C16.234 24.5038 17.9642 23.5 21 23.5C24.0353 23.5 25.7655 24.5038 26.7416 25.4765C27.722 26.4537 27.9857 27.4446 27.9998 27.4997C27.9998 27.4997 27.9997 27.4996 27.9997 27.4996L27.9997 27.4996L27.9997 27.4996C27.8746 27.3763 25.8102 25.5 21 25.5ZM28.485 27.379L28.0029 27.5006L28.0027 27.5003L28.485 27.379Z" fill="#664500" stroke="black"/>
<path d="M17 13.5C17 14.3743 16.7461 15.145 16.3609 15.6843C15.975 16.2245 15.487 16.5 15 16.5C14.513 16.5 14.025 16.2245 13.6391 15.6843C13.2539 15.145 13 14.3743 13 13.5C13 12.6257 13.2539 11.855 13.6391 11.3157C14.025 10.7755 14.513 10.5 15 10.5C15.487 10.5 15.975 10.7755 16.3609 11.3157C16.7461 11.855 17 12.6257 17 13.5Z" fill="#664500" stroke="black"/>
<path d="M29 13.5C29 14.3743 28.7461 15.145 28.3609 15.6843C27.975 16.2245 27.487 16.5 27 16.5C26.513 16.5 26.025 16.2245 25.6391 15.6843C25.2539 15.145 25 14.3743 25 13.5C25 12.6257 25.2539 11.855 25.6391 11.3157C26.025 10.7755 26.513 10.5 27 10.5C27.487 10.5 27.975 10.7755 28.3609 11.3157C28.7461 11.855 29 12.6257 29 13.5Z" fill="#664500" stroke="black"/>
</svg>
