<svg width="42" height="46" viewBox="0 0 42 46" fill="none" xmlns="http://www.w3.org/2000/svg">
<path d="M21 37C12.3321 37 3 31.3671 3 19C3 6.63285 12.3321 1 21 1C25.8041 1 30.2514 2.64895 33.5255 5.64734C37.1069 8.92593 39 13.5443 39 19C39 24.43 37.1069 29.0386 33.5255 32.3301C30.2421 35.3414 25.7948 37 21 37Z" fill="white" stroke="black"/>
<path d="M15.3041 13.3598C15.3048 13.36 15.3059 13.3603 15.3073 13.3607C15.3314 13.367 15.4499 13.3983 15.5526 13.4624C15.5557 13.4642 15.5588 13.466 15.562 13.4679C15.6345 13.5098 15.7409 13.5715 15.84 13.6549C15.939 13.73 16.0321 13.8195 16.1102 13.8946L16.1177 13.9018L16.1246 13.9085L16.1245 13.9086C16.139 13.9237 16.154 13.9391 16.1694 13.955C16.2325 14.0199 16.301 14.0904 16.3585 14.1582C16.4225 14.2278 16.4778 14.2883 16.5241 14.3396L16.5315 14.3478L16.5382 14.3567C16.5923 14.4284 16.6351 14.4855 16.6664 14.5277C16.6838 14.5492 16.6971 14.5664 16.7066 14.5791L16.7187 14.5955L16.7206 14.5982C16.9352 14.8828 17.3106 15.0477 17.712 14.9849L17.7121 14.9848C18.2642 14.8985 18.6204 14.4055 18.5317 13.9033L18.5303 13.8949L18.5294 13.8872L18.5294 13.8872L18.5294 13.8871L18.5294 13.8869L18.5294 13.8867L18.5294 13.8866L18.5294 13.8865L18.5292 13.8853L18.5277 13.874C18.5264 13.8648 18.5243 13.8511 18.5212 13.8333C18.5128 13.8 18.5072 13.7653 18.5034 13.7419C18.5026 13.7367 18.5018 13.7321 18.5012 13.7281C18.4961 13.698 18.4896 13.6645 18.4766 13.6199C18.471 13.6022 18.4654 13.584 18.4597 13.5656C18.4252 13.4536 18.3874 13.3311 18.3373 13.2148L18.3324 13.2035L18.3327 13.2034C18.278 13.057 18.2029 12.889 18.1016 12.7118L18.1008 12.7105L18.1008 12.7104C17.8972 12.349 17.6065 11.9307 17.1159 11.5481L17.115 11.5474C16.8729 11.3568 16.5826 11.1755 16.2409 11.0514L16.236 11.0496L16.236 11.0495C16.0705 10.9855 15.8851 10.9348 15.6966 10.8984C15.6693 10.8941 15.6434 10.8899 15.6185 10.8858C15.5444 10.8736 15.4792 10.8628 15.4101 10.8563L15.2584 10.8471L15.1804 10.844L15.1704 10.8436L15.1704 10.8434L15.14 10.8409H15.1314H15.1262L15.0395 10.8438L14.874 10.8563L14.8646 10.857H14.8628L14.8567 10.8576L14.8196 10.8613L14.729 10.8711L14.5417 10.8993L14.5387 10.8998L14.5387 10.8998C14.4529 10.9117 14.4018 10.9257 14.3361 10.9438C14.3089 10.9513 14.2793 10.9594 14.2436 10.9684M15.3041 13.3598L14.8552 10.607C14.844 10.607 14.7721 10.6149 14.7149 10.6212C14.7087 10.6219 14.7026 10.6225 14.6969 10.6231L14.5045 10.6521C14.4014 10.6664 14.3305 10.6859 14.2592 10.7055C14.2339 10.7125 14.2086 10.7195 14.1817 10.7262C14.0824 10.752 13.9862 10.7842 13.8962 10.8196C13.5238 10.9549 13.2103 11.1545 12.9528 11.3542M15.3041 13.3598C15.2715 13.3479 15.243 13.3426 15.2231 13.3396C15.2144 13.3383 15.206 13.3373 15.2018 13.3368L15.2005 13.3367C15.1989 13.3365 15.1978 13.3364 15.1973 13.3363L15.1809 13.3335L15.1809 13.3331L15.1807 13.3331L15.1791 13.3331L15.1353 13.3256L15.1149 13.3326C15.1052 13.3333 15.0947 13.3346 15.0835 13.3367L15.0722 13.3372C15.0481 13.334 15.0301 13.3352 15.0252 13.3355L15.0247 13.3355C15.0134 13.3362 15.0046 13.3375 15.0004 13.3382C14.9968 13.3387 14.9935 13.3393 14.9907 13.3399C14.9862 13.3401 14.9816 13.3404 14.9771 13.3408C14.9727 13.3412 14.9649 13.342 14.9555 13.3435L14.955 13.3436C14.9494 13.3445 14.9243 13.3487 14.8954 13.3614C14.8915 13.3631 14.8848 13.3661 14.8762 13.3708C14.8275 13.3846 14.7378 13.4138 14.6558 13.4666C14.6532 13.468 14.6506 13.4695 14.648 13.4711C14.5746 13.5136 14.4664 13.5763 14.3662 13.6613C14.2739 13.7366 14.1796 13.8211 14.0923 13.905L14.0922 13.905L14.0872 13.9101C13.9196 14.0806 13.7722 14.2503 13.6702 14.3727C13.6182 14.4349 13.5778 14.4841 13.5503 14.518L13.5188 14.5571L13.5106 14.5675L13.5091 14.5693M15.3041 13.3598L13.5091 14.5693M14.2436 10.9684C14.2433 10.9685 14.243 10.9686 14.2427 10.9687L14.1817 10.7262L14.2445 10.9682C14.2442 10.9683 14.2439 10.9683 14.2436 10.9684ZM14.2436 10.9684C14.1555 10.9913 14.0692 11.0202 13.9878 11.0522L13.9816 11.0547L13.9815 11.0546C13.6409 11.1783 13.3503 11.3624 13.1062 11.5516M13.1062 11.5516C13.1063 11.5515 13.1064 11.5514 13.1065 11.5514L12.9528 11.3542M13.1062 11.5516C12.616 11.934 12.3254 12.352 12.1218 12.7133C11.9206 13.0735 11.8185 13.3787 11.7567 13.5952C11.7272 13.7041 11.7074 13.7894 11.6951 13.8466C11.689 13.8753 11.6847 13.897 11.6821 13.9109L11.6793 13.9261L11.6788 13.9293L11.6787 13.9294L11.6787 13.9295L11.6787 13.9295L11.6787 13.9296L11.6787 13.9297L11.6787 13.9297C11.6254 14.2513 11.7478 14.5899 12.0391 14.8102C12.4709 15.1366 13.1009 15.0642 13.4394 14.6543C13.4394 14.6542 13.4395 14.6541 13.4396 14.6541L13.5091 14.5693M13.1062 11.5516C13.1061 11.5517 13.106 11.5517 13.1059 11.5518L12.9528 11.3542M12.9528 11.3542C12.4283 11.7632 12.1179 12.2109 11.9038 12.5909C11.6896 12.9742 11.581 13.2995 11.5159 13.5281C11.4538 13.7568 11.4321 13.8888 11.4321 13.8888C11.3638 14.3011 11.5221 14.7326 11.8883 15.0096C12.4252 15.4154 13.2072 15.3285 13.6324 14.8132L13.5091 14.5693" fill="#242424" stroke="black" stroke-width="0.5"/>
<path d="M26.942 13.3598C26.9427 13.36 26.9438 13.3603 26.9453 13.3607C26.9693 13.367 27.0879 13.3983 27.1905 13.4624C27.1936 13.4642 27.1967 13.466 27.1999 13.4679C27.2724 13.5099 27.3788 13.5715 27.4779 13.6549C27.5769 13.73 27.67 13.8195 27.7481 13.8946L27.7556 13.9018L27.7626 13.9085L27.7624 13.9086C27.7769 13.9237 27.792 13.9391 27.8073 13.955C27.8704 14.0199 27.9389 14.0904 27.9965 14.1582C28.0605 14.2278 28.1157 14.2883 28.1621 14.3396L28.1695 14.3478L28.1761 14.3567C28.2302 14.4284 28.273 14.4855 28.3044 14.5277C28.3218 14.5492 28.3351 14.5664 28.3446 14.5791L28.3566 14.5955L28.359 14.5989C28.57 14.8824 28.9449 15.0478 29.3468 14.9849L29.3469 14.9848C29.8991 14.8985 30.2552 14.4055 30.1666 13.9033L30.1651 13.8949L30.1642 13.8872L30.1642 13.8872L30.1642 13.8871L30.1642 13.8869L30.1642 13.8867L30.1642 13.8866L30.1642 13.8865L30.164 13.8853L30.1625 13.874C30.1612 13.8648 30.1591 13.8511 30.156 13.8333C30.1476 13.8 30.142 13.7653 30.1383 13.7419C30.1374 13.7367 30.1367 13.7321 30.136 13.7281C30.1309 13.698 30.1244 13.6645 30.1114 13.6199C30.1058 13.6021 30.1003 13.584 30.0946 13.5656C30.06 13.4536 30.0222 13.3311 29.9721 13.2148L29.9672 13.2035L29.9675 13.2034C29.9128 13.057 29.8377 12.889 29.7364 12.7118L29.7356 12.7105L29.7356 12.7104C29.532 12.349 29.2413 11.9307 28.7507 11.5481L28.7498 11.5474C28.5078 11.3568 28.2174 11.1755 27.8757 11.0514L27.8708 11.0496L27.8708 11.0495C27.7053 10.9855 27.5199 10.9348 27.3314 10.8984C27.3041 10.8941 27.2782 10.8899 27.2534 10.8858C27.1792 10.8736 27.114 10.8628 27.045 10.8563L26.8933 10.8471L26.8152 10.844L26.8052 10.8436L26.8053 10.8434L26.7749 10.8409H26.7662H26.7611L26.6743 10.8438L26.5088 10.8563L26.4994 10.857H26.4976L26.4915 10.8576L26.4544 10.8613L26.3638 10.8711L26.1765 10.8993L26.1736 10.8998L26.1736 10.8998C26.0877 10.9117 26.0366 10.9257 25.9709 10.9438C25.9438 10.9513 25.9141 10.9594 25.8785 10.9684M26.942 13.3598L25.8165 10.7262M26.942 13.3598C26.9094 13.3479 26.8809 13.3426 26.8611 13.3396C26.8524 13.3383 26.8439 13.3373 26.8398 13.3368L26.8384 13.3367C26.8368 13.3365 26.8358 13.3364 26.8352 13.3363L26.7733 13.3256L26.7528 13.3326C26.7434 13.3333 26.7331 13.3346 26.7222 13.3366L26.707 13.3372C26.6829 13.334 26.6649 13.3352 26.66 13.3355L26.6595 13.3355C26.6483 13.3362 26.6395 13.3375 26.6352 13.3382C26.6316 13.3387 26.6283 13.3393 26.6255 13.3399C26.621 13.3401 26.6165 13.3404 26.6119 13.3408C26.6075 13.3412 26.5997 13.342 26.5903 13.3435L26.5898 13.3436C26.5842 13.3445 26.5592 13.3487 26.5303 13.3614C26.5264 13.3631 26.5196 13.3661 26.511 13.3708C26.4623 13.3846 26.3727 13.4138 26.2906 13.4666C26.288 13.468 26.2854 13.4695 26.2828 13.4711C26.2094 13.5136 26.1012 13.5763 26.001 13.6613C25.9088 13.7366 25.8144 13.8211 25.7271 13.905L25.727 13.905L25.722 13.9101C25.5545 14.0806 25.4071 14.2503 25.305 14.3727C25.253 14.4349 25.2127 14.4841 25.1852 14.518L25.1536 14.5571L25.1454 14.5675L25.144 14.5693L25.0744 14.6541M26.942 13.3598L25.0744 14.6541M25.8785 10.9684C25.8782 10.9685 25.8779 10.9686 25.8775 10.9687L25.8165 10.7262M25.8785 10.9684C25.8788 10.9683 25.879 10.9683 25.8793 10.9682L25.8165 10.7262M25.8785 10.9684C25.7903 10.9913 25.704 11.0202 25.6226 11.0522L25.6164 11.0547L25.6164 11.0546C25.2757 11.1783 24.9852 11.3624 24.741 11.5516M25.8165 10.7262C25.7172 10.752 25.621 10.7842 25.531 10.8196C25.1586 10.9549 24.8452 11.1545 24.5876 11.3542M24.741 11.5516C24.7411 11.5515 24.7412 11.5514 24.7413 11.5514L24.5876 11.3542M24.741 11.5516C24.2508 11.934 23.9602 12.352 23.7566 12.7133M24.741 11.5516C24.7409 11.5517 24.7408 11.5517 24.7407 11.5518L24.5876 11.3542M24.5876 11.3542L23.7566 12.7133M23.7566 12.7133C23.7567 12.7131 23.7568 12.713 23.7569 12.7129L23.5386 12.591L23.7564 12.7137C23.7565 12.7135 23.7566 12.7134 23.7566 12.7133ZM23.7566 12.7133C23.5554 13.0736 23.4533 13.3787 23.3915 13.5952M23.7566 12.7133L23.1507 13.5281M23.3915 13.5952C23.3917 13.5946 23.3918 13.5941 23.3919 13.5936L23.1507 13.5281M23.3915 13.5952C23.3914 13.5957 23.3912 13.5962 23.3911 13.5967L23.1507 13.5281M23.3915 13.5952C23.362 13.7041 23.3422 13.7894 23.33 13.8466C23.3238 13.8753 23.3196 13.897 23.3169 13.9109L23.3141 13.9261L23.3136 13.9293L23.3136 13.9294L23.067 13.8889L23.067 13.8889L23.3136 13.9295L23.3136 13.9295L23.3135 13.9296L23.3135 13.9297L23.3135 13.9297C23.2603 14.2513 23.3826 14.5899 23.6739 14.8102M23.1507 13.5281C23.0886 13.7568 23.0669 13.8888 23.0669 13.8888C22.9986 14.3011 23.1569 14.7326 23.5231 15.0096C24.06 15.4154 24.8421 15.3285 25.2672 14.8132M23.6739 14.8102C23.6739 14.8102 23.6739 14.8102 23.6738 14.8102L23.5231 15.0096L23.6739 14.8102ZM23.6739 14.8102C24.1058 15.1366 24.7357 15.0642 25.0742 14.6543L25.074 14.6545L25.2672 14.8132M25.2672 14.8132L25.0744 14.6541M25.2672 14.8132L25.3386 14.7262C25.3386 14.7262 25.3945 14.6554 25.4969 14.533C25.5962 14.4138 25.739 14.2496 25.9003 14.0853L25.0744 14.6541" fill="#242424" stroke="black" stroke-width="0.5"/>
<path d="M20.9969 21.5894C16.8507 21.5894 12.9931 21.2705 9.77795 20.723C8.98036 20.5878 8.27588 21.2319 8.43726 21.963C9.50484 26.7746 14.6566 30.723 20.9938 30.723C27.93 30.723 32.5976 26.6457 33.5659 21.9469C33.7148 21.2222 33.0135 20.5878 32.2221 20.723C29.0038 21.2705 25.1462 21.5894 20.9969 21.5894Z" fill="#FEFFFA" stroke="black" stroke-miterlimit="10"/>
<path d="M32.4362 20.7036C33.1345 20.7036 33.7024 21.2866 33.5659 21.9468C32.5976 26.6457 27.93 30.723 20.9938 30.723C14.6565 30.723 9.50482 26.7745 8.43724 21.9629C8.28827 21.2995 8.8593 20.7036 9.56379 20.7036C9.63517 20.7036 9.70655 20.7101 9.77793 20.723C12.9931 21.2705 16.8507 21.5893 20.9969 21.5893C25.1462 21.5893 29.0038 21.2705 32.2221 20.7198C32.2934 20.7101 32.3648 20.7036 32.4362 20.7036ZM32.4362 19.4154C32.2965 19.4154 32.1569 19.4283 32.0203 19.4508C28.7524 20.008 24.9414 20.3011 20.9969 20.3011C17.0555 20.3011 13.2445 20.008 9.97965 19.4508C9.8431 19.4283 9.70344 19.4154 9.56379 19.4154C8.81586 19.4154 8.09896 19.7665 7.64896 20.3526C7.2331 20.8937 7.08103 21.5861 7.22689 22.2495C7.82275 24.9388 9.52965 27.409 12.031 29.2028C14.551 31.0128 17.7321 32.008 20.9907 32.008C24.5255 32.008 27.7221 31.016 30.239 29.1384C32.61 27.3703 34.2207 24.913 34.7762 22.2109C34.9128 21.5507 34.7514 20.8679 34.3355 20.3365C33.8886 19.76 33.1779 19.4154 32.4362 19.4154Z" fill="black" stroke="black" stroke-width="0.25"/>
<path d="M20.6924 20.2882V30.5942" stroke="black" stroke-miterlimit="10"/>
<path d="M14.7318 20.2882V30.5942" stroke="black" stroke-miterlimit="10"/>
<path d="M26.653 20.2882V30.5942" stroke="black" stroke-miterlimit="10"/>
<path d="M8.58621 23.8917C9.10015 24.0961 9.60322 24.2842 10.0981 24.4532C10.593 24.6222 11.0798 24.7748 11.5556 24.9138C12.0342 25.0528 12.502 25.1755 12.9642 25.2872C13.4265 25.399 13.8779 25.4971 14.3266 25.5871C14.7725 25.6743 15.2131 25.7533 15.6481 25.8187C16.0832 25.8869 16.5129 25.9441 16.9371 25.9932C17.3613 26.0423 17.7828 26.0804 18.2015 26.1131C18.6203 26.1458 19.0363 26.1676 19.4497 26.184C19.863 26.2003 20.2763 26.2085 20.6897 26.2085C21.103 26.2085 21.5163 26.2003 21.9296 26.184C22.343 26.1676 22.759 26.1458 23.1778 26.1131C23.5966 26.0804 24.018 26.0423 24.4422 25.9932C24.8664 25.9441 25.2961 25.8869 25.7312 25.8187C26.1663 25.7506 26.6068 25.6743 27.0527 25.5871C27.4987 25.4998 27.9528 25.399 28.4151 25.2872C28.8774 25.1755 29.3451 25.0528 29.8237 24.9138C30.3023 24.7748 30.7863 24.6222 31.2812 24.4532C31.7761 24.2842 32.2792 24.0961 32.7931 23.8917" stroke="black" stroke-miterlimit="10"/>
</svg>
