<svg width="42" height="45" viewBox="0 0 42 45" fill="none" xmlns="http://www.w3.org/2000/svg">
<path d="M38.5 18C38.5 27.665 30.665 35.5 21 35.5C11.335 35.5 3.5 27.665 3.5 18C3.5 8.33502 11.335 0.5 21 0.5C30.665 0.5 38.5 8.33502 38.5 18Z" stroke="black"/>
<path d="M21 21C17.377 21 14.973 20.578 12 20C11.321 19.869 10 20 10 22C10 26 14.595 31 21 31C27.404 31 32 26 32 22C32 20 30.679 19.868 30 20C27.027 20.578 24.623 21 21 21Z" fill="black"/>
<path d="M12 22C12 22 15 23 21 23C27 23 30 22 30 22C30 22 28 26 21 26C14 26 12 22 12 22Z" fill="white"/>
<path d="M15 17C16.3807 17 17.5 15.433 17.5 13.5C17.5 11.567 16.3807 10 15 10C13.6193 10 12.5 11.567 12.5 13.5C12.5 15.433 13.6193 17 15 17Z" fill="black"/>
<path d="M27 17C28.3807 17 29.5 15.433 29.5 13.5C29.5 11.567 28.3807 10 27 10C25.6193 10 24.5 11.567 24.5 13.5C24.5 15.433 25.6193 17 27 17Z" fill="black"/>
</svg>
