<svg width="42" height="45" viewBox="0 0 42 45" fill="none" xmlns="http://www.w3.org/2000/svg">
<path d="M38.5 18C38.5 27.665 30.665 35.5 21 35.5C11.335 35.5 3.5 27.665 3.5 18C3.5 8.33502 11.335 0.5 21 0.5C30.665 0.5 38.5 8.33502 38.5 18Z" fill="white" fill-opacity="0.01" stroke="black"/>
<path d="M21 25.5C25.7569 25.5 27.8275 23.665 27.9948 23.5042L27.9996 23.5011C27.9834 23.5642 27.7179 24.5507 26.7419 25.5235C25.766 26.4962 24.0358 27.5 21 27.5C17.9648 27.5 16.2345 26.4962 15.2585 25.5235C14.278 24.5463 14.0143 23.5554 14.0002 23.5003C14.0002 23.5003 14.0003 23.5004 14.0003 23.5004L14.0003 23.5004L14.0003 23.5004C14.1254 23.6237 16.1898 25.5 21 25.5ZM13.515 23.621L13.9971 23.4994L13.9973 23.4997L13.515 23.621Z" fill="#664500" stroke="black"/>
<path d="M17 13.5C17 14.3743 16.7461 15.145 16.3609 15.6843C15.975 16.2245 15.487 16.5 15 16.5C14.513 16.5 14.025 16.2245 13.6391 15.6843C13.2539 15.145 13 14.3743 13 13.5C13 12.6257 13.2539 11.855 13.6391 11.3157C14.025 10.7755 14.513 10.5 15 10.5C15.487 10.5 15.975 10.7755 16.3609 11.3157C16.7461 11.855 17 12.6257 17 13.5Z" fill="#664500" stroke="black"/>
<path d="M29 13.5C29 14.3743 28.7461 15.145 28.3609 15.6843C27.975 16.2245 27.487 16.5 27 16.5C26.513 16.5 26.025 16.2245 25.6391 15.6843C25.2539 15.145 25 14.3743 25 13.5C25 12.6257 25.2539 11.855 25.6391 11.3157C26.025 10.7755 26.513 10.5 27 10.5C27.487 10.5 27.975 10.7755 28.3609 11.3157C28.7461 11.855 29 12.6257 29 13.5Z" fill="#664500" stroke="black"/>
</svg>
