<svg width="42" height="45" viewBox="0 0 42 45" fill="none" xmlns="http://www.w3.org/2000/svg">
<path d="M8.49676 36.4545H9.86466V41.0185C9.86466 41.4403 9.76984 41.8068 9.58021 42.1179C9.39271 42.429 9.1317 42.6687 8.79719 42.837C8.46267 43.0053 8.07382 43.0895 7.63064 43.0895C7.23646 43.0895 6.87851 43.0202 6.55677 42.8817C6.23717 42.7411 5.98362 42.5281 5.79612 42.2425C5.60862 41.9549 5.51594 41.5937 5.51807 41.1591H6.89555C6.89981 41.3317 6.93497 41.4798 7.00102 41.6033C7.0692 41.7248 7.16189 41.8185 7.27908 41.8846C7.39839 41.9485 7.53902 41.9805 7.70095 41.9805C7.8714 41.9805 8.01523 41.9442 8.13241 41.8718C8.25173 41.7972 8.34229 41.6886 8.40408 41.5458C8.46586 41.4031 8.49676 41.2273 8.49676 41.0185V36.4545ZM14.1313 40.9098V38.0909H15.4929V43H14.1857V42.1083H14.1345C14.0237 42.396 13.8394 42.6271 13.5816 42.8018C13.3259 42.9766 13.0138 43.0639 12.6452 43.0639C12.3171 43.0639 12.0284 42.9893 11.7791 42.8402C11.5298 42.6911 11.3348 42.479 11.1942 42.2042C11.0557 41.9293 10.9854 41.6001 10.9833 41.2166V38.0909H12.3448V40.9737C12.3469 41.2635 12.4247 41.4925 12.5781 41.6609C12.7315 41.8292 12.9371 41.9134 13.1949 41.9134C13.359 41.9134 13.5124 41.8761 13.6551 41.8015C13.7979 41.7248 13.913 41.6119 14.0003 41.4627C14.0898 41.3136 14.1335 41.1293 14.1313 40.9098ZM16.5819 44.8409V38.0909H17.9242V38.9155H17.985C18.0446 38.7834 18.1309 38.6491 18.2438 38.5128C18.3589 38.3743 18.508 38.2592 18.6913 38.1676C18.8766 38.0739 19.1068 38.027 19.3816 38.027C19.7396 38.027 20.0698 38.1207 20.3724 38.3082C20.6749 38.4936 20.9168 38.7738 21.0979 39.1488C21.279 39.5217 21.3695 39.9893 21.3695 40.5518C21.3695 41.0994 21.2811 41.5618 21.1043 41.9389C20.9296 42.3139 20.6909 42.5984 20.3884 42.7923C20.0879 42.984 19.7513 43.0799 19.3784 43.0799C19.1142 43.0799 18.8894 43.0362 18.7041 42.9489C18.5208 42.8615 18.3706 42.7518 18.2534 42.6197C18.1362 42.4854 18.0467 42.3501 17.985 42.2138H17.9434V44.8409H16.5819ZM17.9146 40.5455C17.9146 40.8374 17.9551 41.092 18.0361 41.3093C18.1171 41.5266 18.2342 41.696 18.3877 41.8175C18.5411 41.9368 18.7275 41.9964 18.947 41.9964C19.1685 41.9964 19.356 41.9357 19.5095 41.8143C19.6629 41.6907 19.779 41.5202 19.8578 41.3029C19.9388 41.0835 19.9793 40.831 19.9793 40.5455C19.9793 40.2621 19.9399 40.0128 19.861 39.7976C19.7822 39.5824 19.6661 39.4141 19.5127 39.2926C19.3592 39.1712 19.1707 39.1104 18.947 39.1104C18.7254 39.1104 18.5379 39.169 18.3845 39.2862C18.2332 39.4034 18.1171 39.5696 18.0361 39.7848C17.9551 40 17.9146 40.2536 17.9146 40.5455ZM22.2772 43V38.0909H23.6387V43H22.2772ZM22.9612 37.4581C22.7587 37.4581 22.5851 37.391 22.4402 37.2567C22.2975 37.1204 22.2261 36.9574 22.2261 36.7678C22.2261 36.5803 22.2975 36.4194 22.4402 36.2852C22.5851 36.1488 22.7587 36.0806 22.9612 36.0806C23.1636 36.0806 23.3362 36.1488 23.4789 36.2852C23.6238 36.4194 23.6962 36.5803 23.6962 36.7678C23.6962 36.9574 23.6238 37.1204 23.4789 37.2567C23.3362 37.391 23.1636 37.4581 22.9612 37.4581ZM27.3405 38.0909V39.1136H24.3842V38.0909H27.3405ZM25.0554 36.9148H26.4169V41.4915C26.4169 41.6172 26.436 41.7152 26.4744 41.7855C26.5127 41.8537 26.566 41.9016 26.6342 41.9293C26.7045 41.957 26.7855 41.9709 26.8771 41.9709C26.941 41.9709 27.0049 41.9656 27.0688 41.9549C27.1328 41.9421 27.1818 41.9325 27.2159 41.9261L27.43 42.9393C27.3618 42.9606 27.2659 42.9851 27.1424 43.0128C27.0188 43.0426 26.8686 43.0607 26.6917 43.0671C26.3636 43.0799 26.0759 43.0362 25.8288 42.9361C25.5838 42.8359 25.3931 42.6804 25.2567 42.4695C25.1203 42.2585 25.0532 41.9922 25.0554 41.6705V36.9148ZM30.4119 43.0959C29.9069 43.0959 29.4723 42.9936 29.1079 42.7891C28.7457 42.5824 28.4666 42.2905 28.2706 41.9134C28.0745 41.5341 27.9765 41.0856 27.9765 40.5678C27.9765 40.0629 28.0745 39.6197 28.2706 39.2383C28.4666 38.8569 28.7425 38.5597 29.0983 38.3466C29.4563 38.1335 29.876 38.027 30.3576 38.027C30.6814 38.027 30.9829 38.0792 31.262 38.1836C31.5433 38.2859 31.7883 38.4403 31.9971 38.647C32.2081 38.8537 32.3721 39.1136 32.4893 39.4268C32.6065 39.7379 32.6651 40.1023 32.6651 40.5199V40.8938H28.5198V40.0501H31.3835C31.3835 39.854 31.3409 39.6804 31.2556 39.5291C31.1704 39.3778 31.0522 39.2596 30.9009 39.1744C30.7517 39.087 30.5781 39.0433 30.3799 39.0433C30.1733 39.0433 29.99 39.0913 29.8302 39.1871C29.6725 39.2809 29.549 39.4077 29.4595 39.5675C29.37 39.7251 29.3242 39.9009 29.322 40.0948V40.897C29.322 41.1399 29.3668 41.3498 29.4563 41.5266C29.5479 41.7035 29.6768 41.8398 29.843 41.9357C30.0092 42.0316 30.2063 42.0795 30.4343 42.0795C30.5855 42.0795 30.724 42.0582 30.8497 42.0156C30.9755 41.973 31.0831 41.9091 31.1725 41.8239C31.262 41.7386 31.3302 41.6342 31.3771 41.5107L32.6363 41.5938C32.5724 41.8963 32.4414 42.1605 32.2432 42.3864C32.0472 42.6101 31.7936 42.7848 31.4826 42.9105C31.1736 43.0341 30.8167 43.0959 30.4119 43.0959ZM33.5536 43V38.0909H34.8735V38.9474H34.9247C35.0142 38.6428 35.1644 38.4126 35.3753 38.2571C35.5862 38.0994 35.8291 38.0206 36.104 38.0206C36.1722 38.0206 36.2457 38.0249 36.3245 38.0334C36.4034 38.0419 36.4726 38.0536 36.5323 38.0685V39.2766C36.4684 39.2575 36.3799 39.2404 36.267 39.2255C36.1541 39.2106 36.0507 39.2031 35.957 39.2031C35.7567 39.2031 35.5777 39.2468 35.4201 39.3342C35.2645 39.4194 35.1409 39.5387 35.0493 39.6921C34.9598 39.8455 34.9151 40.0224 34.9151 40.2227V43H33.5536Z" fill="black"/>
<g filter="url(#filter0_i_15_113)">
<path d="M20 36C29.9411 36 38 27.9411 38 18C38 8.05887 29.9411 0 20 0C10.0589 0 2 8.05887 2 18C2 27.9411 10.0589 36 20 36Z" fill="#C1694F"/>
</g>
<defs>
<filter id="filter0_i_15_113" x="2" y="0" width="36" height="40" filterUnits="userSpaceOnUse" color-interpolation-filters="sRGB">
<feFlood flood-opacity="0" result="BackgroundImageFix"/>
<feBlend mode="normal" in="SourceGraphic" in2="BackgroundImageFix" result="shape"/>
<feColorMatrix in="SourceAlpha" type="matrix" values="0 0 0 0 0 0 0 0 0 0 0 0 0 0 0 0 0 0 127 0" result="hardAlpha"/>
<feOffset dy="4"/>
<feGaussianBlur stdDeviation="2"/>
<feComposite in2="hardAlpha" operator="arithmetic" k2="-1" k3="1"/>
<feColorMatrix type="matrix" values="0 0 0 0 0 0 0 0 0 0 0 0 0 0 0 0 0 0 0.25 0"/>
<feBlend mode="normal" in2="shape" result="effect1_innerShadow_15_113"/>
</filter>
</defs>
</svg>
