<?xml version="1.0" standalone="no"?>
<!DOCTYPE svg PUBLIC "-//W3C//DTD SVG 20010904//EN"
 "http://www.w3.org/TR/2001/REC-SVG-20010904/DTD/svg10.dtd">
<svg version="1.0" xmlns="http://www.w3.org/2000/svg"
 width="512.000000pt" height="512.000000pt" viewBox="0 0 512.000000 512.000000"
 preserveAspectRatio="xMidYMid meet">

<g transform="translate(0.000000,512.000000) scale(0.100000,-0.100000)"
fill="#000000" stroke="none">
<path d="M2399 4941 c-84 -27 -94 -56 -86 -242 6 -145 20 -199 55 -218 30 -16
106 -13 152 5 65 26 74 53 72 222 -2 153 -11 188 -55 217 -29 18 -103 27 -138
16z m82 -100 c22 -18 24 -28 27 -134 4 -115 4 -115 -22 -132 -34 -23 -73 -13
-88 23 -6 15 -11 69 -12 120 -1 91 0 94 27 118 34 29 38 29 68 5z"/>
<path d="M2080 4909 c-151 -29 -141 -25 -136 -62 3 -18 20 -119 37 -226 l33
-193 48 5 c27 4 90 14 139 23 l90 16 -6 42 c-4 22 -8 42 -9 43 0 1 -38 -4 -84
-10 -92 -12 -102 -8 -102 45 0 22 6 29 28 34 47 10 51 12 47 31 -16 78 -12 74
-58 71 -42 -3 -42 -3 -45 34 -3 33 0 37 25 42 15 3 54 10 86 16 l58 12 -6 41
c-11 67 -1 64 -145 36z"/>
<path d="M1623 4810 c-13 -5 -23 -14 -23 -19 0 -6 24 -95 54 -198 29 -103 57
-202 60 -220 l7 -31 72 19 c40 11 101 29 135 40 57 19 63 24 58 43 -4 11 -9
34 -13 49 -4 20 -10 26 -21 22 -25 -9 -153 -37 -156 -33 -2 2 -38 127 -92 321
-6 19 -43 22 -81 7z"/>
<path d="M3248 4695 c-3 -5 -12 -46 -18 -90 -7 -44 -14 -81 -15 -82 -1 -2 -37
17 -81 42 -43 25 -82 45 -86 45 -21 0 -1 -28 67 -94 l75 -73 -52 -49 c-65 -61
-102 -103 -95 -110 6 -6 99 39 140 68 16 11 30 19 31 17 2 -2 9 -40 15 -84 18
-125 32 -123 50 9 5 37 11 69 13 71 2 2 32 -14 68 -35 72 -42 110 -56 110 -42
0 5 -34 42 -75 81 -41 39 -75 73 -75 75 0 2 35 38 77 79 43 42 75 79 71 83 -4
3 -45 -14 -91 -39 -94 -51 -95 -50 -98 28 -1 41 -23 112 -31 100z"/>
<path d="M1035 4334 c-67 -35 -94 -83 -99 -174 -3 -45 -9 -67 -24 -83 -47 -50
-67 -116 -68 -222 0 -73 -5 -111 -18 -140 -26 -57 -19 -176 12 -207 20 -21 23
-21 38 -6 14 13 14 23 5 67 -14 67 -14 83 2 105 13 17 17 16 73 -14 50 -27 67
-31 108 -27 61 5 86 31 86 88 0 71 -66 113 -169 107 l-66 -3 -3 50 c-4 61 11
115 38 140 18 17 21 17 38 2 25 -23 86 -47 119 -47 38 0 91 34 99 64 8 32 -19
82 -56 101 -17 9 -55 15 -91 15 l-62 0 6 37 c9 51 35 84 85 108 27 12 41 25
40 35 -4 21 -57 24 -93 4z m83 -260 c12 -8 20 -20 17 -25 -10 -14 -71 -11 -85
6 -27 33 26 48 68 19z m-73 -318 c47 -20 50 -56 5 -56 -59 0 -117 48 -77 63
21 9 37 7 72 -7z"/>
<path d="M2283 3985 c-330 -60 -612 -267 -742 -546 -65 -138 -76 -193 -76
-366 l0 -152 -35 -6 c-138 -26 -308 -143 -405 -280 -112 -158 -157 -297 -158
-485 -1 -215 51 -349 192 -491 73 -73 101 -93 181 -132 132 -64 202 -81 335
-81 204 0 382 70 536 212 116 107 183 217 220 359 23 93 25 241 4 333 -22 94
-101 248 -195 380 -157 222 -185 295 -156 409 21 81 54 137 120 199 107 101
220 136 416 129 99 -3 142 -10 205 -30 250 -82 397 -267 365 -459 -20 -124
-73 -218 -275 -487 -220 -295 -331 -489 -377 -661 -32 -121 -32 -294 1 -400
85 -278 291 -479 576 -566 80 -24 106 -27 240 -28 168 0 227 11 352 69 197 91
354 246 471 465 85 159 160 397 148 473 -23 143 -166 225 -292 168 -49 -22
-111 -92 -119 -135 -12 -54 -76 -208 -118 -281 -54 -93 -174 -213 -252 -251
-55 -26 -69 -29 -165 -29 -92 0 -112 4 -160 26 -161 77 -230 212 -185 364 34
118 90 208 295 470 212 271 302 422 357 602 24 79 27 104 27 248 1 138 -2 171
-22 239 -128 442 -576 739 -1111 735 -69 0 -158 -7 -198 -14z m458 -64 c199
-45 360 -118 496 -225 108 -86 183 -178 243 -301 67 -138 84 -211 83 -365 0
-151 -23 -250 -88 -387 -59 -125 -122 -219 -314 -468 -216 -280 -269 -373
-290 -504 -25 -155 52 -291 210 -370 173 -86 367 -55 517 84 111 103 181 218
246 404 20 56 42 112 50 123 27 38 68 58 121 58 64 0 114 -32 140 -90 17 -37
18 -49 7 -109 -35 -204 -157 -456 -291 -603 -165 -181 -380 -278 -616 -278
-139 0 -236 23 -360 84 -164 82 -268 185 -348 345 -61 121 -81 216 -74 345 12
224 102 410 371 769 157 210 241 338 266 403 34 92 46 184 33 259 -16 94 -47
151 -127 231 -121 122 -289 190 -496 201 -132 6 -225 -12 -336 -67 -99 -48
-182 -132 -228 -230 -28 -58 -31 -75 -31 -155 0 -81 3 -97 33 -159 18 -39 73
-126 121 -195 159 -225 210 -342 219 -497 11 -215 -82 -415 -263 -558 -230
-184 -513 -216 -774 -89 -59 28 -96 56 -161 122 -132 133 -180 251 -180 447 0
285 155 545 399 668 50 24 112 48 138 51 79 11 85 14 79 40 -47 187 -11 409
94 586 50 85 162 205 245 264 133 94 318 166 475 185 105 12 289 3 391 -19z"/>
<path d="M1560 2639 c-157 -31 -299 -181 -340 -358 -8 -32 -11 -85 -7 -131 9
-131 77 -234 189 -286 54 -25 75 -29 148 -29 77 0 92 4 153 35 83 41 156 111
191 181 20 41 26 68 26 120 0 86 -34 155 -168 339 -106 147 -106 146 -192 129z
m155 -174 c118 -162 148 -222 148 -294 0 -179 -229 -327 -411 -267 -60 20
-126 75 -153 127 -97 191 22 469 231 542 84 30 86 29 185 -108z"/>
<path d="M4297 3702 c-59 -65 -46 -160 34 -248 34 -38 49 -63 49 -82 0 -64 70
-161 164 -225 14 -10 35 -40 47 -68 36 -84 150 -162 185 -127 21 20 9 41 -36
67 -21 12 -51 36 -65 53 -25 30 -26 33 -9 45 10 7 24 13 31 13 21 0 75 30 105
58 79 74 13 180 -95 151 -40 -11 -86 -49 -119 -99 -15 -24 -17 -24 -44 -9 -37
21 -94 104 -94 135 0 20 8 26 46 35 95 24 153 122 103 175 -44 47 -129 28
-188 -43 l-31 -38 -25 30 c-32 39 -39 74 -25 125 17 63 1 89 -33 52z m253
-177 c0 -22 -41 -55 -67 -55 -21 0 -22 3 -13 20 10 18 54 49 73 50 4 0 7 -7 7
-15z m208 -257 c16 -16 -1 -44 -38 -63 -78 -41 -95 6 -20 58 29 20 42 21 58 5z"/>
<path d="M217 3183 c-4 -6 -12 -46 -18 -89 -7 -44 -13 -80 -14 -81 -1 -2 -37
17 -81 42 -43 25 -85 45 -92 45 -19 0 38 -69 99 -121 l50 -42 -83 -84 c-45
-45 -77 -83 -70 -83 16 0 107 46 145 72 16 11 29 19 31 17 1 -2 8 -40 14 -84
19 -125 33 -123 51 9 5 37 11 69 13 71 2 2 38 -17 80 -42 42 -25 83 -43 90
-40 8 3 -16 34 -65 82 l-79 78 78 78 c43 43 75 81 72 84 -7 7 -98 -37 -142
-68 -35 -25 -41 -17 -49 62 -7 67 -21 109 -30 94z"/>
<path d="M4822 2368 c-6 -24 -14 -73 -18 -110 -4 -38 -11 -68 -15 -68 -5 0
-34 16 -65 36 -64 41 -143 78 -151 71 -10 -11 20 -48 102 -125 l86 -80 -96
-93 c-81 -78 -112 -119 -90 -119 12 0 132 64 172 91 23 16 44 29 47 29 3 0 6
-17 6 -37 1 -46 24 -170 34 -180 4 -4 11 -1 16 7 11 18 30 126 30 173 0 20 2
37 5 37 2 0 28 -15 57 -34 52 -33 152 -86 163 -86 21 0 -8 40 -90 119 l-94 93
85 81 c113 106 133 144 62 114 -18 -8 -64 -33 -102 -56 -37 -22 -71 -41 -76
-41 -4 0 -10 29 -13 64 -7 75 -26 156 -37 156 -4 0 -12 -19 -18 -42z"/>
<path d="M790 1265 c-16 -19 -7 -31 43 -56 43 -22 97 -66 97 -80 0 -5 -30 -22
-66 -39 -102 -49 -135 -127 -78 -184 30 -29 67 -33 117 -12 35 14 97 78 97
100 0 8 6 19 14 25 33 28 165 -120 136 -154 -6 -7 -24 -17 -40 -20 -91 -20
-144 -137 -84 -184 51 -40 126 -16 175 55 16 24 34 44 39 44 5 0 22 -18 36
-40 24 -37 26 -46 20 -105 -6 -61 -5 -65 13 -65 27 0 51 48 51 102 -1 62 -31
122 -79 155 -30 20 -44 39 -52 68 -23 85 -84 161 -167 208 -28 16 -53 42 -75
78 -23 39 -47 63 -87 86 -59 36 -91 41 -110 18z m150 -239 c0 -25 -56 -76 -84
-76 -36 0 -34 31 5 64 33 28 79 35 79 12z m210 -258 c0 -19 -42 -58 -62 -58
-24 0 -23 25 2 50 22 22 60 27 60 8z"/>
<path d="M4585 1248 c-2 -7 -5 -41 -7 -76 -3 -40 -10 -68 -20 -79 -15 -14 -20
-13 -60 19 -59 48 -80 58 -126 58 -53 0 -82 -25 -89 -76 -4 -33 -1 -45 22 -72
37 -44 59 -54 130 -61 l60 -6 -3 -40 c-4 -46 -34 -114 -62 -140 -18 -17 -21
-16 -65 23 -51 45 -88 57 -140 48 -62 -12 -84 -79 -44 -130 26 -33 69 -56 106
-56 41 0 57 -14 50 -42 -10 -40 -52 -77 -103 -90 -73 -20 -70 -58 4 -58 40 0
78 19 114 57 29 30 58 91 58 121 0 10 21 38 46 62 61 60 94 127 103 210 5 52
14 76 35 105 48 62 70 170 46 216 -12 21 -48 26 -55 7z m-135 -183 c28 -30 18
-48 -23 -39 -42 9 -66 25 -73 48 -14 43 53 37 96 -9z m-146 -300 c26 -20 14
-49 -16 -40 -26 8 -58 34 -58 47 0 13 53 9 74 -7z"/>
<path d="M2291 773 c-6 -21 -13 -71 -17 -110 -4 -40 -8 -73 -10 -73 -2 0 -48
25 -103 56 -148 83 -158 69 -36 -52 l101 -100 -99 -96 c-54 -54 -96 -101 -93
-107 9 -13 75 16 159 68 35 23 66 41 69 41 3 0 8 -33 11 -72 8 -82 24 -148 36
-148 12 0 28 70 37 153 4 37 8 67 9 67 1 0 36 -20 77 -45 191 -114 196 -86 15
83 l-57 54 95 93 c89 86 110 115 85 115 -14 0 -81 -34 -151 -76 -31 -19 -59
-34 -61 -34 -3 0 -8 26 -11 58 -9 82 -27 162 -37 162 -5 0 -14 -17 -19 -37z"/>
</g>
</svg>
