<?xml version="1.0" standalone="no"?>
<!DOCTYPE svg PUBLIC "-//W3C//DTD SVG 20010904//EN"
 "http://www.w3.org/TR/2001/REC-SVG-20010904/DTD/svg10.dtd">
<svg version="1.0" xmlns="http://www.w3.org/2000/svg"
 width="512.000000pt" height="512.000000pt" viewBox="0 0 512.000000 512.000000"
 preserveAspectRatio="xMidYMid meet">

<g transform="translate(0.000000,512.000000) scale(0.100000,-0.100000)"
fill="#000000" stroke="none">
<path d="M2376 5111 c-22 -4 -32 -14 -38 -36 -10 -38 -33 -463 -25 -471 3 -4
28 -2 54 2 l48 9 5 60 c4 53 8 60 28 63 19 3 26 -6 47 -53 l25 -57 43 7 c23 4
44 9 46 11 8 7 -183 474 -194 473 -5 -1 -23 -4 -39 -8z m61 -215 c22 -68 21
-76 -7 -76 -12 0 -20 11 -24 31 -9 44 -8 109 2 109 4 0 17 -29 29 -64z"/>
<path d="M1902 5001 c-46 -16 -85 -31 -87 -33 -2 -2 28 -102 66 -223 38 -121
69 -226 69 -232 0 -18 32 -16 80 3 22 9 40 17 40 18 0 2 -11 36 -25 76 -14 40
-23 76 -20 79 3 3 37 -26 75 -64 l69 -69 47 15 c26 8 49 20 51 26 2 6 -35 45
-82 85 l-86 73 24 20 c77 63 59 188 -33 236 -48 26 -91 24 -188 -10z m126 -87
c25 -17 29 -56 9 -73 -8 -6 -28 -14 -44 -17 -27 -5 -31 -3 -42 27 -16 45 -14
54 12 67 31 15 39 14 65 -4z"/>
<path d="M3153 4958 c-4 -7 -20 -39 -35 -71 -15 -32 -50 -82 -78 -111 -27 -29
-50 -60 -50 -69 0 -8 20 -39 44 -67 25 -29 59 -85 78 -126 21 -47 38 -73 47
-72 8 2 31 36 52 77 20 40 58 94 83 120 25 26 46 53 46 60 0 8 -18 34 -41 58
-22 24 -59 82 -81 129 -41 84 -50 95 -65 72z"/>
<path d="M1529 4851 c-29 -15 -58 -35 -63 -44 -7 -11 16 -71 89 -231 111 -246
88 -227 211 -171 108 49 140 101 109 181 -12 32 -27 50 -56 67 -31 18 -39 28
-39 52 0 54 -21 108 -55 142 -29 29 -39 33 -88 33 -41 0 -68 -7 -108 -29z
m151 -96 c18 -22 4 -60 -27 -74 -24 -11 -29 -10 -41 6 -21 29 -26 64 -11 74
22 14 65 10 79 -6z m68 -171 c33 -23 29 -60 -9 -80 -37 -19 -53 -8 -68 43 -8
29 -7 33 17 42 36 13 35 13 60 -5z"/>
<path d="M1335 4744 c-22 -13 -44 -25 -50 -27 -6 -2 -2 -20 8 -43 15 -32 212
-378 224 -394 5 -6 94 43 99 55 3 6 -26 64 -64 130 -38 66 -90 162 -118 213
-27 50 -51 92 -54 91 -3 0 -23 -12 -45 -25z"/>
<path d="M1013 4544 c-24 -14 -43 -28 -43 -31 0 -3 35 -55 78 -117 44 -61 105
-151 137 -201 31 -49 59 -92 61 -94 3 -3 244 159 244 166 0 7 -53 83 -58 83
-3 0 -39 -21 -80 -46 -44 -28 -77 -43 -81 -36 -31 50 -207 301 -211 301 -3 1
-24 -11 -47 -25z"/>
<path d="M2435 4055 c-187 -34 -366 -106 -510 -206 -101 -69 -239 -217 -292
-310 -195 -344 -215 -847 -47 -1181 22 -44 30 -68 22 -68 -27 0 -470 -30 -598
-40 -157 -13 -194 -23 -233 -59 -42 -38 -57 -74 -57 -133 0 -72 31 -125 90
-154 38 -19 78 -25 245 -38 403 -32 694 -48 875 -50 l185 -1 67 33 c204 100
212 336 18 555 -116 131 -154 242 -153 442 1 153 21 246 79 356 81 155 260
255 475 266 178 10 325 -41 434 -151 116 -117 166 -257 168 -466 1 -200 -35
-312 -142 -439 -81 -96 -111 -143 -133 -214 -36 -116 -12 -223 66 -295 93 -86
145 -97 401 -82 643 36 997 65 1034 85 58 30 91 84 91 150 0 62 -21 107 -64
140 -44 33 -116 43 -551 71 -148 9 -272 19 -274 20 -2 2 15 45 37 96 88 200
124 419 104 628 -55 556 -409 956 -926 1045 -106 18 -313 18 -411 0z m423 -60
c391 -74 669 -325 800 -723 96 -288 77 -606 -53 -880 -24 -51 -54 -106 -66
-123 -11 -16 -19 -32 -17 -34 2 -2 91 -9 198 -15 107 -5 242 -15 300 -20 58
-5 165 -14 239 -20 150 -11 174 -20 198 -78 19 -45 5 -101 -32 -131 -30 -23
-55 -26 -325 -46 -113 -8 -226 -17 -253 -19 -45 -5 -48 -4 -61 27 -27 67 -120
116 -189 102 -68 -14 -137 -83 -137 -138 0 -20 -233 -33 -307 -17 -56 12 -125
56 -144 91 l-12 22 27 -21 c15 -11 47 -24 70 -27 124 -19 249 128 171 201 -19
17 -25 33 -25 63 0 37 -3 42 -40 61 -46 24 -113 26 -153 5 l-29 -15 34 44 c73
95 121 151 137 160 28 15 72 60 87 88 19 36 18 112 -2 150 -12 22 -14 45 -9
87 3 31 2 96 -4 144 -9 80 -8 91 9 120 47 77 10 196 -73 236 -24 12 -49 21
-56 21 -8 0 -42 27 -77 60 -147 137 -382 193 -590 140 -111 -28 -234 -90 -297
-148 -41 -39 -61 -50 -95 -55 -129 -16 -194 -158 -123 -269 29 -46 30 -48 25
-163 -4 -102 -7 -122 -29 -159 -27 -47 -34 -120 -14 -159 21 -40 73 -87 109
-98 37 -11 115 -95 178 -192 36 -57 43 -84 11 -43 -46 59 -147 83 -209 51 -26
-14 -30 -21 -30 -60 0 -47 -25 -85 -55 -85 -10 0 -15 -10 -15 -30 0 -89 107
-172 198 -155 70 12 125 66 143 139 7 31 7 31 8 -7 2 -67 -49 -140 -124 -180
-46 -24 -192 -34 -319 -22 l-74 7 -7 34 c-14 78 -119 137 -203 115 -51 -14
-100 -55 -118 -98 -8 -18 -22 -33 -31 -33 -46 0 -447 32 -502 40 -97 14 -142
73 -120 153 18 67 42 78 201 92 249 23 409 34 558 41 80 4 153 9 162 13 14 5
11 15 -22 69 -87 145 -138 319 -147 502 -11 244 29 445 133 659 51 104 65 123
152 211 54 53 126 116 162 139 138 89 316 158 465 180 102 15 326 12 413 -4z
m-581 -1857 c-3 -8 -6 -5 -6 6 -1 11 2 17 5 13 3 -3 4 -12 1 -19z"/>
<path d="M3964 2119 c-11 -19 19 -91 51 -124 33 -32 87 -55 130 -55 56 1 138
64 158 123 9 24 -19 33 -139 46 -170 18 -194 19 -200 10z"/>
<path d="M1055 2109 c-38 -5 -86 -14 -107 -19 -35 -10 -37 -12 -27 -38 26 -68
116 -120 186 -107 76 14 132 68 148 143 l7 32 -69 -1 c-37 -1 -99 -6 -138 -10z"/>
<path d="M504 3888 c-4 -6 -20 -37 -35 -67 -16 -31 -47 -76 -69 -100 -22 -24
-40 -48 -40 -53 0 -5 19 -32 41 -61 23 -29 55 -80 70 -115 17 -38 33 -61 39
-57 6 4 22 31 34 60 13 29 47 78 75 109 l52 57 -41 46 c-23 26 -57 80 -76 120
-19 40 -36 73 -39 73 -2 0 -7 -5 -11 -12z"/>
<path d="M3996 3878 c-22 -31 -21 -33 25 -83 44 -48 76 -57 103 -29 26 25 19
57 -22 97 -44 43 -83 49 -106 15z"/>
<path d="M992 3808 c-18 -18 -15 -123 4 -142 21 -22 57 -20 79 4 14 16 17 30
12 71 -4 28 -12 57 -18 65 -14 17 -61 18 -77 2z"/>
<path d="M4186 3684 c-9 -8 -16 -24 -16 -35 0 -20 73 -137 94 -151 22 -15 56
-7 72 16 14 23 14 28 0 58 -9 18 -32 54 -51 81 -38 51 -70 61 -99 31z"/>
<path d="M978 3533 c-21 -25 -51 -148 -44 -177 7 -27 35 -41 65 -31 21 6 42
52 61 133 11 47 10 55 -5 72 -22 25 -57 26 -77 3z"/>
<path d="M4335 3390 c-17 -19 -17 -23 0 -102 9 -46 22 -89 27 -95 17 -22 66
-16 83 10 13 20 13 31 -4 102 -25 102 -63 133 -106 85z"/>
<path d="M873 3243 c-22 -8 -113 -132 -113 -152 0 -29 29 -53 58 -49 18 2 42
22 74 63 54 67 62 104 26 129 -24 17 -26 17 -45 9z"/>
<path d="M4370 3065 c-7 -8 -17 -53 -23 -100 -12 -98 -4 -118 47 -113 40 4 53
32 62 128 6 64 5 75 -11 86 -25 18 -60 18 -75 -1z"/>
<path d="M585 2969 c-33 -22 -66 -46 -74 -54 -19 -19 -6 -63 23 -76 20 -9 33
-6 77 17 77 42 112 78 104 106 -8 27 -33 48 -54 47 -9 0 -43 -18 -76 -40z"/>
<path d="M297 2833 c-25 -10 -39 -24 -44 -41 -10 -40 8 -57 58 -56 62 0 103
22 107 57 7 56 -43 73 -121 40z"/>
<path d="M4294 2752 c-17 -10 -54 -88 -54 -111 0 -26 39 -52 67 -45 21 6 73
88 73 116 0 34 -57 60 -86 40z"/>
<path d="M4822 2595 c-19 -35 -51 -84 -73 -109 -21 -24 -39 -47 -39 -50 0 -4
19 -30 41 -59 23 -29 55 -80 70 -115 17 -38 33 -61 39 -57 6 4 23 32 37 62 15
30 48 79 76 109 l49 54 -41 47 c-23 25 -56 77 -73 115 -18 37 -37 68 -42 68
-6 0 -26 -29 -44 -65z"/>
<path d="M210 1993 c-22 -43 -60 -100 -85 -126 -25 -26 -45 -52 -45 -58 0 -6
20 -34 46 -62 25 -28 61 -86 82 -129 20 -43 41 -78 47 -78 6 0 25 31 43 69 17
37 57 96 87 130 30 34 55 64 55 67 0 4 -22 30 -48 59 -28 31 -63 85 -83 129
-19 42 -39 76 -46 76 -7 0 -30 -35 -53 -77z"/>
<path d="M1998 1380 c-580 -30 -1113 -93 -1179 -141 -67 -47 -85 -150 -39
-224 38 -61 92 -77 405 -115 397 -49 740 -69 1280 -77 683 -9 1294 24 1780 98
99 15 138 25 167 44 114 76 94 252 -35 299 -77 29 -426 71 -837 102 -250 19
-1269 28 -1542 14z m1612 -79 c140 -11 293 -25 340 -31 47 -5 91 -10 98 -10 8
0 -1 -12 -19 -27 -33 -28 -68 -94 -69 -128 0 -41 21 -92 50 -122 l30 -30 -48
-6 c-26 -4 -82 -9 -124 -13 l-78 -7 -44 41 c-82 75 -196 65 -258 -23 l-30 -42
-96 -6 c-54 -4 -205 -9 -337 -13 l-240 -6 -27 50 c-65 121 -230 122 -296 1
-27 -48 -27 -49 -78 -49 -91 0 -568 20 -599 25 -20 4 -39 18 -57 44 -57 83
-174 92 -252 20 l-43 -38 -89 9 c-49 5 -104 12 -122 15 -30 6 -31 7 -17 22 25
24 42 55 49 87 l7 29 -85 -6 c-80 -7 -200 -28 -238 -42 -14 -6 -15 -11 -7 -26
8 -16 6 -19 -15 -19 -57 0 -106 48 -106 105 0 34 25 82 49 95 33 17 426 68
696 90 441 35 540 38 1180 35 523 -2 660 -6 875 -24z m763 -98 c28 -14 57 -65
57 -99 0 -26 -28 -78 -50 -92 -12 -7 -41 -16 -65 -21 l-44 -8 20 36 c27 50 25
116 -6 169 l-24 42 42 -6 c23 -4 55 -13 70 -21z"/>
<path d="M3690 1200 c-8 -5 -10 -10 -5 -10 6 0 17 5 25 10 8 5 11 10 5 10 -5
0 -17 -5 -25 -10z"/>
<path d="M3145 1085 c-49 -7 -111 -14 -137 -14 -26 -1 -50 -5 -53 -11 -9 -14
20 -64 55 -94 99 -83 256 -28 277 97 5 36 5 37 -23 36 -16 -1 -69 -7 -119 -14z"/>
<path d="M1935 1048 c25 -85 123 -140 210 -117 42 12 115 76 115 101 0 13 -27
17 -147 22 -82 4 -156 10 -166 13 -16 4 -18 1 -12 -19z"/>
<path d="M185 1073 c-20 -19 -15 -75 11 -124 19 -38 66 -41 89 -6 13 21 13 29
1 71 -8 26 -20 53 -26 61 -17 20 -55 19 -75 -2z"/>
<path d="M4782 858 c-22 -29 -42 -79 -42 -108 0 -23 6 -33 26 -42 33 -15 52
-4 81 48 25 43 29 84 11 102 -16 16 -63 15 -76 0z"/>
<path d="M292 824 c-33 -23 -27 -61 21 -134 28 -44 49 -66 65 -68 26 -4 62 23
62 45 0 24 -70 142 -93 158 -27 19 -28 19 -55 -1z"/>
<path d="M4592 577 c-34 -34 -62 -70 -62 -80 0 -21 35 -57 56 -57 19 0 131
105 140 132 8 26 -22 68 -49 68 -14 0 -45 -23 -85 -63z"/>
<path d="M476 548 c-9 -12 -16 -29 -16 -36 0 -24 128 -132 157 -132 20 0 53
37 53 59 0 27 -124 131 -155 131 -13 0 -31 -10 -39 -22z"/>
<path d="M1826 403 c-18 -37 -52 -89 -75 -115 -23 -25 -41 -49 -41 -53 0 -4
18 -27 40 -52 22 -25 53 -74 70 -109 16 -35 34 -64 40 -64 5 0 24 28 41 61 17
34 50 83 75 109 24 26 44 51 44 55 0 4 -18 28 -41 52 -22 24 -54 73 -71 109
-16 35 -34 66 -39 69 -4 3 -24 -25 -43 -62z"/>
<path d="M4327 398 c-70 -32 -92 -62 -70 -96 19 -31 48 -31 117 -2 84 36 96
46 96 79 0 59 -41 65 -143 19z"/>
<path d="M750 369 c-21 -39 -5 -66 55 -88 108 -40 150 -40 161 3 10 42 -11 62
-85 85 -88 27 -117 27 -131 0z"/>
<path d="M3666 334 c-19 -19 -20 -44 -3 -67 15 -21 102 -38 133 -27 30 12 39
45 21 74 -24 36 -122 49 -151 20z"/>
<path d="M1079 309 c-22 -22 -19 -55 9 -76 22 -18 103 -16 130 3 26 18 29 56
6 78 -24 25 -118 22 -145 -5z"/>
<path d="M3953 320 c-30 -12 -38 -46 -18 -77 17 -25 20 -25 101 -21 88 5 124
22 124 59 0 37 -27 49 -108 48 -42 0 -87 -4 -99 -9z"/>
</g>
</svg>
