<svg width="42" height="45" viewBox="0 0 42 45" fill="none" xmlns="http://www.w3.org/2000/svg">
<path d="M10.4727 36.4545H12.1794L13.9819 40.8523H14.0586L15.8612 36.4545H17.5679V43H16.2255V38.7397H16.1712L14.4773 42.968H13.5633L11.8694 38.7237H11.815V43H10.4727V36.4545ZM20.0823 43.0927C19.7691 43.0927 19.49 43.0384 19.245 42.9297C19 42.8189 18.8061 42.6559 18.6633 42.4407C18.5227 42.2234 18.4524 41.9528 18.4524 41.6289C18.4524 41.3562 18.5024 41.1271 18.6026 40.9418C18.7027 40.7564 18.8391 40.6072 19.0117 40.4943C19.1843 40.3814 19.3803 40.2962 19.5997 40.2386C19.8213 40.1811 20.0536 40.1406 20.2965 40.1172C20.582 40.0874 20.8121 40.0597 20.9868 40.0341C21.1615 40.0064 21.2883 39.9659 21.3671 39.9126C21.446 39.8594 21.4854 39.7805 21.4854 39.6761V39.657C21.4854 39.4545 21.4215 39.2979 21.2936 39.1871C21.1679 39.0763 20.9889 39.021 20.7567 39.021C20.5117 39.021 20.3167 39.0753 20.1718 39.1839C20.0269 39.2905 19.9311 39.4247 19.8842 39.5866L18.625 39.4844C18.6889 39.1861 18.8146 38.9283 19.0021 38.7109C19.1896 38.4915 19.4314 38.3232 19.7276 38.206C20.0259 38.0866 20.371 38.027 20.7631 38.027C21.0358 38.027 21.2968 38.0589 21.5461 38.1229C21.7975 38.1868 22.0202 38.2859 22.2141 38.4201C22.4101 38.5543 22.5646 38.7269 22.6775 38.9379C22.7904 39.1467 22.8469 39.397 22.8469 39.6889V43H21.5557V42.3192H21.5174C21.4385 42.4727 21.3331 42.608 21.201 42.7251C21.0688 42.8402 20.9101 42.9308 20.7247 42.9968C20.5394 43.0607 20.3252 43.0927 20.0823 43.0927ZM20.4723 42.1531C20.6725 42.1531 20.8494 42.1136 21.0028 42.0348C21.1562 41.9538 21.2766 41.8452 21.3639 41.7088C21.4513 41.5724 21.495 41.418 21.495 41.2454V40.7244C21.4524 40.7521 21.3938 40.7777 21.3192 40.8011C21.2468 40.8224 21.1647 40.8427 21.0731 40.8619C20.9815 40.8789 20.8899 40.8949 20.7983 40.9098C20.7066 40.9226 20.6235 40.9343 20.549 40.945C20.3892 40.9684 20.2496 41.0057 20.1303 41.0568C20.011 41.108 19.9183 41.1772 19.8522 41.2646C19.7862 41.3498 19.7532 41.4563 19.7532 41.5842C19.7532 41.7695 19.8203 41.9112 19.9545 42.0092C20.0909 42.1051 20.2635 42.1531 20.4723 42.1531ZM23.9032 43V38.0909H25.2231V38.9474H25.2743C25.3638 38.6428 25.514 38.4126 25.7249 38.2571C25.9359 38.0994 26.1788 38.0206 26.4536 38.0206C26.5218 38.0206 26.5953 38.0249 26.6741 38.0334C26.753 38.0419 26.8222 38.0536 26.8819 38.0685V39.2766C26.818 39.2575 26.7295 39.2404 26.6166 39.2255C26.5037 39.2106 26.4003 39.2031 26.3066 39.2031C26.1063 39.2031 25.9273 39.2468 25.7697 39.3342C25.6141 39.4194 25.4905 39.5387 25.3989 39.6921C25.3094 39.8455 25.2647 40.0224 25.2647 40.2227V43H23.9032ZM31.6703 39.4908L30.4239 39.5675C30.4026 39.4609 30.3568 39.3651 30.2864 39.2798C30.2161 39.1925 30.1234 39.1232 30.0084 39.0721C29.8955 39.0188 29.7602 38.9922 29.6025 38.9922C29.3916 38.9922 29.2136 39.0369 29.0688 39.1264C28.9239 39.2138 28.8514 39.331 28.8514 39.478C28.8514 39.5952 28.8983 39.6942 28.9921 39.7752C29.0858 39.8562 29.2467 39.9212 29.4747 39.9702L30.3631 40.1491C30.8404 40.2472 31.1962 40.4048 31.4306 40.6222C31.665 40.8395 31.7822 41.125 31.7822 41.4787C31.7822 41.8004 31.6874 42.0827 31.4977 42.3256C31.3102 42.5685 31.0524 42.7582 30.7243 42.8945C30.3983 43.0288 30.0222 43.0959 29.5961 43.0959C28.9462 43.0959 28.4285 42.9606 28.0428 42.69C27.6593 42.4173 27.4345 42.0465 27.3685 41.5778L28.7076 41.5075C28.7481 41.7056 28.8461 41.8569 29.0016 41.9613C29.1572 42.0636 29.3564 42.1147 29.5993 42.1147C29.8379 42.1147 30.0297 42.0689 30.1746 41.9773C30.3216 41.8835 30.3962 41.7631 30.3983 41.6161C30.3962 41.4925 30.344 41.3913 30.2417 41.3125C30.1394 41.2315 29.9818 41.1697 29.7687 41.1271L28.9185 40.9577C28.4391 40.8619 28.0823 40.6957 27.8479 40.4592C27.6156 40.2227 27.4995 39.9212 27.4995 39.5547C27.4995 39.2393 27.5847 38.9677 27.7552 38.7397C27.9278 38.5117 28.1696 38.3359 28.4807 38.2124C28.7939 38.0888 29.1604 38.027 29.5801 38.027C30.2002 38.027 30.6881 38.158 31.0439 38.4201C31.4019 38.6822 31.6107 39.0391 31.6703 39.4908Z" fill="black"/>
<g filter="url(#filter0_i_15_114)">
<path d="M22 36C31.9411 36 40 27.9411 40 18C40 8.05887 31.9411 0 22 0C12.0589 0 4 8.05887 4 18C4 27.9411 12.0589 36 22 36Z" fill="#C21313"/>
</g>
<defs>
<filter id="filter0_i_15_114" x="4" y="0" width="36" height="40" filterUnits="userSpaceOnUse" color-interpolation-filters="sRGB">
<feFlood flood-opacity="0" result="BackgroundImageFix"/>
<feBlend mode="normal" in="SourceGraphic" in2="BackgroundImageFix" result="shape"/>
<feColorMatrix in="SourceAlpha" type="matrix" values="0 0 0 0 0 0 0 0 0 0 0 0 0 0 0 0 0 0 127 0" result="hardAlpha"/>
<feOffset dy="4"/>
<feGaussianBlur stdDeviation="2"/>
<feComposite in2="hardAlpha" operator="arithmetic" k2="-1" k3="1"/>
<feColorMatrix type="matrix" values="0 0 0 0 0 0 0 0 0 0 0 0 0 0 0 0 0 0 0.25 0"/>
<feBlend mode="normal" in2="shape" result="effect1_innerShadow_15_114"/>
</filter>
</defs>
</svg>
