<svg width="42" height="45" viewBox="0 0 42 45" fill="none" xmlns="http://www.w3.org/2000/svg">
<path d="M3.04155 36.4545H4.74822L6.55078 40.8523H6.62749L8.43004 36.4545H10.1367V43H8.79439V38.7397H8.74006L7.04616 42.968H6.1321L4.43821 38.7237H4.38388V43H3.04155V36.4545ZM13.4885 43.0959C12.9836 43.0959 12.5489 42.9936 12.1846 42.7891C11.8224 42.5824 11.5432 42.2905 11.3472 41.9134C11.1512 41.5341 11.0532 41.0856 11.0532 40.5678C11.0532 40.0629 11.1512 39.6197 11.3472 39.2383C11.5432 38.8569 11.8192 38.5597 12.175 38.3466C12.5329 38.1335 12.9527 38.027 13.4342 38.027C13.7581 38.027 14.0596 38.0792 14.3387 38.1836C14.6199 38.2859 14.865 38.4403 15.0738 38.647C15.2847 38.8537 15.4488 39.1136 15.566 39.4268C15.6832 39.7379 15.7417 40.1023 15.7417 40.5199V40.8938H11.5965V40.0501H14.4601C14.4601 39.854 14.4175 39.6804 14.3323 39.5291C14.2471 39.3778 14.1288 39.2596 13.9775 39.1744C13.8284 39.087 13.6547 39.0433 13.4566 39.0433C13.2499 39.0433 13.0667 39.0913 12.9069 39.1871C12.7492 39.2809 12.6256 39.4077 12.5361 39.5675C12.4466 39.7251 12.4008 39.9009 12.3987 40.0948V40.897C12.3987 41.1399 12.4434 41.3498 12.5329 41.5266C12.6246 41.7035 12.7535 41.8398 12.9197 41.9357C13.0858 42.0316 13.2829 42.0795 13.5109 42.0795C13.6622 42.0795 13.8007 42.0582 13.9264 42.0156C14.0521 41.973 14.1597 41.9091 14.2492 41.8239C14.3387 41.7386 14.4069 41.6342 14.4537 41.5107L15.713 41.5938C15.6491 41.8963 15.518 42.1605 15.3199 42.3864C15.1238 42.6101 14.8703 42.7848 14.5592 42.9105C14.2503 43.0341 13.8934 43.0959 13.4885 43.0959ZM16.6302 43V38.0909H17.9502V38.9474H18.0013C18.0908 38.6428 18.241 38.4126 18.452 38.2571C18.6629 38.0994 18.9058 38.0206 19.1807 38.0206C19.2488 38.0206 19.3224 38.0249 19.4012 38.0334C19.48 38.0419 19.5493 38.0536 19.6089 38.0685V39.2766C19.545 39.2575 19.4566 39.2404 19.3437 39.2255C19.2307 39.2106 19.1274 39.2031 19.0336 39.2031C18.8334 39.2031 18.6544 39.2468 18.4967 39.3342C18.3412 39.4194 18.2176 39.5387 18.126 39.6921C18.0365 39.8455 17.9917 40.0224 17.9917 40.2227V43H16.6302ZM22.3024 43.0959C21.7995 43.0959 21.367 42.9893 21.0048 42.7763C20.6447 42.5611 20.3677 42.2628 20.1738 41.8814C19.9821 41.5 19.8862 41.0611 19.8862 40.5646C19.8862 40.0618 19.9831 39.6207 20.177 39.2415C20.373 38.8601 20.6511 38.5629 21.0112 38.3498C21.3713 38.1346 21.7995 38.027 22.296 38.027C22.7243 38.027 23.0993 38.1048 23.421 38.2603C23.7427 38.4158 23.9973 38.6342 24.1848 38.9155C24.3723 39.1967 24.4757 39.527 24.4949 39.9062H23.21C23.1738 39.6612 23.0779 39.4641 22.9224 39.315C22.769 39.1637 22.5676 39.0881 22.3184 39.0881C22.1074 39.0881 21.9231 39.1456 21.7654 39.2607C21.6099 39.3736 21.4885 39.5387 21.4011 39.756C21.3137 39.9734 21.2701 40.2365 21.2701 40.5455C21.2701 40.8587 21.3127 41.125 21.3979 41.3445C21.4853 41.5639 21.6078 41.7312 21.7654 41.8462C21.9231 41.9613 22.1074 42.0188 22.3184 42.0188C22.4739 42.0188 22.6135 41.9869 22.737 41.9229C22.8627 41.859 22.9661 41.7663 23.0471 41.6449C23.1301 41.5213 23.1845 41.3732 23.21 41.2006H24.4949C24.4735 41.5756 24.3713 41.9059 24.188 42.1914C24.0069 42.4748 23.7566 42.6964 23.437 42.8562C23.1174 43.016 22.7392 43.0959 22.3024 43.0959ZM28.5146 40.9098V38.0909H29.8762V43H28.569V42.1083H28.5178C28.407 42.396 28.2227 42.6271 27.9649 42.8018C27.7093 42.9766 27.3971 43.0639 27.0285 43.0639C26.7004 43.0639 26.4117 42.9893 26.1624 42.8402C25.9131 42.6911 25.7181 42.479 25.5775 42.2042C25.439 41.9293 25.3687 41.6001 25.3666 41.2166V38.0909H26.7281V40.9737C26.7302 41.2635 26.808 41.4925 26.9614 41.6609C27.1148 41.8292 27.3204 41.9134 27.5782 41.9134C27.7423 41.9134 27.8957 41.8761 28.0384 41.8015C28.1812 41.7248 28.2963 41.6119 28.3836 41.4627C28.4731 41.3136 28.5168 41.1293 28.5146 40.9098ZM30.9652 43V38.0909H32.2852V38.9474H32.3363C32.4258 38.6428 32.576 38.4126 32.7869 38.2571C32.9979 38.0994 33.2408 38.0206 33.5156 38.0206C33.5838 38.0206 33.6573 38.0249 33.7362 38.0334C33.815 38.0419 33.8842 38.0536 33.9439 38.0685V39.2766C33.88 39.2575 33.7915 39.2404 33.6786 39.2255C33.5657 39.2106 33.4624 39.2031 33.3686 39.2031C33.1683 39.2031 32.9893 39.2468 32.8317 39.3342C32.6761 39.4194 32.5526 39.5387 32.4609 39.6921C32.3714 39.8455 32.3267 40.0224 32.3267 40.2227V43H30.9652ZM35.6378 44.8409C35.4652 44.8409 35.3033 44.8271 35.152 44.7994C35.0028 44.7738 34.8793 44.7408 34.7812 44.7003L35.0881 43.6839C35.2479 43.733 35.3917 43.7596 35.5195 43.7638C35.6495 43.7681 35.7614 43.7383 35.8551 43.6744C35.951 43.6104 36.0288 43.5018 36.0884 43.3484L36.1683 43.1406L34.4073 38.0909H35.8391L36.8555 41.696H36.9066L37.9325 38.0909H39.3739L37.4659 43.5305C37.3743 43.7947 37.2496 44.0249 37.092 44.2209C36.9364 44.419 36.7393 44.5714 36.5007 44.6779C36.2621 44.7866 35.9744 44.8409 35.6378 44.8409Z" fill="black"/>
<g filter="url(#filter0_i_15_115)">
<path d="M21 36C30.9411 36 39 27.9411 39 18C39 8.05887 30.9411 0 21 0C11.0589 0 3 8.05887 3 18C3 27.9411 11.0589 36 21 36Z" fill="#888888"/>
</g>
<defs>
<filter id="filter0_i_15_115" x="3" y="0" width="36" height="40" filterUnits="userSpaceOnUse" color-interpolation-filters="sRGB">
<feFlood flood-opacity="0" result="BackgroundImageFix"/>
<feBlend mode="normal" in="SourceGraphic" in2="BackgroundImageFix" result="shape"/>
<feColorMatrix in="SourceAlpha" type="matrix" values="0 0 0 0 0 0 0 0 0 0 0 0 0 0 0 0 0 0 127 0" result="hardAlpha"/>
<feOffset dy="4"/>
<feGaussianBlur stdDeviation="2"/>
<feComposite in2="hardAlpha" operator="arithmetic" k2="-1" k3="1"/>
<feColorMatrix type="matrix" values="0 0 0 0 0 0 0 0 0 0 0 0 0 0 0 0 0 0 0.25 0"/>
<feBlend mode="normal" in2="shape" result="effect1_innerShadow_15_115"/>
</filter>
</defs>
</svg>
