<svg width="36" height="45" viewBox="0 0 36 45" fill="none" xmlns="http://www.w3.org/2000/svg">
<g filter="url(#filter0_i_15_111)">
<circle cx="18" cy="18" r="18" fill="#E7AA35"/>
</g>
<path d="M7.13237 36.4545H8.83904L10.6416 40.8523H10.7183L12.5209 36.4545H14.2275V43H12.8852V38.7397H12.8309L11.137 42.968H10.2229L8.52903 38.7237H8.4747V43H7.13237V36.4545ZM17.5602 43.0959C17.0637 43.0959 16.6344 42.9904 16.2722 42.7795C15.9121 42.5664 15.6341 42.2702 15.438 41.891C15.242 41.5096 15.144 41.0675 15.144 40.5646C15.144 40.0575 15.242 39.6143 15.438 39.2351C15.6341 38.8537 15.9121 38.5575 16.2722 38.3466C16.6344 38.1335 17.0637 38.027 17.5602 38.027C18.0566 38.027 18.4849 38.1335 18.845 38.3466C19.2072 38.5575 19.4863 38.8537 19.6824 39.2351C19.8784 39.6143 19.9764 40.0575 19.9764 40.5646C19.9764 41.0675 19.8784 41.5096 19.6824 41.891C19.4863 42.2702 19.2072 42.5664 18.845 42.7795C18.4849 42.9904 18.0566 43.0959 17.5602 43.0959ZM17.5666 42.0412C17.7924 42.0412 17.981 41.9773 18.1323 41.8494C18.2836 41.7195 18.3975 41.5426 18.4743 41.3189C18.5531 41.0952 18.5925 40.8406 18.5925 40.555C18.5925 40.2695 18.5531 40.0149 18.4743 39.7912C18.3975 39.5675 18.2836 39.3906 18.1323 39.2607C17.981 39.1307 17.7924 39.0657 17.5666 39.0657C17.3386 39.0657 17.1468 39.1307 16.9913 39.2607C16.8379 39.3906 16.7218 39.5675 16.6429 39.7912C16.5662 40.0149 16.5279 40.2695 16.5279 40.555C16.5279 40.8406 16.5662 41.0952 16.6429 41.3189C16.7218 41.5426 16.8379 41.7195 16.9913 41.8494C17.1468 41.9773 17.3386 42.0412 17.5666 42.0412ZM23.0797 43.0959C22.5833 43.0959 22.1539 42.9904 21.7917 42.7795C21.4316 42.5664 21.1536 42.2702 20.9576 41.891C20.7615 41.5096 20.6635 41.0675 20.6635 40.5646C20.6635 40.0575 20.7615 39.6143 20.9576 39.2351C21.1536 38.8537 21.4316 38.5575 21.7917 38.3466C22.1539 38.1335 22.5833 38.027 23.0797 38.027C23.5762 38.027 24.0044 38.1335 24.3645 38.3466C24.7267 38.5575 25.0059 38.8537 25.2019 39.2351C25.3979 39.6143 25.4959 40.0575 25.4959 40.5646C25.4959 41.0675 25.3979 41.5096 25.2019 41.891C25.0059 42.2702 24.7267 42.5664 24.3645 42.7795C24.0044 42.9904 23.5762 43.0959 23.0797 43.0959ZM23.0861 42.0412C23.312 42.0412 23.5005 41.9773 23.6518 41.8494C23.8031 41.7195 23.9171 41.5426 23.9938 41.3189C24.0726 41.0952 24.112 40.8406 24.112 40.555C24.112 40.2695 24.0726 40.0149 23.9938 39.7912C23.9171 39.5675 23.8031 39.3906 23.6518 39.2607C23.5005 39.1307 23.312 39.0657 23.0861 39.0657C22.8581 39.0657 22.6664 39.1307 22.5108 39.2607C22.3574 39.3906 22.2413 39.5675 22.1625 39.7912C22.0858 40.0149 22.0474 40.2695 22.0474 40.555C22.0474 40.8406 22.0858 41.0952 22.1625 41.3189C22.2413 41.5426 22.3574 41.7195 22.5108 41.8494C22.6664 41.9773 22.8581 42.0412 23.0861 42.0412ZM27.7427 40.1619V43H26.3812V38.0909H27.6788V38.957H27.7363C27.845 38.6715 28.0272 38.4457 28.2828 38.2795C28.5385 38.1112 28.8485 38.027 29.2129 38.027C29.5538 38.027 29.851 38.1016 30.1046 38.2507C30.3581 38.3999 30.5552 38.6129 30.6958 38.8899C30.8365 39.1648 30.9068 39.4929 30.9068 39.8743V43H29.5453V40.1172C29.5474 39.8168 29.4707 39.5824 29.3152 39.4141C29.1596 39.2436 28.9455 39.1584 28.6728 39.1584C28.4895 39.1584 28.3276 39.1978 28.187 39.2766C28.0485 39.3555 27.9398 39.4705 27.861 39.6218C27.7843 39.771 27.7449 39.951 27.7427 40.1619Z" fill="black"/>
<defs>
<filter id="filter0_i_15_111" x="0" y="0" width="36" height="40" filterUnits="userSpaceOnUse" color-interpolation-filters="sRGB">
<feFlood flood-opacity="0" result="BackgroundImageFix"/>
<feBlend mode="normal" in="SourceGraphic" in2="BackgroundImageFix" result="shape"/>
<feColorMatrix in="SourceAlpha" type="matrix" values="0 0 0 0 0 0 0 0 0 0 0 0 0 0 0 0 0 0 127 0" result="hardAlpha"/>
<feOffset dy="4"/>
<feGaussianBlur stdDeviation="2"/>
<feComposite in2="hardAlpha" operator="arithmetic" k2="-1" k3="1"/>
<feColorMatrix type="matrix" values="0 0 0 0 0 0 0 0 0 0 0 0 0 0 0 0 0 0 0.25 0"/>
<feBlend mode="normal" in2="shape" result="effect1_innerShadow_15_111"/>
</filter>
</defs>
</svg>
