<svg width="40" height="45" viewBox="0 0 40 45" fill="none" xmlns="http://www.w3.org/2000/svg">
<g filter="url(#filter0_d_4_8)">
<circle cx="20" cy="16" r="16" fill="#E7AA35"/>
</g>
<path d="M7.81374 35.7273H9.71005L11.7129 40.6136H11.7981L13.801 35.7273H15.6973V43H14.2058V38.2663H14.1454L12.2633 42.9645H11.2477L9.36559 38.2486H9.30522V43H7.81374V35.7273ZM19.4002 43.1065C18.8486 43.1065 18.3716 42.9893 17.9691 42.755C17.569 42.5182 17.2601 42.1892 17.0423 41.7678C16.8245 41.344 16.7156 40.8527 16.7156 40.294C16.7156 39.7306 16.8245 39.2382 17.0423 38.8168C17.2601 38.393 17.569 38.0639 17.9691 37.8295C18.3716 37.5928 18.8486 37.4744 19.4002 37.4744C19.9518 37.4744 20.4277 37.5928 20.8278 37.8295C21.2302 38.0639 21.5404 38.393 21.7582 38.8168C21.976 39.2382 22.0849 39.7306 22.0849 40.294C22.0849 40.8527 21.976 41.344 21.7582 41.7678C21.5404 42.1892 21.2302 42.5182 20.8278 42.755C20.4277 42.9893 19.9518 43.1065 19.4002 43.1065ZM19.4073 41.9347C19.6583 41.9347 19.8678 41.8636 20.0359 41.7216C20.204 41.5772 20.3306 41.3807 20.4158 41.1321C20.5034 40.8835 20.5472 40.6006 20.5472 40.2834C20.5472 39.9661 20.5034 39.6832 20.4158 39.4347C20.3306 39.1861 20.204 38.9896 20.0359 38.8452C19.8678 38.7008 19.6583 38.6286 19.4073 38.6286C19.154 38.6286 18.9409 38.7008 18.7681 38.8452C18.5977 38.9896 18.4686 39.1861 18.381 39.4347C18.2958 39.6832 18.2532 39.9661 18.2532 40.2834C18.2532 40.6006 18.2958 40.8835 18.381 41.1321C18.4686 41.3807 18.5977 41.5772 18.7681 41.7216C18.9409 41.8636 19.154 41.9347 19.4073 41.9347ZM25.533 43.1065C24.9814 43.1065 24.5044 42.9893 24.1019 42.755C23.7018 42.5182 23.3929 42.1892 23.1751 41.7678C22.9573 41.344 22.8484 40.8527 22.8484 40.294C22.8484 39.7306 22.9573 39.2382 23.1751 38.8168C23.3929 38.393 23.7018 38.0639 24.1019 37.8295C24.5044 37.5928 24.9814 37.4744 25.533 37.4744C26.0846 37.4744 26.5605 37.5928 26.9606 37.8295C27.363 38.0639 27.6732 38.393 27.891 38.8168C28.1088 39.2382 28.2177 39.7306 28.2177 40.294C28.2177 40.8527 28.1088 41.344 27.891 41.7678C27.6732 42.1892 27.363 42.5182 26.9606 42.755C26.5605 42.9893 26.0846 43.1065 25.533 43.1065ZM25.5401 41.9347C25.7911 41.9347 26.0006 41.8636 26.1687 41.7216C26.3368 41.5772 26.4634 41.3807 26.5487 41.1321C26.6362 40.8835 26.68 40.6006 26.68 40.2834C26.68 39.9661 26.6362 39.6832 26.5487 39.4347C26.4634 39.1861 26.3368 38.9896 26.1687 38.8452C26.0006 38.7008 25.7911 38.6286 25.5401 38.6286C25.2868 38.6286 25.0737 38.7008 24.9009 38.8452C24.7305 38.9896 24.6014 39.1861 24.5138 39.4347C24.4286 39.6832 24.386 39.9661 24.386 40.2834C24.386 40.6006 24.4286 40.8835 24.5138 41.1321C24.6014 41.3807 24.7305 41.5772 24.9009 41.7216C25.0737 41.8636 25.2868 41.9347 25.5401 41.9347ZM30.7141 39.8466V43H29.2013V37.5455H30.6431V38.5078H30.707C30.8278 38.1906 31.0302 37.9396 31.3143 37.755C31.5984 37.5679 31.9428 37.4744 32.3477 37.4744C32.7264 37.4744 33.0567 37.5573 33.3384 37.723C33.6201 37.8887 33.8391 38.1255 33.9954 38.4332C34.1516 38.7386 34.2298 39.1032 34.2298 39.527V43H32.717V39.7969C32.7193 39.4631 32.6341 39.2027 32.4613 39.0156C32.2885 38.8262 32.0505 38.7315 31.7475 38.7315C31.5439 38.7315 31.364 38.7753 31.2077 38.8629C31.0539 38.9505 30.9331 39.0784 30.8455 39.2464C30.7603 39.4122 30.7165 39.6122 30.7141 39.8466Z" fill="black"/>
<defs>
<filter id="filter0_d_4_8" x="0" y="0" width="40" height="40" filterUnits="userSpaceOnUse" color-interpolation-filters="sRGB">
<feFlood flood-opacity="0" result="BackgroundImageFix"/>
<feColorMatrix in="SourceAlpha" type="matrix" values="0 0 0 0 0 0 0 0 0 0 0 0 0 0 0 0 0 0 127 0" result="hardAlpha"/>
<feOffset dy="4"/>
<feGaussianBlur stdDeviation="2"/>
<feComposite in2="hardAlpha" operator="out"/>
<feColorMatrix type="matrix" values="0 0 0 0 0 0 0 0 0 0 0 0 0 0 0 0 0 0 0.25 0"/>
<feBlend mode="normal" in2="BackgroundImageFix" result="effect1_dropShadow_4_8"/>
<feBlend mode="normal" in="SourceGraphic" in2="effect1_dropShadow_4_8" result="shape"/>
</filter>
</defs>
</svg>
