<svg width="42" height="45" viewBox="0 0 42 45" fill="none" xmlns="http://www.w3.org/2000/svg">
<path d="M38.5 18C38.5 27.6649 30.6649 35.5 21 35.5C11.3361 35.5 3.5 27.6648 3.5 18C3.5 8.33614 11.3361 0.5 21 0.5C30.6648 0.5 38.5 8.33612 38.5 18Z" fill="white" stroke="black"/>
<path d="M16.5 16.5C16.5 17.3743 16.2461 18.145 15.8609 18.6843C15.475 19.2245 14.987 19.5 14.5 19.5C14.013 19.5 13.525 19.2245 13.1391 18.6843C12.7539 18.145 12.5 17.3743 12.5 16.5C12.5 15.6257 12.7539 14.855 13.1391 14.3157C13.525 13.7755 14.013 13.5 14.5 13.5C14.987 13.5 15.475 13.7755 15.8609 14.3157C16.2461 14.855 16.5 15.6257 16.5 16.5Z" fill="#664500" stroke="black"/>
<path d="M29.5 16.5C29.5 17.3743 29.2461 18.145 28.8609 18.6843C28.475 19.2245 27.987 19.5 27.5 19.5C27.013 19.5 26.525 19.2245 26.1391 18.6843C25.7539 18.145 25.5 17.3743 25.5 16.5C25.5 15.6257 25.7539 14.855 26.1391 14.3157C26.525 13.7755 27.013 13.5 27.5 13.5C27.987 13.5 28.475 13.7755 28.8609 14.3157C29.2461 14.855 29.5 15.6257 29.5 16.5Z" fill="#664500" stroke="black"/>
<path d="M28 25.5H14C13.7238 25.5 13.5 25.2765 13.5 25C13.5 24.7235 13.7238 24.5 14 24.5H28C28.2769 24.5 28.5 24.7231 28.5 25C28.5 25.2769 28.2769 25.5 28 25.5Z" fill="#664500" stroke="black"/>
</svg>
