<svg width="42" height="45" viewBox="0 0 42 45" fill="none" xmlns="http://www.w3.org/2000/svg">
<path d="M38.5 18C38.5 27.6649 30.6649 35.5 21 35.5C11.3351 35.5 3.5 27.6649 3.5 18C3.5 8.33514 11.3351 0.5 21 0.5C30.6649 0.5 38.5 8.33514 38.5 18Z" fill="white" stroke="black"/>
<path d="M10 23C12.7614 23 15 20.7614 15 18C15 15.2386 12.7614 13 10 13C7.23858 13 5 15.2386 5 18C5 20.7614 7.23858 23 10 23Z" fill="#808080"/>
<path d="M32 23C34.7614 23 37 20.7614 37 18C37 15.2386 34.7614 13 32 13C29.2386 13 27 15.2386 27 18C27 20.7614 29.2386 23 32 23Z" fill="#808080"/>
<path d="M30.335 21.629C30.157 21.468 29.891 21.458 29.7 21.6C29.661 21.629 25.778 24.5 21 24.5C16.234 24.5 12.338 21.629 12.3 21.6C12.109 21.458 11.843 21.47 11.665 21.629C11.488 21.789 11.448 22.053 11.571 22.257C11.7 22.472 14.788 27.5 21 27.5C27.212 27.5 30.301 22.472 30.429 22.257C30.552 22.052 30.513 21.789 30.335 21.629V21.629ZM10.999 15C10.849 15 10.696 14.966 10.553 14.894C10.059 14.647 9.859 14.046 10.106 13.552C10.158 13.448 11.424 11 15 11C18.577 11 19.842 13.449 19.894 13.553C20.141 14.047 19.941 14.648 19.447 14.895C18.955 15.14 18.362 14.944 18.111 14.459C18.068 14.379 17.281 13 15 13C12.683 13 11.901 14.433 11.894 14.447C11.719 14.798 11.366 15 10.999 15V15ZM31.001 15C30.634 15 30.281 14.798 30.105 14.447C30.08 14.401 29.299 13 27 13C24.701 13 23.92 14.401 23.888 14.46C23.628 14.941 23.029 15.13 22.543 14.88C22.058 14.628 21.861 14.041 22.105 13.552C22.157 13.449 23.423 11 27 11C30.577 11 31.843 13.449 31.895 13.553C32.142 14.047 31.942 14.648 31.448 14.895C31.304 14.966 31.151 15 31.001 15V15Z" fill="#664500"/>
</svg>
