<?xml version="1.0" standalone="no"?>
<!DOCTYPE svg PUBLIC "-//W3C//DTD SVG 20010904//EN"
 "http://www.w3.org/TR/2001/REC-SVG-20010904/DTD/svg10.dtd">
<svg version="1.0" xmlns="http://www.w3.org/2000/svg"
 width="512.000000pt" height="512.000000pt" viewBox="0 0 512.000000 512.000000"
 preserveAspectRatio="xMidYMid meet">

<g transform="translate(0.000000,512.000000) scale(0.100000,-0.100000)"
fill="#000000" stroke="none">
<path d="M4082 5085 c-28 -19 -55 -35 -59 -35 -5 0 -30 11 -57 25 -56 28 -86
32 -86 10 0 -8 9 -38 21 -67 l21 -53 -53 -46 c-32 -28 -49 -50 -45 -57 4 -7
35 -12 79 -12 l72 0 35 -62 c20 -35 43 -64 52 -66 15 -3 25 19 54 126 2 7 20
12 41 12 51 0 83 10 83 24 0 6 -23 29 -50 49 l-50 37 7 58 c9 82 9 84 -3 89
-6 2 -34 -12 -62 -32z m43 -50 c-4 -25 -10 -44 -14 -43 -3 2 -18 10 -33 17
-16 8 -28 17 -28 20 1 8 74 60 78 56 2 -2 0 -24 -3 -50z m-163 14 l42 -22 -29
-23 -30 -24 -17 33 c-17 32 -23 57 -13 57 3 0 25 -10 47 -21z m112 -65 c35
-24 37 -28 31 -62 -4 -21 -8 -38 -8 -38 -1 -1 -25 -5 -52 -8 l-50 -7 -22 44
-21 43 31 27 c40 33 44 33 91 1z m-120 -91 c7 -22 5 -23 -43 -23 -28 0 -51 3
-51 8 1 4 17 19 37 35 39 29 43 27 57 -20z m217 26 c36 -25 29 -39 -18 -39
-28 0 -34 3 -29 16 3 9 6 22 6 30 0 19 7 18 41 -7z m-81 -75 c0 -24 -24 -93
-31 -88 -9 5 -49 78 -49 89 0 3 18 5 40 5 22 0 40 -3 40 -6z"/>
<path d="M1258 4850 c-19 -14 -30 -35 -34 -61 -6 -33 -10 -39 -31 -39 -68 0
-134 -72 -141 -153 -5 -67 23 -112 93 -147 28 -14 52 -29 54 -35 2 -5 19 -25
37 -42 31 -32 35 -33 111 -33 47 0 99 7 127 16 43 15 48 15 65 0 86 -78 301
59 301 191 0 63 -23 101 -76 124 -32 15 -44 26 -44 41 0 38 -49 106 -94 133
-52 30 -89 32 -140 4 -37 -20 -39 -20 -75 -3 -59 28 -121 30 -153 4z m130 -20
c23 -10 42 -21 42 -23 0 -3 -7 -18 -15 -33 -21 -40 -19 -80 5 -104 24 -24 43
-25 64 -4 27 26 30 61 8 104 -21 44 -18 51 32 70 39 14 84 -1 124 -43 53 -55
66 -111 28 -121 -77 -19 -116 -108 -50 -114 34 -3 80 34 90 75 8 32 30 29 70
-11 53 -53 46 -111 -22 -186 -64 -71 -160 -102 -208 -67 -17 13 -17 15 -2 45
31 61 12 132 -32 118 -27 -9 -36 -43 -29 -101 6 -41 5 -43 -26 -56 -18 -8 -67
-14 -113 -14 -67 0 -86 4 -103 19 -26 23 -27 46 -3 46 22 1 46 19 61 48 15 29
-2 87 -30 102 -37 20 -66 -12 -83 -92 -8 -34 -18 -35 -63 -7 -63 39 -78 100
-43 170 27 52 74 82 118 74 30 -6 32 -4 32 25 0 35 23 86 42 93 26 11 64 6
106 -13z m90 -113 c-4 -38 -31 -48 -48 -18 -8 16 -7 29 5 58 15 37 16 37 31
15 8 -12 14 -37 12 -55z m215 -77 c-6 -23 -49 -60 -69 -60 -28 0 -5 44 34 64
36 20 41 20 35 -4z m-415 -92 c20 -20 14 -65 -10 -82 -39 -28 -51 -21 -45 24
5 39 21 70 36 70 4 0 12 -5 19 -12z m262 -102 c-5 -15 -14 -24 -20 -21 -14 8
-13 51 2 78 l11 22 9 -26 c5 -16 5 -37 -2 -53z"/>
<path d="M2309 4811 c-31 -31 -36 -59 -17 -94 17 -32 39 -46 73 -46 47 0 85
40 85 89 0 30 -53 80 -85 80 -16 0 -38 -12 -56 -29z m99 -13 c24 -31 23 -57
-2 -83 -14 -14 -32 -25 -41 -25 -28 0 -67 48 -59 73 11 36 25 47 59 47 18 0
37 -6 43 -12z"/>
<path d="M3216 4743 c-3 -3 -6 -22 -6 -42 0 -35 0 -35 -16 -13 -8 12 -22 22
-30 22 -20 0 -18 -10 8 -37 l21 -23 -42 0 c-30 0 -41 -4 -38 -12 2 -8 16 -12
35 -10 38 4 42 -10 7 -28 -26 -14 -33 -30 -14 -30 6 0 24 9 40 21 l29 20 0
-46 c0 -57 23 -58 28 -1 l3 38 25 -23 c31 -29 45 -17 16 14 -30 32 -28 37 14
37 21 0 33 4 29 10 -3 6 -18 10 -33 10 l-27 1 28 17 c15 9 27 22 27 29 0 18
-7 16 -46 -13 l-34 -26 0 40 c0 39 -10 59 -24 45z"/>
<path d="M4710 4360 c-15 -29 -34 -47 -66 -62 -55 -27 -55 -50 2 -62 38 -8 42
-12 55 -54 8 -25 20 -47 27 -50 6 -2 21 17 33 41 16 33 33 50 62 63 55 26 52
40 -15 64 -22 7 -30 19 -39 55 -14 56 -32 57 -59 5z m44 -34 c5 -27 14 -36 44
-48 l37 -14 -36 -12 c-26 -9 -38 -21 -48 -48 -14 -39 -21 -38 -37 9 -7 22 -20
34 -45 43 l-34 12 38 16 c26 11 42 26 49 46 13 39 24 38 32 -4z"/>
<path d="M2560 4259 c-107 -3 -202 -9 -211 -13 -12 -5 -20 -31 -28 -95 -22
-170 -7 -255 45 -266 13 -3 36 -8 52 -12 15 -3 271 -9 568 -12 l542 -6 -717
-567 -716 -566 -85 91 c-219 238 -424 435 -476 459 -24 11 -44 -2 -231 -149
-121 -96 -124 -101 -80 -166 44 -66 186 -230 364 -422 l140 -150 -46 -35 c-25
-20 -134 -103 -241 -185 -280 -213 -617 -485 -673 -542 l-48 -49 148 -187 c81
-102 151 -186 155 -186 3 -1 233 181 510 404 l503 405 19 -22 c56 -69 399
-426 445 -464 29 -24 63 -44 76 -44 44 0 153 96 283 248 62 72 62 73 45 95
-10 13 -116 131 -235 262 -119 132 -218 243 -220 247 -9 20 1105 987 1277
1107 52 37 60 40 63 24 2 -10 -16 -181 -38 -378 -47 -412 -60 -659 -38 -688 8
-11 39 -25 69 -33 76 -21 295 -30 341 -15 34 11 37 15 47 74 50 293 138 1226
148 1568 6 196 5 207 -13 217 -54 29 -1282 65 -1744 51z"/>
<path d="M847 3773 c-4 -3 -7 -34 -7 -69 l0 -62 -65 -31 c-38 -17 -65 -36 -65
-45 0 -10 22 -22 63 -34 l62 -20 3 -71 c4 -88 14 -90 78 -16 l47 55 78 -6 c94
-8 97 -3 44 72 -19 27 -35 53 -35 57 0 4 11 25 25 45 23 34 33 72 19 72 -3 0
-33 -7 -67 -16 l-60 -15 -46 45 c-46 45 -61 53 -74 39z m83 -89 c0 -9 -48 -34
-66 -34 -7 0 -4 87 3 93 8 9 63 -42 63 -59z m140 0 c0 -3 -9 -19 -21 -36 -20
-28 -22 -28 -40 -12 -26 23 -24 31 9 42 32 12 52 14 52 6z m-60 -87 c0 -4 -12
-25 -27 -45 -15 -20 -28 -38 -29 -40 -1 -2 -23 2 -48 9 l-47 12 3 46 c3 44 4
46 48 62 45 17 45 17 73 -9 15 -14 27 -30 27 -35z m-170 -23 c0 -35 -1 -35
-32 -28 -74 15 -77 20 -28 43 25 11 48 21 53 21 4 0 7 -16 7 -36z m226 -39
c15 -20 24 -38 21 -41 -3 -3 -28 -2 -56 3 l-50 8 20 33 c12 17 25 32 29 32 5
0 21 -16 36 -35z m-147 -44 c11 -7 8 -16 -15 -45 -28 -35 -29 -35 -36 -14 -13
48 -9 68 15 68 12 0 28 -4 36 -9z"/>
<path d="M4752 3647 c-50 -53 -13 -137 59 -137 47 0 79 34 79 81 0 71 -90 107
-138 56z m108 -29 c13 -25 13 -31 0 -55 -30 -53 -110 -34 -110 25 0 63 79 84
110 30z"/>
<path d="M1865 3575 c-54 -53 -13 -145 64 -145 30 0 70 40 77 77 5 27 1 37
-24 63 -39 38 -83 40 -117 5z m93 -11 c26 -18 30 -75 7 -94 -24 -20 -67 -15
-87 10 -24 30 -23 46 7 75 28 29 42 31 73 9z"/>
<path d="M463 2850 c-27 -11 -49 -44 -58 -88 -4 -18 -11 -30 -16 -26 -18 11
-78 -18 -108 -51 -40 -46 -56 -107 -42 -157 13 -42 67 -92 118 -109 18 -6 33
-16 33 -23 0 -7 14 -25 31 -42 29 -28 34 -29 122 -29 68 1 101 6 125 18 32 17
34 17 59 -3 53 -42 157 -16 230 57 98 98 96 212 -6 259 -30 14 -42 27 -47 49
-25 115 -153 182 -238 126 -29 -19 -30 -19 -67 -1 -46 24 -107 33 -136 20z
m132 -44 c24 -16 25 -18 10 -39 -20 -28 -19 -91 1 -111 8 -9 26 -16 39 -16 44
0 59 64 29 122 -14 28 -14 32 0 47 11 10 34 16 66 16 44 0 54 -4 85 -36 20
-19 42 -53 50 -75 l13 -39 -37 -16 c-42 -19 -83 -64 -79 -87 11 -54 95 -29
124 36 19 45 31 45 76 4 37 -34 43 -72 20 -124 -45 -102 -186 -179 -247 -134
-18 13 -18 15 -1 56 18 46 14 91 -10 111 -35 29 -76 -57 -55 -114 10 -26 9
-29 -22 -41 -85 -35 -201 -27 -231 16 -15 20 -13 22 23 39 21 9 41 24 44 34
22 57 -10 123 -55 112 -26 -7 -58 -65 -58 -107 0 -25 -7 -25 -50 1 -50 30 -70
58 -70 102 0 84 59 151 128 145 33 -3 37 0 40 22 9 85 28 104 93 98 26 -3 59
-13 74 -22z m63 -61 c16 -35 15 -60 -3 -75 -12 -10 -18 -10 -30 0 -17 14 -19
38 -5 74 12 33 24 33 38 1z m222 -114 c0 -18 -42 -61 -61 -61 -26 0 -24 16 7
45 27 25 54 33 54 16z m-400 -139 c0 -24 -31 -52 -57 -52 -22 0 -24 3 -18 33
4 17 14 43 22 56 l16 25 18 -23 c11 -13 19 -30 19 -39z m248 -34 c-4 -55 -28
-64 -28 -10 0 21 3 42 7 45 16 17 24 4 21 -35z"/>
<path d="M4678 2645 c-26 -19 -52 -35 -57 -35 -6 0 -31 11 -57 25 -85 45 -102
29 -63 -62 l20 -48 -23 -20 c-13 -11 -39 -32 -58 -48 -46 -36 -30 -47 66 -47
l71 0 17 -38 c10 -21 28 -52 41 -68 29 -36 40 -28 65 52 l18 59 56 6 c31 4 60
9 63 13 8 8 -34 53 -70 74 -28 17 -28 17 -21 94 8 92 3 95 -68 43z m46 -42
c-3 -27 -8 -50 -10 -51 -4 -5 -64 31 -64 39 0 5 71 59 78 59 2 0 0 -21 -4 -47z
m-163 6 c23 -11 39 -21 37 -22 -1 -1 -15 -13 -30 -26 l-27 -23 -15 37 c-26 62
-24 65 35 34z m112 -65 c35 -23 37 -28 31 -62 -4 -20 -7 -38 -8 -38 0 -1 -25
-4 -54 -6 l-54 -5 -18 41 -18 41 31 28 c38 33 43 33 90 1z m-128 -74 c8 -16
15 -31 15 -35 0 -3 -22 -5 -50 -5 -27 0 -50 3 -50 7 0 5 60 61 67 63 1 0 9
-13 18 -30z m225 8 c33 -24 25 -38 -22 -38 -30 0 -31 2 -22 38 8 27 8 27 44 0z
m-86 -95 c-10 -39 -24 -76 -28 -72 -2 2 -15 25 -30 52 l-28 47 46 0 c46 0 46
-1 40 -27z"/>
<path d="M3259 2358 c-15 -32 -34 -51 -67 -68 -25 -14 -46 -29 -46 -35 -1 -5
20 -16 46 -24 43 -13 47 -17 57 -58 14 -55 35 -56 62 0 15 31 31 47 60 59 21
9 39 22 39 28 0 6 -18 19 -40 27 -34 14 -41 22 -52 61 -7 25 -19 47 -25 49 -7
3 -22 -15 -34 -39z m45 -51 c3 -10 20 -24 36 -30 37 -14 38 -23 5 -31 -16 -4
-32 -20 -42 -41 -21 -44 -30 -44 -39 0 -5 29 -11 35 -40 41 -43 8 -43 16 2 37
23 11 39 28 46 49 12 34 14 32 32 -25z"/>
<path d="M342 1871 c-13 -31 -28 -45 -65 -62 -59 -28 -59 -50 -1 -63 38 -8 42
-12 55 -54 8 -25 20 -47 27 -50 6 -2 21 17 33 41 16 33 33 50 62 63 55 26 52
40 -15 64 -22 7 -30 19 -39 55 -14 56 -35 58 -57 6z m42 -35 c6 -29 13 -37 44
-47 l37 -12 -32 -14 c-20 -8 -40 -27 -52 -50 -17 -33 -20 -36 -26 -18 -17 52
-25 62 -56 72 l-34 10 38 17 c26 11 42 27 49 46 13 39 24 38 32 -4z"/>
<path d="M3471 1786 c-12 -13 -26 -40 -32 -60 -8 -30 -14 -36 -36 -36 -53 0
-113 -59 -134 -132 -19 -69 32 -149 113 -178 21 -8 39 -24 47 -42 19 -43 58
-58 148 -58 55 0 90 6 119 19 41 19 42 19 63 -3 16 -16 33 -21 69 -20 109 2
232 119 232 223 0 47 -36 96 -86 117 -25 10 -33 21 -38 49 -8 40 -64 108 -107
131 -39 19 -78 18 -124 -6 l-40 -20 -47 20 c-64 28 -119 26 -147 -4z m137 -16
l43 -19 -16 -30 c-21 -41 -19 -87 5 -111 24 -24 29 -24 58 -4 26 18 30 74 7
114 -20 35 -19 36 20 55 45 21 85 13 130 -26 34 -30 70 -103 60 -120 -4 -5
-12 -9 -20 -9 -17 0 -72 -46 -85 -70 -15 -28 -2 -50 30 -50 34 0 74 30 90 70
16 38 31 38 72 1 28 -25 33 -36 33 -74 0 -87 -98 -186 -192 -194 -32 -3 -54 0
-67 10 -19 14 -19 15 -1 52 23 50 12 108 -23 113 -33 5 -57 -54 -43 -106 8
-27 7 -38 -2 -44 -28 -19 -96 -30 -156 -26 -55 4 -67 8 -89 33 l-25 29 28 8
c44 11 65 37 65 78 0 35 -28 80 -51 80 -22 0 -57 -49 -64 -88 -7 -46 -13 -49
-55 -27 -87 45 -95 151 -15 225 21 19 37 25 71 24 l44 -1 0 39 c0 28 7 46 25
63 29 30 65 32 123 5z m92 -111 c0 -33 -22 -48 -45 -29 -18 15 -19 40 -3 76
l12 26 18 -22 c10 -12 18 -35 18 -51z m210 -74 c0 -20 -45 -65 -65 -65 -25 0
-17 26 16 54 35 30 49 33 49 11z m-410 -106 c15 -27 5 -66 -21 -79 -34 -19
-48 -6 -39 32 17 72 38 89 60 47z m260 -58 c0 -37 -10 -62 -21 -55 -10 6 -12
67 -2 77 14 15 23 6 23 -22z"/>
<path d="M4468 1664 c-5 -4 -8 -23 -8 -42 l0 -35 -25 23 c-32 30 -46 18 -16
-14 l23 -25 -43 -3 c-53 -4 -54 -21 -3 -28 l37 -5 -26 -14 c-15 -8 -27 -20
-27 -28 0 -18 7 -17 46 13 l34 26 0 -46 c0 -25 5 -46 10 -46 6 0 10 19 10 42
l0 42 29 -28 c34 -33 50 -20 20 18 -20 26 -20 26 -1 26 29 0 53 11 46 21 -3 5
-15 9 -27 9 l-22 1 23 18 c41 35 15 45 -28 11 -14 -11 -28 -20 -32 -20 -4 0
-8 21 -10 46 -2 25 -6 42 -10 38z"/>
<path d="M1987 1443 c-4 -3 -7 -22 -7 -41 l0 -35 -25 23 c-31 29 -46 18 -17
-13 12 -13 22 -26 22 -30 0 -4 -21 -7 -46 -7 -27 0 -43 -4 -39 -10 3 -5 23
-10 43 -10 l37 0 -30 -24 c-38 -31 -26 -45 13 -17 17 12 33 21 36 21 3 0 6
-18 6 -40 0 -22 5 -40 10 -40 6 0 10 19 10 42 l0 42 30 -29 c37 -35 50 -27 21
14 l-21 30 32 3 c37 3 41 20 6 29 l-23 5 23 12 c23 13 30 32 11 32 -6 0 -22
-9 -36 -20 -36 -28 -46 -25 -40 13 5 34 -4 63 -16 50z"/>
<path d="M595 1240 c-29 -11 -44 -32 -51 -68 -5 -26 -1 -36 24 -62 39 -38 83
-40 117 -5 42 41 31 105 -22 133 -25 14 -40 14 -68 2z m81 -45 c21 -31 15 -53
-19 -79 -26 -19 -30 -19 -55 -5 -30 16 -40 56 -22 89 16 30 74 28 96 -5z"/>
<path d="M2735 998 c-30 -17 -44 -40 -45 -71 0 -37 49 -87 85 -87 16 0 38 12
56 29 17 18 29 40 29 56 0 33 -50 85 -82 85 -13 0 -32 -6 -43 -12z m75 -26
c26 -21 30 -66 7 -89 -23 -23 -68 -19 -89 7 -24 30 -23 46 7 75 29 30 45 31
75 7z"/>
<path d="M3476 608 c-3 -7 -7 -107 -9 -223 -5 -210 -20 -308 -47 -325 -18 -11
-49 0 -61 22 -6 12 -13 120 -16 254 -5 172 -10 239 -19 252 -10 12 -16 14 -21
6 -5 -7 -6 -122 -2 -255 4 -210 8 -249 24 -281 38 -76 111 -73 145 5 28 63 38
151 42 362 3 174 2 190 -15 193 -9 2 -19 -2 -21 -10z"/>
<path d="M1254 602 c-29 -20 -44 -59 -44 -118 0 -53 6 -74 48 -155 42 -84 47
-101 47 -160 0 -87 -17 -119 -62 -119 -27 0 -34 -4 -31 -17 4 -24 53 -29 84
-8 36 23 54 74 54 149 0 57 -5 74 -50 162 -38 75 -50 108 -50 144 0 54 23 94
50 85 23 -7 35 11 20 30 -13 16 -48 20 -66 7z"/>
<path d="M1496 578 c-30 -211 -42 -284 -68 -406 -23 -105 -28 -146 -20 -154
20 -20 39 9 51 74 6 33 12 62 13 64 2 1 22 0 45 -3 44 -6 53 -18 53 -80 0 -44
9 -63 30 -63 29 0 30 11 16 101 -8 46 -22 163 -31 259 -21 225 -24 234 -57
238 -24 3 -27 -1 -32 -30z m50 -270 l7 -128 -32 0 c-19 0 -34 6 -37 15 -4 8 4
79 17 157 27 165 35 158 45 -44z"/>
<path d="M2686 578 c-30 -211 -42 -284 -68 -406 -23 -105 -28 -146 -20 -154
20 -20 39 9 51 74 6 33 12 62 13 64 2 1 22 0 45 -3 44 -6 53 -18 53 -80 0 -44
9 -63 30 -63 29 0 30 11 16 101 -8 46 -22 163 -31 259 -21 225 -24 234 -57
238 -24 3 -27 -1 -32 -30z m50 -270 l7 -128 -32 0 c-19 0 -34 6 -38 16 -3 8 5
79 17 157 28 166 36 158 46 -45z"/>
<path d="M2871 591 c-7 -12 -7 -89 -1 -227 5 -115 10 -242 10 -281 0 -64 2
-73 18 -73 18 0 19 9 14 152 -2 84 -1 150 3 146 4 -4 20 -64 36 -134 27 -120
48 -174 69 -174 21 0 19 23 -9 107 -16 48 -35 120 -41 158 -12 66 -11 74 9
113 15 29 21 60 21 104 0 76 -16 103 -68 118 -49 13 -50 13 -61 -9z m83 -63
c11 -44 -7 -140 -30 -158 -12 -11 -14 2 -14 95 0 96 2 106 18 103 10 -2 21
-18 26 -40z"/>
<path d="M3601 585 c-48 -61 -41 -132 26 -265 41 -80 48 -103 47 -150 -1 -75
-21 -114 -59 -118 -41 -5 -55 -20 -32 -36 41 -31 109 16 128 88 18 66 4 139
-46 234 -53 101 -61 134 -43 187 11 32 18 40 38 40 18 0 25 5 25 20 0 33 -57
33 -84 0z"/>
<path d="M1731 575 c-51 -44 -64 -107 -59 -303 4 -178 12 -213 60 -246 43 -30
140 -10 152 31 2 10 6 63 8 118 l3 100 -58 3 c-52 3 -58 1 -55 -15 2 -12 14
-19 37 -21 l34 -3 -7 -72 c-8 -87 -26 -120 -59 -108 -12 4 -31 23 -42 42 -38
65 -31 350 11 431 11 21 22 28 45 28 24 0 30 4 27 18 -5 29 -60 27 -97 -3z"/>
<path d="M1937 594 c-13 -14 7 -34 34 -34 l29 0 0 -241 c0 -237 0 -241 -22
-260 -20 -16 -21 -20 -8 -29 19 -12 120 -13 139 -1 23 15 5 41 -29 41 l-30 0
0 245 0 245 24 0 c25 0 51 22 39 33 -8 9 -167 9 -176 1z"/>
<path d="M2150 586 c0 -8 16 -18 38 -23 26 -6 38 -14 39 -28 1 -11 7 -129 14
-263 7 -133 16 -245 22 -249 5 -3 15 1 22 8 10 11 11 40 5 139 -5 69 -12 185
-16 259 -7 127 -6 134 11 127 23 -9 55 2 55 19 0 20 -24 25 -111 25 -61 0 -79
-3 -79 -14z"/>
<path d="M2366 591 c-8 -12 25 -31 52 -31 21 0 26 -43 39 -366 5 -129 9 -167
20 -171 35 -14 37 12 20 254 -22 309 -24 284 16 281 26 -3 32 1 32 17 0 18 -8
20 -87 23 -49 2 -89 -1 -92 -7z"/>
<path d="M3070 580 c0 -16 7 -20 30 -20 l30 0 0 -207 c0 -115 3 -225 6 -246 5
-29 3 -37 -8 -37 -9 0 -21 -6 -27 -14 -20 -24 11 -37 81 -34 57 3 63 5 66 25
3 20 -1 23 -32 23 l-36 0 0 245 0 245 23 0 c29 0 51 15 43 29 -4 7 -40 11 -92
11 -77 0 -84 -2 -84 -20z"/>
</g>
</svg>
