<svg width="42" height="45" viewBox="0 0 42 45" fill="none" xmlns="http://www.w3.org/2000/svg">
<path d="M10.3716 38.337C10.3461 38.0792 10.2363 37.8789 10.0424 37.7362C9.84854 37.5934 9.5854 37.522 9.25302 37.522C9.02717 37.522 8.83647 37.554 8.68093 37.6179C8.52539 37.6797 8.40607 37.766 8.32298 37.8768C8.24201 37.9876 8.20153 38.1133 8.20153 38.2539C8.19727 38.3711 8.22177 38.4734 8.27504 38.5607C8.33043 38.6481 8.40607 38.7237 8.50195 38.7876C8.59783 38.8494 8.70863 38.9038 8.83434 38.9506C8.96005 38.9954 9.09428 39.0337 9.23704 39.0657L9.82511 39.2063C10.1106 39.2702 10.3727 39.3555 10.6113 39.462C10.85 39.5685 11.0566 39.6996 11.2314 39.8551C11.4061 40.0107 11.5414 40.1939 11.6373 40.4048C11.7353 40.6158 11.7853 40.8576 11.7875 41.1303C11.7853 41.5309 11.6831 41.8782 11.4806 42.1722C11.2804 42.4641 10.9906 42.6911 10.6113 42.853C10.2342 43.0128 9.7793 43.0927 9.24663 43.0927C8.71822 43.0927 8.25799 43.0117 7.86594 42.8498C7.47603 42.6879 7.17134 42.4482 6.95188 42.1307C6.73455 41.8111 6.62056 41.4158 6.60991 40.945H7.94904C7.96396 41.1644 8.02681 41.3477 8.13761 41.4947C8.25053 41.6396 8.40075 41.7493 8.58825 41.8239C8.77788 41.8963 8.99201 41.9325 9.23065 41.9325C9.46502 41.9325 9.6685 41.8984 9.84109 41.8303C10.0158 41.7621 10.1511 41.6673 10.247 41.5458C10.3429 41.4244 10.3908 41.2848 10.3908 41.1271C10.3908 40.9801 10.3471 40.8565 10.2598 40.7564C10.1745 40.6562 10.0488 40.571 9.88263 40.5007C9.71857 40.4304 9.51722 40.3665 9.27859 40.3089L8.56587 40.13C8.01403 39.9957 7.5783 39.7859 7.2587 39.5004C6.9391 39.2148 6.78036 38.8303 6.78249 38.3466C6.78036 37.9503 6.88583 37.604 7.0989 37.3079C7.3141 37.0117 7.6092 36.7805 7.9842 36.6143C8.3592 36.4482 8.78533 36.3651 9.26261 36.3651C9.7484 36.3651 10.1724 36.4482 10.5346 36.6143C10.899 36.7805 11.1824 37.0117 11.3848 37.3079C11.5872 37.604 11.6916 37.9471 11.698 38.337H10.3716ZM14.0926 43.0927C13.7794 43.0927 13.5003 43.0384 13.2552 42.9297C13.0102 42.8189 12.8163 42.6559 12.6736 42.4407C12.5329 42.2234 12.4626 41.9528 12.4626 41.6289C12.4626 41.3562 12.5127 41.1271 12.6128 40.9418C12.713 40.7564 12.8493 40.6072 13.0219 40.4943C13.1945 40.3814 13.3905 40.2962 13.61 40.2386C13.8316 40.1811 14.0638 40.1406 14.3067 40.1172C14.5922 40.0874 14.8224 40.0597 14.9971 40.0341C15.1718 40.0064 15.2986 39.9659 15.3774 39.9126C15.4562 39.8594 15.4957 39.7805 15.4957 39.6761V39.657C15.4957 39.4545 15.4317 39.2979 15.3039 39.1871C15.1782 39.0763 14.9992 39.021 14.767 39.021C14.5219 39.021 14.327 39.0753 14.1821 39.1839C14.0372 39.2905 13.9413 39.4247 13.8944 39.5866L12.6352 39.4844C12.6991 39.1861 12.8248 38.9283 13.0123 38.7109C13.1998 38.4915 13.4417 38.3232 13.7378 38.206C14.0361 38.0866 14.3813 38.027 14.7733 38.027C15.0461 38.027 15.3071 38.0589 15.5564 38.1229C15.8078 38.1868 16.0305 38.2859 16.2243 38.4201C16.4204 38.5543 16.5748 38.7269 16.6878 38.9379C16.8007 39.1467 16.8572 39.397 16.8572 39.6889V43H15.566V42.3192H15.5276C15.4488 42.4727 15.3433 42.608 15.2112 42.7251C15.0791 42.8402 14.9204 42.9308 14.735 42.9968C14.5496 43.0607 14.3355 43.0927 14.0926 43.0927ZM14.4825 42.1531C14.6828 42.1531 14.8596 42.1136 15.0131 42.0348C15.1665 41.9538 15.2868 41.8452 15.3742 41.7088C15.4616 41.5724 15.5052 41.418 15.5052 41.2454V40.7244C15.4626 40.7521 15.404 40.7777 15.3295 40.8011C15.257 40.8224 15.175 40.8427 15.0834 40.8619C14.9917 40.8789 14.9001 40.8949 14.8085 40.9098C14.7169 40.9226 14.6338 40.9343 14.5592 40.945C14.3994 40.9684 14.2599 41.0057 14.1405 41.0568C14.0212 41.108 13.9285 41.1772 13.8625 41.2646C13.7964 41.3498 13.7634 41.4563 13.7634 41.5842C13.7634 41.7695 13.8305 41.9112 13.9648 42.0092C14.1011 42.1051 14.2737 42.1531 14.4825 42.1531ZM20.5246 38.0909V39.1136H17.5683V38.0909H20.5246ZM18.2394 36.9148H19.6009V41.4915C19.6009 41.6172 19.6201 41.7152 19.6585 41.7855C19.6968 41.8537 19.7501 41.9016 19.8183 41.9293C19.8886 41.957 19.9695 41.9709 20.0612 41.9709C20.1251 41.9709 20.189 41.9656 20.2529 41.9549C20.3169 41.9421 20.3659 41.9325 20.3999 41.9261L20.6141 42.9393C20.5459 42.9606 20.45 42.9851 20.3264 43.0128C20.2029 43.0426 20.0526 43.0607 19.8758 43.0671C19.5477 43.0799 19.26 43.0362 19.0129 42.9361C18.7678 42.8359 18.5771 42.6804 18.4408 42.4695C18.3044 42.2585 18.2373 41.9922 18.2394 41.6705V36.9148ZM24.5596 40.9098V38.0909H25.9211V43H24.6139V42.1083H24.5628C24.452 42.396 24.2677 42.6271 24.0099 42.8018C23.7542 42.9766 23.442 43.0639 23.0734 43.0639C22.7453 43.0639 22.4566 42.9893 22.2073 42.8402C21.958 42.6911 21.7631 42.479 21.6224 42.2042C21.4839 41.9293 21.4136 41.6001 21.4115 41.2166V38.0909H22.773V40.9737C22.7751 41.2635 22.8529 41.4925 23.0063 41.6609C23.1597 41.8292 23.3653 41.9134 23.6231 41.9134C23.7872 41.9134 23.9406 41.8761 24.0834 41.8015C24.2261 41.7248 24.3412 41.6119 24.4285 41.4627C24.518 41.3136 24.5617 41.1293 24.5596 40.9098ZM27.0101 43V38.0909H28.3301V38.9474H28.3812C28.4707 38.6428 28.6209 38.4126 28.8319 38.2571C29.0428 38.0994 29.2857 38.0206 29.5605 38.0206C29.6287 38.0206 29.7022 38.0249 29.7811 38.0334C29.8599 38.0419 29.9292 38.0536 29.9888 38.0685V39.2766C29.9249 39.2575 29.8365 39.2404 29.7235 39.2255C29.6106 39.2106 29.5073 39.2031 29.4135 39.2031C29.2132 39.2031 29.0343 39.2468 28.8766 39.3342C28.7211 39.4194 28.5975 39.5387 28.5059 39.6921C28.4164 39.8455 28.3716 40.0224 28.3716 40.2227V43H27.0101ZM32.0542 40.1619V43H30.6927V38.0909H31.9903V38.957H32.0479C32.1565 38.6715 32.3387 38.4457 32.5944 38.2795C32.8501 38.1112 33.1601 38.027 33.5244 38.027C33.8653 38.027 34.1626 38.1016 34.4161 38.2507C34.6697 38.3999 34.8667 38.6129 35.0074 38.8899C35.148 39.1648 35.2183 39.4929 35.2183 39.8743V43H33.8568V40.1172C33.8589 39.8168 33.7822 39.5824 33.6267 39.4141C33.4711 39.2436 33.257 39.1584 32.9843 39.1584C32.801 39.1584 32.6391 39.1978 32.4985 39.2766C32.36 39.3555 32.2513 39.4705 32.1725 39.6218C32.0958 39.771 32.0564 39.951 32.0542 40.1619Z" fill="black"/>
<g filter="url(#filter0_i_15_116)">
<path d="M21 36C30.9411 36 39 27.9411 39 18C39 8.05887 30.9411 0 21 0C11.0589 0 3 8.05887 3 18C3 27.9411 11.0589 36 21 36Z" fill="#7F9DCB"/>
</g>
<defs>
<filter id="filter0_i_15_116" x="3" y="0" width="36" height="40" filterUnits="userSpaceOnUse" color-interpolation-filters="sRGB">
<feFlood flood-opacity="0" result="BackgroundImageFix"/>
<feBlend mode="normal" in="SourceGraphic" in2="BackgroundImageFix" result="shape"/>
<feColorMatrix in="SourceAlpha" type="matrix" values="0 0 0 0 0 0 0 0 0 0 0 0 0 0 0 0 0 0 127 0" result="hardAlpha"/>
<feOffset dy="4"/>
<feGaussianBlur stdDeviation="2"/>
<feComposite in2="hardAlpha" operator="arithmetic" k2="-1" k3="1"/>
<feColorMatrix type="matrix" values="0 0 0 0 0 0 0 0 0 0 0 0 0 0 0 0 0 0 0.25 0"/>
<feBlend mode="normal" in2="shape" result="effect1_innerShadow_15_116"/>
</filter>
</defs>
</svg>
