<?xml version="1.0" standalone="no"?>
<!DOCTYPE svg PUBLIC "-//W3C//DTD SVG 20010904//EN"
 "http://www.w3.org/TR/2001/REC-SVG-20010904/DTD/svg10.dtd">
<svg version="1.0" xmlns="http://www.w3.org/2000/svg"
 width="512.000000pt" height="512.000000pt" viewBox="0 0 512.000000 512.000000"
 preserveAspectRatio="xMidYMid meet">

<g transform="translate(0.000000,512.000000) scale(0.100000,-0.100000)"
fill="#000000" stroke="none">
<path d="M2125 4869 l-40 -41 -62 6 c-74 6 -78 0 -37 -71 l27 -45 -22 -52
c-29 -72 -28 -80 12 -71 93 20 100 19 136 -19 50 -51 71 -48 71 10 0 59 10 76
65 108 25 15 45 33 45 40 0 7 -24 22 -52 33 -53 20 -53 20 -67 81 -8 34 -20
62 -26 62 -6 0 -29 -18 -50 -41z"/>
<path d="M2573 4215 c-102 -22 -189 -71 -267 -150 l-69 -70 -51 48 c-63 60
-160 118 -246 148 -94 33 -288 34 -375 1 -77 -29 -156 -82 -217 -145 l-48 -50
-36 29 c-68 54 -119 84 -184 106 -123 43 -331 24 -427 -39 -76 -50 -67 -185
14 -226 15 -8 67 -17 115 -19 116 -6 170 -33 215 -107 62 -103 67 -150 64
-581 -3 -547 20 -994 70 -1355 12 -82 28 -165 36 -182 44 -95 199 -97 248 -3
32 61 75 441 96 841 15 288 6 999 -13 1089 -14 63 -14 67 10 115 36 74 77 121
125 144 111 54 223 -1 292 -143 64 -132 67 -150 75 -601 11 -544 33 -913 76
-1255 20 -165 29 -194 64 -224 56 -46 124 -47 179 -1 39 34 46 59 70 260 65
536 93 1500 50 1716 -12 65 -12 67 15 113 36 62 82 114 117 132 39 19 126 17
174 -5 74 -33 132 -120 171 -256 16 -54 18 -126 18 -740 1 -738 5 -805 61
-1026 116 -461 419 -731 820 -730 207 0 366 61 495 191 85 85 129 159 159 270
38 138 22 361 -34 470 -22 43 -70 70 -125 70 -58 0 -101 -27 -125 -76 -16 -34
-17 -47 -6 -133 14 -111 5 -176 -35 -258 -47 -97 -127 -144 -255 -151 -292
-15 -452 149 -510 523 -16 99 -16 498 0 720 45 634 28 901 -73 1120 -144 311
-444 483 -733 420z m369 -219 c65 -31 151 -113 197 -190 46 -77 97 -230 117
-351 19 -116 21 -373 5 -510 -26 -211 -40 -255 -76 -241 -13 4 -15 36 -15 208
0 379 -43 675 -122 833 -55 110 -147 194 -236 217 -48 12 -61 30 -41 54 19 23
101 13 171 -20z"/>
<path d="M4704 3195 c-43 -63 -61 -75 -109 -75 -25 0 -45 -5 -45 -11 0 -5 14
-28 32 -50 31 -39 32 -40 19 -90 -7 -28 -10 -53 -7 -56 4 -4 29 3 55 14 l49
21 39 -24 c57 -35 63 -32 63 30 0 52 2 56 43 90 47 40 43 50 -25 61 -41 7 -49
15 -68 65 -19 51 -26 55 -46 25z"/>
<path d="M280 3164 l-56 -34 -62 27 c-38 16 -66 23 -72 17 -5 -5 -2 -36 8 -76
l16 -67 -43 -51 c-54 -64 -50 -80 23 -80 74 0 81 -4 117 -67 20 -35 37 -53 47
-51 9 2 26 29 40 65 l23 61 70 17 c39 10 69 23 69 30 0 6 -22 31 -50 54 l-50
42 0 75 c0 53 -4 74 -12 74 -7 -1 -38 -16 -68 -36z"/>
<path d="M3875 2843 c-85 -45 -100 -80 -129 -315 -45 -357 -59 -688 -32 -751
19 -46 49 -69 98 -74 59 -6 103 23 129 85 28 65 89 270 129 433 l34 137 155
-78 c243 -121 394 -180 461 -180 71 0 128 74 114 147 -8 40 -45 81 -160 174
-170 139 -469 341 -611 413 -61 30 -140 35 -188 9z m268 -223 c149 -75 331
-185 442 -267 80 -59 99 -83 75 -98 -22 -14 -263 114 -470 251 -147 97 -206
146 -196 162 12 19 26 15 149 -48z"/>
<path d="M1403 1189 c-39 -11 -70 -49 -79 -95 -3 -19 -3 -96 1 -171 7 -132 8
-138 35 -165 25 -24 36 -28 87 -28 70 0 100 14 131 60 17 26 22 45 20 80 l-3
45 -42 3 c-42 3 -43 2 -43 -27 0 -31 -22 -61 -45 -61 -32 0 -45 42 -45 147 0
101 0 103 25 109 33 8 53 -9 57 -49 3 -31 5 -32 48 -32 l45 0 0 52 c-1 46 -5
57 -35 88 -19 19 -50 40 -70 45 -40 11 -44 11 -87 -1z"/>
<path d="M1734 1159 c-57 -16 -75 -72 -89 -264 -7 -101 1 -135 40 -161 34 -22
120 -23 162 -1 38 20 55 69 73 211 18 144 4 183 -77 212 -44 15 -65 16 -109 3z
m90 -95 c17 -17 21 -123 8 -199 -9 -51 -46 -75 -87 -57 l-27 13 4 105 c3 101
5 107 31 130 33 28 50 30 71 8z"/>
<path d="M1043 1130 c-59 -35 -80 -117 -48 -180 18 -35 54 -55 113 -63 48 -6
72 -21 72 -46 0 -37 -64 -59 -76 -26 -7 17 -70 21 -93 6 -21 -14 -5 -57 31
-82 42 -31 132 -38 177 -14 42 21 65 74 58 133 -7 65 -70 122 -135 122 -65 0
-87 62 -24 68 22 2 34 -2 38 -12 7 -18 69 -22 93 -7 19 12 -3 75 -36 101 -35
27 -125 28 -170 0z"/>
<path d="M2015 1108 c-4 -18 -25 -115 -47 -216 -22 -101 -38 -185 -36 -188 3
-2 26 -7 51 -10 52 -7 50 -11 67 80 7 34 16 54 21 49 5 -5 17 -42 28 -83 l19
-75 48 -12 c26 -7 50 -10 53 -8 2 3 -10 47 -27 98 -37 107 -37 107 -17 107 52
0 108 66 108 129 0 82 -53 129 -168 150 -88 16 -93 15 -100 -21z m130 -78 c33
0 41 -72 9 -84 -8 -3 -28 -3 -44 1 -23 4 -30 11 -30 30 0 35 19 66 37 59 8 -3
21 -6 28 -6z"/>
<path d="M2342 843 c-40 -109 -72 -203 -72 -210 0 -12 51 -33 80 -33 13 0 25
20 43 68 l25 67 60 -3 c71 -4 114 14 142 61 40 65 17 147 -54 193 -30 20 -119
54 -140 54 -6 0 -44 -89 -84 -197z m183 52 c41 -40 27 -75 -29 -75 -38 0 -58
12 -52 31 21 59 27 69 41 69 9 0 27 -11 40 -25z"/>
<path d="M2640 717 l-97 -202 36 -22 c20 -12 43 -22 51 -22 10 0 49 71 111
197 l96 198 -50 27 -49 26 -98 -202z"/>
<path d="M2863 752 c-44 -44 -148 -222 -158 -270 -6 -29 -2 -37 32 -71 24 -24
55 -44 83 -51 78 -21 109 5 218 180 73 117 62 178 -40 231 -58 30 -92 25 -135
-19z m125 -99 c3 -34 -12 -69 -66 -150 -37 -57 -60 -70 -91 -53 -43 22 -44 45
-7 117 49 98 77 125 124 121 34 -3 37 -6 40 -35z"/>
<path d="M3850 696 l-54 -34 -50 20 c-100 40 -103 38 -79 -54 l17 -65 -43 -51
c-57 -67 -51 -80 35 -84 l68 -3 33 -55 c18 -30 40 -55 49 -55 10 0 25 22 41
62 22 56 29 64 61 73 21 5 44 10 53 10 8 0 24 7 35 15 18 14 17 17 -35 63
l-54 49 2 71 c3 85 -1 87 -79 38z"/>
</g>
</svg>
