<svg width="44" height="49" viewBox="0 0 44 49" fill="none" xmlns="http://www.w3.org/2000/svg">
<g filter="url(#filter0_f_15_110)">
<circle cx="22" cy="22" r="18" fill="#E75F35"/>
</g>
<path d="M16.5723 42.337C16.5467 42.0792 16.437 41.8789 16.2431 41.7362C16.0492 41.5934 15.7861 41.522 15.4537 41.522C15.2278 41.522 15.0372 41.554 14.8816 41.6179C14.7261 41.6797 14.6068 41.766 14.5237 41.8768C14.4427 41.9876 14.4022 42.1133 14.4022 42.2539C14.3979 42.3711 14.4225 42.4734 14.4757 42.5607C14.5311 42.6481 14.6068 42.7237 14.7026 42.7876C14.7985 42.8494 14.9093 42.9038 15.035 42.9506C15.1607 42.9954 15.295 43.0337 15.4377 43.0657L16.0258 43.2063C16.3113 43.2702 16.5734 43.3555 16.812 43.462C17.0506 43.5685 17.2573 43.6996 17.432 43.8551C17.6068 44.0107 17.7421 44.1939 17.8379 44.4048C17.9359 44.6158 17.986 44.8576 17.9881 45.1303C17.986 45.5309 17.8837 45.8782 17.6813 46.1722C17.481 46.4641 17.1913 46.6911 16.812 46.853C16.4349 47.0128 15.98 47.0927 15.4473 47.0927C14.9189 47.0927 14.4587 47.0117 14.0666 46.8498C13.6767 46.6879 13.372 46.4482 13.1526 46.1307C12.9352 45.8111 12.8212 45.4158 12.8106 44.945H14.1497C14.1646 45.1644 14.2275 45.3477 14.3383 45.4947C14.4512 45.6396 14.6014 45.7493 14.7889 45.8239C14.9786 45.8963 15.1927 45.9325 15.4313 45.9325C15.6657 45.9325 15.8692 45.8984 16.0418 45.8303C16.2165 45.7621 16.3518 45.6673 16.4477 45.5458C16.5435 45.4244 16.5915 45.2848 16.5915 45.1271C16.5915 44.9801 16.5478 44.8565 16.4604 44.7564C16.3752 44.6562 16.2495 44.571 16.0833 44.5007C15.9193 44.4304 15.7179 44.3665 15.4793 44.3089L14.7666 44.13C14.2147 43.9957 13.779 43.7859 13.4594 43.5004C13.1398 43.2148 12.981 42.8303 12.9832 42.3466C12.981 41.9503 13.0865 41.604 13.2996 41.3079C13.5148 41.0117 13.8099 40.7805 14.1849 40.6143C14.5599 40.4482 14.986 40.3651 15.4633 40.3651C15.9491 40.3651 16.3731 40.4482 16.7353 40.6143C17.0997 40.7805 17.383 41.0117 17.5854 41.3079C17.7879 41.604 17.8923 41.9471 17.8987 42.337H16.5723ZM22.0415 44.9098V42.0909H23.403V47H22.0958V46.1083H22.0447C21.9339 46.396 21.7496 46.6271 21.4918 46.8018C21.2361 46.9766 20.924 47.0639 20.5554 47.0639C20.2272 47.0639 19.9385 46.9893 19.6892 46.8402C19.4399 46.6911 19.245 46.479 19.1044 46.2042C18.9659 45.9293 18.8956 45.6001 18.8934 45.2166V42.0909H20.2549V44.9737C20.2571 45.2635 20.3348 45.4925 20.4882 45.6609C20.6416 45.8292 20.8473 45.9134 21.1051 45.9134C21.2691 45.9134 21.4225 45.8761 21.5653 45.8015C21.7081 45.7248 21.8231 45.6119 21.9105 45.4627C22 45.3136 22.0436 45.1293 22.0415 44.9098ZM25.8536 44.1619V47H24.4921V42.0909H25.7896V42.957H25.8472C25.9558 42.6715 26.138 42.4457 26.3937 42.2795C26.6494 42.1112 26.9594 42.027 27.3237 42.027C27.6646 42.027 27.9619 42.1016 28.2154 42.2507C28.469 42.3999 28.6661 42.6129 28.8067 42.8899C28.9473 43.1648 29.0176 43.4929 29.0176 43.8743V47H27.6561V44.1172C27.6582 43.8168 27.5815 43.5824 27.426 43.4141C27.2705 43.2436 27.0563 43.1584 26.7836 43.1584C26.6004 43.1584 26.4384 43.1978 26.2978 43.2766C26.1593 43.3555 26.0506 43.4705 25.9718 43.6218C25.8951 43.771 25.8557 43.951 25.8536 44.1619Z" fill="black"/>
<defs>
<filter id="filter0_f_15_110" x="0" y="0" width="44" height="44" filterUnits="userSpaceOnUse" color-interpolation-filters="sRGB">
<feFlood flood-opacity="0" result="BackgroundImageFix"/>
<feBlend mode="normal" in="SourceGraphic" in2="BackgroundImageFix" result="shape"/>
<feGaussianBlur stdDeviation="2" result="effect1_foregroundBlur_15_110"/>
</filter>
</defs>
</svg>
