<?xml version="1.0" standalone="no"?>
<!DOCTYPE svg PUBLIC "-//W3C//DTD SVG 20010904//EN"
 "http://www.w3.org/TR/2001/REC-SVG-20010904/DTD/svg10.dtd">
<svg version="1.0" xmlns="http://www.w3.org/2000/svg"
 width="512.000000pt" height="512.000000pt" viewBox="0 0 512.000000 512.000000"
 preserveAspectRatio="xMidYMid meet">

<g transform="translate(0.000000,512.000000) scale(0.100000,-0.100000)"
fill="#000000" stroke="none">
<path d="M1905 4970 c-47 -10 -74 -32 -96 -78 -38 -77 -1 -156 83 -181 56 -17
68 -28 68 -61 0 -45 -58 -52 -80 -9 -8 14 -21 19 -55 19 -43 0 -45 -1 -45 -30
0 -69 112 -132 194 -109 64 18 107 96 91 167 -8 37 -55 86 -98 102 -54 20 -62
26 -62 51 0 20 6 25 33 27 27 3 34 -1 42 -22 8 -23 15 -26 55 -26 l45 0 0 40
c0 76 -85 129 -175 110z"/>
<path d="M1621 4963 l-24 -5 7 -159 c8 -172 5 -189 -40 -189 -31 0 -38 27 -54
215 -6 65 -15 122 -20 125 -5 3 -26 4 -46 2 l-36 -4 6 -52 c3 -28 8 -107 12
-176 4 -69 10 -135 15 -147 24 -64 159 -87 218 -37 45 38 54 86 46 242 -10
192 -13 199 -84 185z"/>
<path d="M2965 4943 c-3 -10 -13 -60 -20 -112 -8 -51 -16 -96 -19 -98 -2 -2
-22 7 -43 20 -87 55 -185 99 -197 87 -8 -8 18 -39 97 -116 l107 -105 -85 -81
c-89 -84 -131 -135 -121 -145 8 -9 92 29 170 76 38 23 71 39 73 37 3 -2 9 -39
14 -80 11 -87 30 -151 44 -151 11 0 31 84 41 172 3 35 9 63 11 63 3 0 31 -15
62 -34 70 -42 157 -86 171 -86 22 0 7 28 -48 85 -31 33 -78 80 -105 103 l-47
43 37 31 c21 17 68 63 106 102 63 65 81 96 57 96 -15 0 -126 -57 -186 -95
l-50 -32 -12 92 c-16 129 -38 177 -57 128z"/>
<path d="M1160 4933 c-74 -13 -131 -35 -126 -49 3 -8 22 -99 41 -202 20 -103
38 -197 41 -210 4 -20 9 -22 42 -16 69 12 72 17 56 76 -23 89 -19 99 24 53 20
-22 47 -53 58 -69 19 -27 23 -28 72 -21 29 4 52 10 52 15 0 4 -32 43 -71 86
l-70 77 30 24 c76 60 59 183 -33 227 -33 16 -64 18 -116 9z m68 -105 c32 -32
-1 -83 -50 -76 -27 4 -47 66 -26 79 19 13 62 11 76 -3z"/>
<path d="M903 4847 c-18 -5 -33 -15 -33 -21 -1 -6 18 -78 42 -159 44 -153 44
-177 4 -185 -31 -6 -44 18 -93 169 l-48 150 -34 -5 c-19 -3 -38 -9 -43 -14
-15 -15 88 -343 116 -371 55 -55 188 -29 223 44 16 34 16 41 0 120 -21 103
-79 278 -92 281 -5 1 -25 -3 -42 -9z"/>
<path d="M505 4723 c-16 -8 -31 -16 -32 -17 -8 -7 72 -442 83 -455 2 -2 22 4
45 14 l41 19 -7 56 c-6 50 -4 58 12 64 13 5 27 -3 54 -35 32 -37 38 -41 67
-34 17 3 35 11 38 17 3 5 -22 51 -57 101 -99 144 -200 282 -207 284 -4 1 -20
-5 -37 -14z m103 -188 c22 -36 27 -52 19 -57 -31 -20 -39 -9 -63 97 -8 38 3
27 44 -40z"/>
<path d="M271 4615 c-61 -30 -111 -59 -111 -64 0 -6 8 -27 17 -46 15 -31 21
-36 43 -30 61 15 59 17 136 -130 41 -77 75 -144 77 -149 4 -11 50 6 80 29 17
12 14 22 -62 168 l-81 154 35 19 c19 10 35 22 35 26 0 18 -35 78 -45 78 -7 0
-62 -25 -124 -55z"/>
<path d="M1332 4096 c-261 -64 -445 -309 -405 -541 22 -128 73 -185 165 -185
97 0 145 49 157 158 4 38 15 81 24 95 37 58 144 85 206 53 50 -26 88 -82 181
-268 109 -215 155 -290 244 -392 l66 -75 -93 -93 c-218 -218 -318 -472 -304
-773 19 -385 229 -712 562 -875 152 -75 244 -94 450 -95 192 0 273 16 412 80
161 74 313 207 416 362 191 288 229 663 96 973 -58 138 -170 290 -276 375
l-50 40 64 69 c93 101 160 207 258 409 122 253 181 308 296 277 22 -6 56 -26
75 -43 32 -29 36 -40 45 -107 13 -106 57 -158 140 -167 161 -15 232 232 127
445 -99 200 -360 323 -591 278 -147 -29 -271 -109 -370 -238 -30 -40 -98 -144
-150 -230 -143 -238 -211 -315 -333 -376 -89 -45 -228 -46 -320 -2 -119 58
-189 138 -336 384 -156 261 -236 350 -375 420 -106 53 -263 70 -381 42z m1845
-1419 c91 -99 185 -276 213 -403 23 -107 26 -251 5 -347 -21 -100 -87 -217
-171 -305 -64 -67 -73 -73 -93 -63 -29 16 -27 34 15 103 92 151 122 241 131
383 9 160 -40 337 -156 558 -54 103 -55 108 -37 122 24 18 40 10 93 -48z
m-512 8 c356 -75 542 -469 372 -789 -43 -82 -145 -183 -227 -224 -298 -149
-680 2 -791 314 -33 91 -31 225 5 328 50 145 145 255 279 321 124 61 236 76
362 50z"/>
<path d="M5056 3663 c-2 -10 -8 -38 -11 -63 -9 -59 -33 -110 -53 -110 -8 0
-31 18 -50 40 -40 47 -98 80 -142 80 -45 0 -90 -47 -90 -94 0 -66 97 -145 177
-146 17 0 34 -4 37 -9 9 -14 -22 -104 -48 -140 -14 -18 -35 -40 -47 -49 -21
-14 -24 -13 -63 31 -65 74 -147 95 -198 49 -23 -20 -23 -84 -1 -119 17 -26
103 -73 135 -73 30 0 31 -20 3 -61 -28 -43 -75 -69 -123 -69 -16 0 -35 -6 -41
-14 -10 -11 -7 -17 11 -30 70 -49 201 24 235 130 14 45 25 61 64 89 76 55 126
140 144 248 4 24 21 55 49 86 50 56 66 96 69 170 1 37 -2 54 -13 61 -23 15
-38 12 -44 -7z m-199 -143 c54 -33 67 -80 22 -80 -49 0 -108 53 -95 86 7 19
35 17 73 -6z m-177 -325 c17 -9 30 -17 30 -19 0 -3 3 -11 6 -20 4 -12 0 -16
-15 -16 -29 0 -77 25 -84 44 -11 29 18 34 63 11z"/>
<path d="M221 3588 c-5 -29 -13 -72 -16 -96 l-7 -43 -31 21 c-54 36 -156 84
-163 78 -9 -10 56 -87 115 -136 l50 -42 -86 -85 c-46 -46 -82 -89 -78 -94 6
-11 104 33 158 71 16 11 30 19 32 17 2 -2 10 -44 18 -92 9 -49 18 -92 22 -95
12 -12 24 22 36 105 7 46 14 83 16 83 2 0 20 -11 41 -24 75 -47 141 -76 148
-65 3 6 -30 47 -77 93 l-84 83 82 80 c121 116 109 132 -37 48 l-75 -43 -12 74
c-21 131 -35 148 -52 62z"/>
<path d="M664 2835 c-74 -51 -37 -182 67 -236 45 -23 47 -34 16 -77 -30 -40
-66 -68 -109 -87 -43 -17 -53 -11 -67 42 -21 79 -83 128 -152 121 -28 -2 -37
-10 -53 -41 -17 -36 -17 -40 -1 -82 16 -42 41 -70 95 -106 22 -14 23 -18 11
-33 -22 -26 -86 -56 -119 -56 -16 0 -44 5 -61 11 -61 22 -66 -27 -6 -55 77
-37 177 -9 240 68 20 25 46 46 56 46 34 0 124 39 162 71 21 17 56 57 78 90 27
40 53 66 82 80 83 42 152 130 145 187 -5 47 -38 34 -75 -31 -39 -65 -76 -96
-96 -78 -8 6 -19 30 -27 53 -7 24 -21 55 -32 71 -37 52 -111 73 -154 42z m94
-78 c26 -28 43 -79 32 -97 -12 -20 -65 14 -84 54 -29 61 8 90 52 43z m-278
-247 c20 -20 28 -70 11 -70 -31 0 -71 45 -71 80 0 17 39 11 60 -10z"/>
<path d="M4686 2331 c-4 -5 -12 -47 -18 -93 -7 -46 -12 -84 -13 -86 -1 -1 -42
20 -91 48 -49 27 -92 50 -96 50 -23 0 0 -33 73 -106 l80 -81 -80 -78 c-69 -67
-97 -105 -76 -105 9 0 107 51 148 77 22 13 40 23 41 21 1 -2 8 -41 14 -87 7
-47 16 -89 22 -95 14 -14 29 33 36 115 4 38 10 69 13 69 3 0 20 -9 36 -21 32
-21 141 -79 150 -79 20 0 -6 37 -75 105 l-80 80 80 80 c44 44 80 86 80 93 0
16 -50 -5 -130 -53 -32 -19 -60 -35 -64 -35 -3 0 -6 16 -6 35 0 41 -19 137
-30 148 -4 5 -11 4 -14 -2z"/>
<path d="M4430 1470 c-47 -8 -77 -25 -126 -70 -31 -29 -51 -38 -91 -43 -87
-10 -185 -74 -233 -152 -15 -25 -34 -38 -71 -50 -58 -20 -110 -62 -146 -118
-48 -77 0 -124 50 -48 50 75 111 114 121 79 2 -7 10 -35 17 -62 8 -31 26 -63
49 -87 31 -33 43 -39 78 -39 33 0 45 6 67 32 23 28 27 39 22 81 -5 56 -27 89
-85 132 -22 17 -41 34 -41 39 -3 38 120 126 175 126 19 0 24 -8 34 -54 17 -85
70 -136 139 -136 56 0 91 83 60 143 -6 12 -29 41 -52 64 -23 24 -37 48 -34 56
3 7 22 22 42 32 37 17 83 17 158 -1 26 -6 28 -4 25 17 -6 42 -87 73 -158 59z
m-61 -226 c24 -31 28 -74 6 -74 -23 0 -55 41 -55 72 0 36 22 37 49 2z m-318
-174 c36 -20 64 -100 39 -115 -31 -19 -80 39 -80 94 0 33 9 37 41 21z"/>
<path d="M735 1250 c-14 -15 -17 -32 -13 -83 5 -79 32 -125 101 -167 37 -23
53 -42 71 -84 36 -80 96 -140 183 -181 40 -20 73 -39 73 -44 0 -5 20 -32 45
-59 70 -78 205 -119 205 -63 0 23 -13 33 -75 56 -51 19 -100 59 -91 74 4 5 30
23 60 40 87 49 123 119 92 178 -21 42 -66 59 -115 45 -49 -15 -104 -71 -121
-123 -8 -23 -20 -43 -27 -46 -36 -14 -163 100 -163 147 0 10 16 24 39 35 97
43 142 145 88 199 -52 51 -138 19 -188 -69 -17 -30 -34 -55 -38 -55 -10 0 -56
51 -70 77 -6 12 -11 49 -11 82 0 66 -12 77 -45 41z m305 -139 c0 -29 -39 -73
-63 -69 -32 5 -31 25 1 58 34 34 62 39 62 11z m279 -225 c15 -17 5 -40 -31
-72 -33 -30 -67 -39 -74 -20 -8 21 26 78 57 93 31 16 34 16 48 -1z"/>
<path d="M2251 793 c-7 -26 -15 -79 -18 -116 -3 -37 -9 -70 -13 -72 -4 -2 -28
9 -54 25 -66 42 -162 90 -181 90 -31 0 -13 -25 90 -126 l104 -103 -107 -105
c-77 -76 -103 -109 -95 -117 12 -12 123 40 200 92 46 32 53 27 53 -39 0 -33 5
-62 25 -150 3 -12 12 -22 19 -22 13 0 39 117 48 213 l3 27 35 -23 c54 -37 201
-110 207 -103 13 13 -26 63 -115 147 -79 73 -91 89 -77 97 9 5 57 49 106 97
82 82 105 115 79 115 -13 0 -156 -73 -195 -99 -16 -12 -33 -21 -36 -21 -4 0
-9 30 -13 68 -8 84 -29 165 -43 169 -6 2 -16 -18 -22 -44z"/>
</g>
</svg>
