<svg width="42" height="45" viewBox="0 0 42 45" fill="none" xmlns="http://www.w3.org/2000/svg">
<path d="M8.84712 36.4545L10.4292 41.4276H10.4899L12.0751 36.4545H13.6092L11.3528 43H9.56942L7.30984 36.4545H8.84712ZM16.055 43.0959C15.55 43.0959 15.1153 42.9936 14.751 42.7891C14.3888 42.5824 14.1096 42.2905 13.9136 41.9134C13.7176 41.5341 13.6196 41.0856 13.6196 40.5678C13.6196 40.0629 13.7176 39.6197 13.9136 39.2383C14.1096 38.8569 14.3856 38.5597 14.7414 38.3466C15.0993 38.1335 15.5191 38.027 16.0006 38.027C16.3245 38.027 16.626 38.0792 16.9051 38.1836C17.1863 38.2859 17.4314 38.4403 17.6402 38.647C17.8511 38.8537 18.0152 39.1136 18.1324 39.4268C18.2496 39.7379 18.3082 40.1023 18.3082 40.5199V40.8938H14.1629V40.0501H17.0265C17.0265 39.854 16.9839 39.6804 16.8987 39.5291C16.8135 39.3778 16.6952 39.2596 16.5439 39.1744C16.3948 39.087 16.2211 39.0433 16.023 39.0433C15.8163 39.0433 15.6331 39.0913 15.4733 39.1871C15.3156 39.2809 15.192 39.4077 15.1025 39.5675C15.0131 39.7251 14.9672 39.9009 14.9651 40.0948V40.897C14.9651 41.1399 15.0099 41.3498 15.0993 41.5266C15.191 41.7035 15.3199 41.8398 15.4861 41.9357C15.6523 42.0316 15.8493 42.0795 16.0773 42.0795C16.2286 42.0795 16.3671 42.0582 16.4928 42.0156C16.6185 41.973 16.7261 41.9091 16.8156 41.8239C16.9051 41.7386 16.9733 41.6342 17.0202 41.5107L18.2794 41.5938C18.2155 41.8963 18.0844 42.1605 17.8863 42.3864C17.6903 42.6101 17.4367 42.7848 17.1256 42.9105C16.8167 43.0341 16.4598 43.0959 16.055 43.0959ZM20.5581 40.1619V43H19.1966V38.0909H20.4942V38.957H20.5518C20.6604 38.6715 20.8426 38.4457 21.0983 38.2795C21.354 38.1112 21.664 38.027 22.0283 38.027C22.3692 38.027 22.6665 38.1016 22.92 38.2507C23.1736 38.3999 23.3707 38.6129 23.5113 38.8899C23.6519 39.1648 23.7222 39.4929 23.7222 39.8743V43H22.3607V40.1172C22.3628 39.8168 22.2861 39.5824 22.1306 39.4141C21.9751 39.2436 21.7609 39.1584 21.4882 39.1584C21.305 39.1584 21.143 39.1978 21.0024 39.2766C20.8639 39.3555 20.7552 39.4705 20.6764 39.6218C20.5997 39.771 20.5603 39.951 20.5581 40.1619ZM27.9434 40.9098V38.0909H29.3049V43H27.9977V42.1083H27.9466C27.8358 42.396 27.6515 42.6271 27.3936 42.8018C27.138 42.9766 26.8258 43.0639 26.4572 43.0639C26.1291 43.0639 25.8404 42.9893 25.5911 42.8402C25.3418 42.6911 25.1468 42.479 25.0062 42.2042C24.8677 41.9293 24.7974 41.6001 24.7953 41.2166V38.0909H26.1568V40.9737C26.1589 41.2635 26.2367 41.4925 26.3901 41.6609C26.5435 41.8292 26.7491 41.9134 27.0069 41.9134C27.171 41.9134 27.3244 41.8761 27.4672 41.8015C27.6099 41.7248 27.725 41.6119 27.8123 41.4627C27.9018 41.3136 27.9455 41.1293 27.9434 40.9098ZM34.4784 39.4908L33.232 39.5675C33.2107 39.4609 33.1649 39.3651 33.0945 39.2798C33.0242 39.1925 32.9316 39.1232 32.8165 39.0721C32.7036 39.0188 32.5683 38.9922 32.4106 38.9922C32.1997 38.9922 32.0218 39.0369 31.8769 39.1264C31.732 39.2138 31.6595 39.331 31.6595 39.478C31.6595 39.5952 31.7064 39.6942 31.8002 39.7752C31.8939 39.8562 32.0548 39.9212 32.2828 39.9702L33.1713 40.1491C33.6485 40.2472 34.0044 40.4048 34.2387 40.6222C34.4731 40.8395 34.5903 41.125 34.5903 41.4787C34.5903 41.8004 34.4955 42.0827 34.3058 42.3256C34.1183 42.5685 33.8605 42.7582 33.5324 42.8945C33.2064 43.0288 32.8303 43.0959 32.4042 43.0959C31.7544 43.0959 31.2366 42.9606 30.8509 42.69C30.4674 42.4173 30.2426 42.0465 30.1766 41.5778L31.5157 41.5075C31.5562 41.7056 31.6542 41.8569 31.8097 41.9613C31.9653 42.0636 32.1645 42.1147 32.4074 42.1147C32.646 42.1147 32.8378 42.0689 32.9827 41.9773C33.1297 41.8835 33.2043 41.7631 33.2064 41.6161C33.2043 41.4925 33.1521 41.3913 33.0498 41.3125C32.9475 41.2315 32.7899 41.1697 32.5768 41.1271L31.7267 40.9577C31.2472 40.8619 30.8904 40.6957 30.656 40.4592C30.4237 40.2227 30.3076 39.9212 30.3076 39.5547C30.3076 39.2393 30.3928 38.9677 30.5633 38.7397C30.7359 38.5117 30.9777 38.3359 31.2888 38.2124C31.602 38.0888 31.9685 38.027 32.3882 38.027C33.0083 38.027 33.4962 38.158 33.852 38.4201C34.21 38.6822 34.4188 39.0391 34.4784 39.4908Z" fill="black"/>
<g filter="url(#filter0_i_19_122)">
<path d="M21 36C30.9411 36 39 27.9411 39 18C39 8.05887 30.9411 0 21 0C11.0589 0 3 8.05887 3 18C3 27.9411 11.0589 36 21 36Z" fill="#EEEA90"/>
</g>
<defs>
<filter id="filter0_i_19_122" x="3" y="0" width="36" height="40" filterUnits="userSpaceOnUse" color-interpolation-filters="sRGB">
<feFlood flood-opacity="0" result="BackgroundImageFix"/>
<feBlend mode="normal" in="SourceGraphic" in2="BackgroundImageFix" result="shape"/>
<feColorMatrix in="SourceAlpha" type="matrix" values="0 0 0 0 0 0 0 0 0 0 0 0 0 0 0 0 0 0 127 0" result="hardAlpha"/>
<feOffset dy="4"/>
<feGaussianBlur stdDeviation="2"/>
<feComposite in2="hardAlpha" operator="arithmetic" k2="-1" k3="1"/>
<feColorMatrix type="matrix" values="0 0 0 0 0 0 0 0 0 0 0 0 0 0 0 0 0 0 0.25 0"/>
<feBlend mode="normal" in2="shape" result="effect1_innerShadow_19_122"/>
</filter>
</defs>
</svg>
